<?xml version="1.0" encoding="UTF-8"?>
<svg style="background:transparent;" fill="currentColor" width="100%" height="100%" version="1.1" id="Capa_1" xmlns="http://www.w3.org/2000/svg" xmlns:xlink="http://www.w3.org/1999/xlink" viewBox="-1 -1 76.8 105" xml:space="preserve">
<g>
  <path
   d="m 37.56159,38.042682 4.005052,29.0537 13.162492,-21.995156 -5.584916,24.192699 14.189934,-13.576808 -7.389389,17.923329 11.80724,-8.811418 C 62.25511,79.78537 57.466956,88.170331 37.56159,94.984535 17.656224,88.170331 12.86807,79.78537 7.3726951,64.829028 L 19.178417,73.640446 11.789028,55.717117 25.978962,69.293925 20.394046,45.101226 33.556538,67.096382 Z"
   style="stroke-width:1.51764"
   id="path1" />
  <path
   d="m 16.710734,28.308539 c -6.031101,0 -9.6324611,-3.22802 -9.6324611,-8.650548 V 6.6760984 H 12.078897 V 19.45311 c 0,3.15062 1.655745,4.883765 4.669778,4.883765 3.09295,0 4.732002,-1.660298 4.732002,-4.794225 V 6.6760984 h 5.032494 V 19.571486 c 0,5.390657 -3.756159,8.737053 -9.802437,8.737053"
   style="stroke-width:1.51764"
   id="path2" />
  <path
   d="M 37.749777,27.948858 H 30.767115 V 6.6760981 h 7.085862 c 5.181222,0 8.035903,2.010873 8.035903,5.6501739 0,1.913744 -0.998607,3.387372 -2.904763,4.290368 2.555706,0.901478 3.853288,2.590612 3.853288,5.029459 0,4.067275 -3.224985,6.302759 -9.087628,6.302759 m -2.152014,-3.552795 h 2.152014 c 1.945614,0 4.25698,-0.496269 4.25698,-2.86834 0,-2.4434 -2.350824,-2.963951 -4.328309,-2.963951 h -2.080685 z m 0,-9.174134 h 1.816616 c 2.434294,0 3.780441,-0.913619 3.780441,-2.567847 0,-1.628428 -1.173136,-2.422153 -3.581631,-2.422153 h -2.015426 z"
   style="stroke-width:1.51764"
   id="path3" /><path
   d="m 60.843705,28.308539 c -6.885533,0 -11.332218,-4.299474 -11.332218,-10.967984 0,-6.588076 4.609073,-11.0195843 11.467288,-11.0195843 2.543565,0 4.684955,0.5008212 6.542546,1.5312987 l 0.163905,0.091058 -0.746679,4.3328626 -0.329328,-0.220058 c -1.825721,-1.226253 -3.563418,-1.792333 -5.460468,-1.792333 -4.09004,0 -6.534958,2.637659 -6.534958,7.050956 0,4.331344 2.528388,7.02212 6.603251,7.02212 1.930439,0 3.830524,-0.579738 5.806491,-1.769568 l 0.326293,-0.195776 0.704185,4.039958 -0.156317,0.09258 c -2.029085,1.160995 -4.534709,1.804474 -7.053991,1.804474"
   style="stroke-width:1.51764"
   id="path4" />
  <path
   d="M 37.56159,99.491925 C 14.062452,92.834038 2.845575,77.319205 2.845575,55.201119 V 2.8455745 h 69.43203 V 55.201119 c 0,22.118086 -11.216877,37.632919 -34.716015,44.290806 M 0,-4.8000001e-7 V 55.557765 C 0,78.906656 12.704164,95.81013 37.56159,102.4407 62.419016,95.81013 75.12318,78.906656 75.12318,55.557765 V -4.8000001e-7 Z"
   style="stroke-width:1.51764"
   id="path5" />
  
  <path
   d="m 37.563108,35.482423 c 5.237376,0 5.946114,2.124696 10.163635,2.098896 4.203863,0.0258 4.923224,-2.098896 10.162118,-2.098896 5.235858,0 5.956737,2.124696 10.163635,2.098896 v -4.877695 c -4.206898,0.02884 -4.927777,-2.070061 -10.163635,-2.070061 -5.238894,0 -5.958255,2.098896 -10.162118,2.070061 -4.217521,0.02884 -4.926259,-2.070061 -10.163635,-2.070061 -5.237376,0 -5.946114,2.098896 -10.163635,2.070061 -4.203863,0.02884 -4.924742,-2.070061 -10.162118,-2.070061 -5.237375,0 -5.959772,2.098896 -10.1636346,2.070061 v 4.877695 c 4.2038626,0.0258 4.9262596,-2.098896 10.1636346,-2.098896 5.237376,0 5.958255,2.124696 10.162118,2.098896 4.217521,0.0258 4.926259,-2.098896 10.163635,-2.098896"
   style="stroke-width:1.51764"
   id="path6" /><path
   d="m 40.880669,44.298394 c 2.526871,0.604021 3.728841,1.758945 6.846074,1.739215 4.202345,0.0258 4.923224,-2.098896 10.1606,-2.098896 5.237375,0 5.958254,2.124696 10.163635,2.098896 v -4.877695 c -4.205381,0.02884 -4.92626,-2.07006 -10.163635,-2.07006 -5.237376,0 -5.958255,2.098896 -10.1606,2.07006 -3.387372,0.02276 -4.513461,-1.324899 -7.535083,-1.857591 z"
   style="stroke-width:1.51764"
   id="path7" /><path
   d="m 27.399472,46.037609 c 3.115715,0.01973 4.317686,-1.133677 6.843039,-1.739215 l 0.689008,-4.994554 c -3.020103,0.532692 -4.14771,1.878839 -7.532047,1.856074 -4.203863,0.02884 -4.924742,-2.070061 -10.1606,-2.070061 -5.238893,0 -5.96129,2.098896 -10.1651525,2.070061 v 4.877695 c 4.2038625,0.0258 4.9262595,-2.098896 10.1651525,-2.098896 5.235858,0 5.956737,2.124696 10.1606,2.098896"
   style="stroke-width:1.51764"
   id="path8" /><path
   d="m 42.096298,53.108294 c 1.428099,0.491715 2.526871,1.091183 4.223592,1.303653 l 2.927528,-4.891354 a 10.764621,10.764621 0 0 1 -1.520676,0.09409 c -2.897174,0.01821 -4.138604,-0.965219 -6.330076,-1.582899 z"
   style="stroke-width:1.51764"
   id="path9" />
  
  <path
   d="m 55.504648,52.568014 c 0.684456,-0.107752 1.463005,-0.174529 2.384212,-0.174529 5.235858,0 5.958255,2.124696 10.163636,2.098897 v -4.877695 c -4.205381,0.02732 -4.927778,-2.071579 -10.163636,-2.071579 -0.44315,0 -0.851396,0.01669 -1.233841,0.04401 z"
   style="stroke-width:1.51764"
   id="path10" />
  <path
   d="M 19.62005,52.568014 18.469679,47.58712 c -0.382445,-0.02732 -0.789173,-0.04401 -1.230806,-0.04401 -5.238893,0 -5.96129,2.098896 -10.1651529,2.071579 v 4.877695 c 4.2038629,0.0258 4.9262599,-2.098897 10.1651529,-2.098897 0.918172,0 1.696721,0.06678 2.381177,0.174529"
   style="stroke-width:1.51764"
   id="path11" />
  
  
  <path
   d="m 28.804807,54.411947 c 1.696722,-0.21247 2.795493,-0.811937 4.223592,-1.303653 l 0.699632,-5.076506 c -2.189954,0.61768 -3.431384,1.601111 -6.328559,1.581381 a 10.577951,10.577951 0 0 1 -1.522193,-0.09409 z"
   style="stroke-width:1.51764"
   id="path12" /></g>
</svg>
