<svg xmlns="http://www.w3.org/2000/svg" version="1.1" xmlns:xlink="http://www.w3.org/1999/xlink" fill="currentColor" width="1em" height="1em" x="0" y="0" viewBox="0 0 512 512" style="enable-background:new 0 0 512 512" xml:space="preserve" class=""><g><path d="M479.867 339.862v-159.25l-30 10v149.25c-18.655 6.281-32.133 23.926-32.133 44.671v80.333c0 8.284 6.716 15 15 15H497c8.284 0 15-6.716 15-15v-80.333c0-20.745-13.478-38.39-32.133-44.671zM241.775 250.492 96.4 202.034V304.2a15 15 0 0 0 4.394 10.607c41.462 41.457 96.585 64.289 155.213 64.289 58.629 0 113.747-22.832 155.2-64.291A14.998 14.998 0 0 0 415.6 304.2V202.034l-145.37 48.457a45.008 45.008 0 0 1-28.455.001z" fill="#000000" opacity="1" data-original="#000000" class=""></path><path d="M256 222.8c1.602 0 3.204-.257 4.743-.77l241-80.333a15 15 0 0 0 0-28.46l-241-80.333a15.016 15.016 0 0 0-9.486 0l-241 80.333a14.999 14.999 0 0 0 0 28.46l241 80.333c1.539.513 3.141.77 4.743.77z" fill="#000000" opacity="1" data-original="#000000" class=""></path></g></svg>