<?xml version="1.0" encoding="UTF-8"?>
<!DOCTYPE svg PUBLIC "-//W3C//DTD SVG 1.1//EN" 
  "http://www.w3.org/Graphics/SVG/1.1/DTD/svg11.dtd">
<svg xmlns="http://www.w3.org/2000/svg" version="1.1" xmlns:xlink="http://www.w3.org/1999/xlink" width="1em" height="1em" x="0" y="0" viewBox="0 0 500 500" style="enable-background:new 0 0 512 512" xml:space="preserve" class=""><g><g fill-rule="evenodd" clip-rule="evenodd"><circle cx="249.993" cy="406.552" r="63.095" fill="#4187b5" transform="rotate(-45 249.938 406.628)" opacity="1" data-original="#4187b5"></circle><path fill="#ffbf31" d="M249.993 406.552c19.83 0 36.054 16.224 36.054 36.054v15.726c-21.633 15.092-50.475 15.091-72.108 0v-15.726c0-19.83 16.224-36.054 36.054-36.054z" opacity="1" data-original="#ffbf31" class=""></path><circle cx="249.993" cy="387.025" r="19.529" fill="#f0b16e" transform="rotate(-22.48 249.988 386.624)" opacity="1" data-original="#f0b16e" class=""></circle><circle cx="401.233" cy="406.552" r="63.095" fill="#4187b5" transform="rotate(-82 401.497 406.68)" opacity="1" data-original="#4187b5"></circle><path fill="#19cfba" d="M401.233 406.552c19.83 0 36.054 16.224 36.054 36.054v15.726c-21.634 15.092-50.474 15.091-72.108 0v-15.726c0-19.83 16.224-36.054 36.054-36.054z" opacity="1" data-original="#19cfba" class=""></path><circle cx="401.233" cy="387.025" r="19.529" fill="#f0b16e" opacity="1" data-original="#f0b16e" class=""></circle><circle cx="98.753" cy="406.552" r="63.095" fill="#4187b5" opacity="1" data-original="#4187b5"></circle><path fill="#fa6e85" d="M98.753 406.552c-19.83 0-36.054 16.224-36.054 36.054v15.726c21.634 15.092 50.474 15.091 72.108 0v-15.726c0-19.83-16.224-36.054-36.054-36.054z" opacity="1" data-original="#fa6e85" class=""></path><circle cx="98.753" cy="387.025" r="19.529" fill="#f0b16e" opacity="1" data-original="#f0b16e" class=""></circle><circle cx="249.993" cy="161.663" r="77.36" fill="#ffbf31" transform="rotate(-10.89 250.165 161.714)" opacity="1" data-original="#ffbf31" class=""></circle><circle cx="249.993" cy="161.663" r="35.544" fill="#fa6e85" transform="rotate(-76.7 250.068 161.7)" opacity="1" data-original="#fa6e85" class=""></circle><path fill="#ffbf31" d="m355.156 55.62-7.014-25.291-29.999 29.998 7.015 25.291zM355.156 55.62l25.291 7.015-29.998 29.998-25.291-7.015z" opacity="1" data-original="#ffbf31" class=""></path><path fill="#1e2f3f" d="m357.617 110.425 53.555 46.173c3.082 2.662 3.08 7.481 0 10.147l-53.555 46.168c-2.732 2.375-6.987 2.156-9.424-.694-2.426-2.805-2.145-7.026.677-9.447l47.686-41.1-47.686-41.1c-2.822-2.421-3.104-6.642-.677-9.447 2.37-2.805 6.603-3.115 9.424-.7zM86.458 161.672c0-1.947.847-3.804 2.37-5.073l53.555-46.179c2.765-2.41 6.998-2.099 9.424.705 2.427 2.805 2.088 7.026-.677 9.447l-47.686 41.1 47.686 41.1c4.647 4.037 1.808 11.766-4.402 11.766a6.62 6.62 0 0 1-4.345-1.625l-53.555-46.168a6.594 6.594 0 0 1-2.37-5.073zm192.379 0c0 15.903-12.923 28.848-28.837 28.848s-28.837-12.946-28.837-28.848c0-22.234 24.18-36.099 43.397-24.898l-18.849 18.843c-4.309 4.281-1.133 11.433 4.74 11.433 1.693 0 3.386-.655 4.74-1.964l19.018-19.046a28.52 28.52 0 0 1 4.628 15.632zM250 91.012c-38.995 0-70.654 31.693-70.654 70.66s31.659 70.659 70.654 70.659c38.938 0 70.654-31.693 70.654-70.659 0-17.297-6.264-33.16-16.648-45.457l-20.147 20.209a42.138 42.138 0 0 1 8.352 25.248c0 23.29-18.905 42.24-42.212 42.24s-42.268-18.95-42.268-42.24 18.961-42.246 42.268-42.246c8.973 0 17.325 2.844 24.21 7.664l20.259-20.259C282.336 96.943 266.817 91.012 250 91.012zm94.751-47.821 2.935 10.463-19.131 19.114-2.935-10.458zm3.724 41.952 19.131-19.119-10.496-2.901-19.074 19.119zM250 245.728c46.331 0 84.028-37.708 84.028-84.056 0-20.999-7.731-40.214-20.485-54.96l13.6-13.595 21.501 5.976a6.756 6.756 0 0 0 6.546-1.716l30.022-29.994c3.465-3.517 2.09-9.79-2.991-11.202l-21.614-5.999-5.982-21.642c-1.404-4.908-7.611-6.551-11.23-2.946l-30.022 30c-1.693 1.716-2.314 4.204-1.693 6.529l5.982 21.529-13.657 13.651C289.39 85.03 270.542 77.615 250 77.615c-46.331 0-84.085 37.708-84.085 84.057s37.754 84.056 84.085 84.056zM141.48 443.282c0-17.054-9.008-31.394-23.25-38.707 15.23-16.957 3.074-43.769-19.469-43.769-14.447 0-26.241 11.761-26.241 26.23 0 6.732 2.54 12.889 6.772 17.539-14.243 7.313-23.307 21.65-23.307 38.707-8.465-9.876-13.6-22.703-13.6-36.726 0-31.094 25.282-56.393 56.376-56.393s56.376 25.299 56.376 56.393c0 14.023-5.136 26.85-13.657 36.726zm-55.586-56.246c0 7.065 5.756 12.804 12.81 12.821a12.798 12.798 0 0 0 12.867-12.821c0-7.082-5.756-12.833-12.81-12.833-7.111 0-12.867 5.75-12.867 12.833zm-16.478 67.657c17.957 11.036 40.661 11.007 58.69 0V442.61c0-16.162-13.149-29.328-29.289-29.356-16.22-.014-29.401 13.162-29.401 29.356zm55.755-112.714 59.593-59.548c-.336 3.82 2.795 7.189 6.659 7.189 2.991 0 5.756-2.054 6.49-5.13l5.417-22.443c.457-4.158-1.806-5.52-1.806-5.79 0-.011-.056-.011-.056-.011l-.677-.615-.677-.457-2.314-.824s-.056 0-.056-.006a6.524 6.524 0 0 0-2.596.124l-22.065 5.107c-3.612.841-5.869 4.43-5.022 8.036.79 3.397 4.063 5.576 7.449 5.13l-65.067 65.022c-42.533-7.236-81.489 25.641-81.489 68.792 0 38.816 31.639 69.796 69.807 69.796 38.209 0 69.807-31.045 69.807-69.796 0-29.13-17.946-54.135-43.397-64.576zm246.724 112.714V442.61c0-16.194 13.182-29.37 29.401-29.356 16.14.028 29.289 13.194 29.289 29.356v12.082c-18.029 11.008-40.733 11.037-58.69.001zm29.345-54.836c-7.101 0-12.81-5.742-12.81-12.821 0-7.082 5.7-12.833 12.81-12.833 7.054 0 12.81 5.751 12.81 12.833 0 7.079-5.709 12.821-12.81 12.821zm-56.377 6.699c0 14.024 5.135 26.851 13.6 36.726 0-17.057 9.064-31.394 23.307-38.707a25.955 25.955 0 0 1-6.772-17.539c0-14.469 11.794-26.23 26.241-26.23 22.543 0 34.698 26.812 19.469 43.769 14.242 7.313 23.25 21.653 23.25 38.707 8.521-9.876 13.657-22.703 13.657-36.726 0-31.094-25.282-56.393-56.376-56.393-31.094-.001-56.376 25.298-56.376 56.393zm126.184 0c0-43.051-38.725-75.97-81.545-68.792l-65.01-65.022c3.386.446 6.602-1.733 7.449-5.13.79-3.606-1.411-7.195-5.023-8.036l-22.065-5.107c-2.642-.64-5.783.544-7.054 2.573-1.285 2.051-1.354 3.16-1.072 5.502l5.361 21.947c.882 3.654 4.47 5.8 8.07 4.932 3.217-.779 5.305-3.787 5.079-6.992l59.593 59.548c-25.451 10.44-43.397 35.446-43.397 64.576 0 38.909 31.741 69.796 69.807 69.796 38.209.001 69.807-31.044 69.807-69.795zM292.72 443.282c0-17.054-9.008-31.394-23.25-38.707 15.229-16.957 3.074-43.769-19.469-43.769-14.447 0-26.241 11.761-26.241 26.23a25.95 25.95 0 0 0 6.772 17.539c-14.242 7.313-23.307 21.65-23.307 38.707-8.465-9.876-13.6-22.703-13.6-36.726 0-31.094 25.282-56.393 56.376-56.393s56.376 25.299 56.376 56.393c-.001 14.023-5.136 26.85-13.657 36.726zm-55.587-56.246c0 7.065 5.756 12.804 12.81 12.821a12.798 12.798 0 0 0 12.867-12.821c0-7.082-5.756-12.833-12.81-12.833-7.11 0-12.867 5.75-12.867 12.833zm-16.478 67.657c17.957 11.036 40.661 11.007 58.69 0V442.61c0-16.162-13.149-29.328-29.289-29.356-16.22-.014-29.402 13.162-29.402 29.356v12.083zm35.891-117.606c35.44 3.324 63.261 33.205 63.261 69.469 0 38.751-31.598 69.796-69.807 69.796-38.169 0-69.807-30.98-69.807-69.796 0-36.173 27.708-66.015 62.979-69.452v-45.18a6.716 6.716 0 0 1-5.079 2.33c-5.175 0-8.449-5.661-5.7-10.18l11.738-19.289c3.037-4.428 7.449-2.986 7.449-2.985.846.214 1.58.581 2.201 1.055 0 .011.056.011.056.017a6.632 6.632 0 0 1 1.806 2.032l11.907 19.108c1.975 3.132 1.016 7.268-2.144 9.227-2.935 1.845-6.772 1.095-8.86-1.62z" opacity="1" data-original="#1e2f3f" class=""></path></g></g></svg>