<?xml version="1.0" encoding="utf-8"?>
<!-- License: MIT https://lobehub.com/icons?q=mcp -->
<svg fill="currentColor" xmlns="http://www.w3.org/2000/svg" style="transform: matrix(1, 0, 0, 1, 0, 0); transform-origin: 50% 50% 0px; cursor: move; transition: none;" width="1em" height="1em" viewBox="0 0 5450 5850"><g id="l4iASM7wLz5oF2EuF3NYPms" fill="rgb(255,255,255)" style="transform: none;"><g style="transform: none;"><path id="pLwSbEvG5" d="M0 2925 l0 -2925 2725 0 2725 0 0 2925 0 2925 -2725 0 -2725 0 0 -2925z m3090 2535 c173 -100 344 -199 380 -220 36 -21 223 -129 415 -240 193 -111 379 -219 415 -240 145 -84 571 -330 652 -376 l88 -49 -3 -1338 -2 -1339 -130 -75 c-256 -148 -533 -308 -700 -404 -93 -54 -171 -105 -173 -113 -2 -9 -13 -16 -25 -16 -19 0 -130 -58 -277 -146 -30 -17 -183 -106 -340 -196 -157 -91 -376 -217 -487 -281 -111 -65 -204 -117 -207 -117 -3 0 -27 13 -53 29 -27 15 -214 124 -418 241 -394 227 -613 354 -1275 736 -228 132 -454 263 -502 290 l-87 49 -1 1341 0 1340 158 91 c86 50 299 173 472 273 173 100 344 199 380 220 36 21 223 129 415 240 193 111 373 215 400 231 28 16 154 89 280 163 l230 133 40 -22 c22 -13 182 -105 355 -205z m1014 -4490 c9 0 16 -6 16 -14 0 -7 9 -16 20 -19 25 -6 27 -14 35 -109 l7 -78 89 0 89 0 0 33 c0 17 -7 59 -14 91 -19 79 -9 106 39 106 22 0 38 -6 41 -15 4 -8 12 -15 20 -15 8 0 14 -4 14 -9 0 -5 10 -12 23 -16 20 -7 18 -8 -13 -14 -34 -6 -35 -7 -38 -60 -2 -42 4 -75 26 -135 45 -122 52 -146 52 -180 0 -44 -34 -95 -76 -112 -33 -14 -39 -13 -78 5 -23 12 -56 35 -74 53 l-31 33 64 -3 c86 -5 95 5 95 97 l0 71 -101 0 -101 0 4 -53 4 -53 -38 40 c-21 23 -38 48 -38 57 0 9 -21 24 -54 38 -65 27 -81 51 -34 51 l31 0 -7 63 c-18 176 -18 183 -3 165 8 -10 22 -18 31 -18z m536 -3 c0 -7 10 -17 23 -22 19 -9 23 -20 29 -95 4 -47 23 -159 42 -250 19 -90 33 -166 31 -168 -2 -2 -11 8 -20 22 -10 14 -22 26 -29 26 -13 0 -51 81 -65 136 -5 22 -18 73 -30 114 -11 41 -21 85 -21 97 0 11 -14 33 -31 47 -27 23 -28 26 -10 26 15 0 21 6 21 21 0 32 19 59 40 59 11 0 20 -6 20 -13z"></path><path id="p82fVkbYY" d="M2160 5224 c-567 -328 -926 -535 -1290 -745 -140 -80 -277 -160 -305 -176 l-50 -29 -3 -1276 -2 -1276 272 -158 c265 -152 466 -269 1073 -619 160 -92 406 -235 547 -316 300 -174 293 -173 408 -105 41 24 203 118 360 208 157 91 436 252 620 358 184 107 448 259 585 338 138 79 279 161 315 182 36 21 92 53 125 72 l60 34 2 1280 3 1279 -218 124 c-119 69 -284 164 -367 212 -255 147 -516 298 -865 499 -184 106 -415 240 -514 297 -148 86 -186 103 -220 103 -35 0 -108 -39 -536 -286z m814 -261 c149 -86 333 -192 409 -236 75 -43 137 -81 137 -83 0 -2 -24 5 -52 15 -29 11 -188 67 -353 126 -165 58 -317 112 -338 120 -20 8 -53 15 -72 15 l-35 0 0 -159 0 -159 -42 13 c-88 28 -497 179 -494 183 10 10 552 321 560 322 5 0 131 -71 280 -157z m-930 -240 c3 -10 13 -74 22 -143 9 -69 20 -130 25 -135 4 -6 25 -16 46 -23 21 -8 47 -17 58 -22 11 -5 54 -20 95 -35 41 -15 98 -35 125 -45 28 -10 84 -30 125 -45 183 -65 192 -70 168 -76 -23 -5 -23 -7 -19 -142 l3 -137 -83 31 c-342 126 -410 149 -444 149 l-38 0 8 -137 c4 -76 8 -139 9 -140 3 -3 66 -26 346 -127 204 -74 231 -84 213 -85 -10 -1 -13 -32 -13 -121 0 -66 -3 -120 -7 -120 -5 0 -107 36 -227 80 -128 47 -234 80 -256 80 l-38 0 -4 -226 -3 -227 -30 -21 c-16 -12 -49 -40 -73 -64 l-43 -43 3 -72 3 -71 82 -51 c45 -27 84 -53 88 -56 3 -4 -87 12 -202 36 -347 71 -455 94 -783 160 -173 36 -325 67 -338 70 l-22 5 2 542 3 542 250 145 c138 79 403 233 590 342 187 109 343 198 347 199 4 0 9 -8 12 -17z m1955 -351 c25 -16 143 -84 261 -152 118 -68 232 -134 253 -147 l37 -23 0 -540 0 -540 -22 -5 c-23 -4 -117 -24 -613 -125 -137 -28 -348 -71 -469 -96 -120 -25 -220 -43 -222 -42 -2 2 33 25 77 52 87 54 94 65 87 147 -4 43 -12 57 -49 95 -24 25 -56 53 -71 62 -23 13 -28 23 -28 55 0 33 3 38 18 32 108 -43 287 -99 325 -103 34 -3 66 3 106 18 69 26 60 -4 96 304 l27 229 -20 43 -21 42 45 21 c24 12 44 26 44 32 0 6 18 155 40 330 22 176 40 324 40 329 0 15 10 12 59 -18z m-604 -32 c28 -10 78 -29 113 -41 34 -12 62 -24 62 -28 -1 -32 -38 -343 -41 -345 -2 -2 -76 22 -164 53 -121 42 -152 57 -129 59 l30 3 12 113 c7 62 12 137 12 166 0 52 0 52 28 46 15 -4 50 -15 77 -26z m-1 -684 c55 -20 102 -36 104 -36 6 0 -6 -199 -14 -239 l-6 -27 -130 45 c-72 25 -125 47 -119 49 7 2 11 47 11 132 l0 129 28 -9 c15 -5 72 -25 126 -44z m-2503 -1093 c43 -33 49 -42 49 -74 0 -20 -7 -42 -15 -49 -8 -7 -15 -28 -15 -47 0 -21 6 -36 15 -39 10 -4 15 -20 15 -49 0 -39 -4 -47 -44 -80 -43 -35 -45 -36 -160 -42 l-116 -6 0 211 0 212 111 0 112 0 48 -37z m3871 20 c-86 -166 -89 -197 -33 -318 l40 -85 -35 0 c-29 0 -36 5 -48 35 -13 30 -20 35 -49 35 -29 0 -37 -5 -47 -30 -10 -25 -18 -30 -46 -30 -19 0 -34 2 -34 4 0 2 16 38 35 79 24 52 35 89 35 121 0 33 -10 66 -35 116 -19 38 -35 72 -35 75 0 3 15 5 34 5 28 0 36 -5 46 -30 10 -24 18 -30 44 -30 27 0 35 6 49 35 14 30 21 35 52 35 31 0 34 -2 27 -17z m-3642 -188 l0 -195 -40 0 -40 0 0 195 0 195 40 0 40 0 0 -195z m3260 0 l0 -195 -40 0 -40 0 0 195 0 195 40 0 40 0 0 -195z m-2885 153 c37 -26 45 -37 45 -64 0 -17 -7 -37 -15 -44 -20 -17 -20 -76 1 -84 11 -4 14 -17 12 -47 -3 -35 -9 -45 -43 -69 -36 -26 -50 -29 -157 -36 l-118 -6 0 191 0 191 115 0 c113 0 115 -1 160 -32z m2465 -33 l0 -65 44 0 c24 0 58 3 75 6 30 6 31 7 31 65 l0 59 45 0 45 0 0 -44 c0 -26 -6 -48 -15 -56 -8 -7 -15 -27 -15 -45 0 -18 7 -38 15 -45 9 -8 15 -30 15 -60 0 -43 -4 -51 -40 -84 l-40 -36 -120 0 -120 0 0 185 0 185 40 0 40 0 0 -65z m-2090 25 l0 -30 -75 0 -75 0 0 -144 c0 -141 0 -144 -22 -150 -60 -16 -58 -22 -58 174 l0 180 115 0 115 0 0 -30z m180 -145 l0 -175 -40 0 -40 0 0 175 0 175 40 0 40 0 0 -175z m361 134 l49 -41 0 -93 0 -93 -49 -41 c-45 -38 -54 -41 -106 -41 -52 0 -61 3 -106 41 l-49 41 0 93 0 93 48 41 c43 37 52 40 106 41 54 0 62 -3 107 -41z m208 35 c30 -6 31 -7 31 -65 l0 -59 34 0 c25 0 38 6 50 25 22 34 53 32 74 -5 14 -25 23 -30 55 -30 l37 0 0 70 0 70 40 0 40 0 0 -175 0 -175 -40 0 c-40 0 -42 2 -88 75 -45 72 -49 75 -81 73 -31 -3 -40 -11 -84 -76 -47 -71 -50 -73 -85 -70 l-37 3 -3 160 c-1 87 0 165 2 172 6 15 11 15 55 7z m741 -24 l0 -30 -100 0 -100 0 0 -40 0 -40 55 0 c54 0 55 0 55 -30 0 -30 -1 -30 -55 -30 l-55 0 0 -45 0 -45 100 0 100 0 0 -30 0 -30 -140 0 -140 0 0 175 0 175 140 0 140 0 0 -30z m300 -115 l0 -145 60 0 60 0 0 -36 c0 -29 -3 -35 -16 -30 -9 3 -81 6 -160 6 l-144 0 0 30 0 30 60 0 60 0 0 145 0 145 40 0 40 0 0 -145z m-1384 -505 c34 -91 120 -181 224 -236 32 -17 33 -19 13 -22 -20 -3 -23 -10 -23 -45 0 -62 36 -107 105 -134 39 -15 173 -16 216 -2 65 22 109 80 109 144 0 31 -3 35 -25 35 -37 0 -30 12 18 35 59 28 173 143 199 202 13 30 23 76 26 126 3 58 8 77 19 77 8 0 119 -18 246 -40 516 -88 709 -121 862 -146 88 -15 163 -29 167 -33 3 -3 -73 -51 -170 -107 -97 -56 -247 -141 -332 -191 -85 -49 -231 -134 -325 -188 -93 -54 -240 -138 -325 -187 -85 -50 -253 -146 -372 -215 l-216 -124 -39 24 c-21 14 -204 120 -408 237 -347 200 -552 318 -1073 619 -116 68 -212 127 -212 131 0 5 297 59 555 100 28 5 147 25 265 46 118 20 271 46 340 58 l125 21 7 -70 c4 -38 15 -90 24 -115z"></path><path id="pyktpybvE" d="M700 2495 l0 -55 76 0 75 0 -3 53 -3 52 -72 3 -73 3 0 -56z"></path><path id="pUnqPBQy2" d="M700 2300 l0 -60 75 0 75 0 0 60 0 60 -75 0 -75 0 0 -60z"></path><path id="puT8NAL4X" d="M1300 2485 l0 -55 81 0 80 0 -3 53 -3 52 -77 3 -78 3 0 -56z"></path><path id="p13YOVFY5v" d="M1300 2305 l0 -55 81 0 80 0 -3 53 -3 52 -77 3 -78 3 0 -56z"></path><path id="pDxSaa6ZR" d="M3960 2336 c0 -52 1 -54 31 -60 17 -3 51 -6 75 -6 l44 0 0 60 0 60 -75 0 -75 0 0 -54z"></path><path id="pcPityMgT" d="M2234 2497 c-2 -7 -3 -58 -2 -113 l3 -99 73 -3 72 -3 0 116 0 115 -70 0 c-49 0 -72 -4 -76 -13z"></path></g></g><g id="l3b92YinyV16KhXV9qDUAEb" fill="rgb(182,202,234)" style="transform: none;"><g style="transform: none;"><path id="pvUPrVbYi" d="M3993 1058 c-14 -7 -23 -20 -23 -35 0 -26 3 -27 30 -13 15 8 20 6 26 -12 4 -13 2 -24 -5 -26 -13 -4 -15 -32 -2 -32 4 0 11 -19 14 -42 4 -24 9 -58 13 -77 l7 -34 -52 5 c-41 4 -54 2 -61 -11 -6 -13 -2 -20 20 -30 16 -7 32 -21 35 -31 7 -21 38 -36 43 -21 2 6 24 11 49 11 l46 0 -7 63 c-18 162 -18 164 -5 172 7 5 14 4 17 -3 2 -7 17 -12 34 -12 34 0 34 19 0 35 -12 5 -22 15 -22 22 0 7 -9 13 -20 13 -11 0 -20 5 -20 10 0 6 -12 15 -27 21 -27 10 -27 11 -9 25 18 13 17 14 -20 13 -21 0 -49 -5 -61 -11z"></path><path id="pMXQfsvo6" d="M4605 1020 c-3 -5 -10 -8 -14 -6 -15 9 -46 -38 -42 -64 3 -24 2 -24 -16 -7 -11 9 -25 17 -32 17 -7 0 -9 5 -6 10 3 6 -4 10 -16 10 -12 0 -19 3 -16 7 14 14 -31 29 -83 29 -69 -1 -84 -23 -74 -106 3 -30 7 -67 8 -82 0 -16 4 -28 9 -28 4 0 7 -4 7 -10 0 -6 -27 -10 -60 -10 -47 0 -60 3 -60 15 0 8 -7 15 -16 15 -14 0 -16 -9 -12 -55 3 -30 7 -58 11 -61 3 -3 54 -3 112 1 l107 8 -6 56 c-3 31 -9 77 -12 104 -4 31 -2 53 6 62 14 16 70 21 70 6 0 -5 10 -13 22 -17 22 -7 62 -50 64 -69 0 -5 4 -18 9 -28 4 -9 5 -26 2 -37 -3 -11 -1 -20 5 -20 6 0 8 -9 5 -20 -3 -10 -1 -20 5 -22 5 -2 10 -19 11 -38 1 -19 8 -41 15 -49 8 -8 12 -25 9 -38 -2 -12 0 -23 5 -23 6 0 8 -7 4 -15 -3 -8 -1 -15 5 -15 6 0 9 -5 7 -12 -2 -6 4 -20 15 -31 10 -10 16 -25 13 -33 -3 -9 1 -14 11 -14 9 0 29 -15 44 -32 l28 -33 1 31 c0 17 -7 49 -16 70 -22 52 -73 228 -80 278 -4 24 -15 48 -28 58 -11 10 -16 18 -10 18 6 0 14 16 17 36 7 43 23 64 48 64 12 0 19 7 19 20 0 11 -6 20 -13 20 -7 0 -17 10 -22 23 -11 24 -49 35 -60 17z"></path><path id="pqJWZZwIZ" d="M4080 680 c0 -5 7 -13 16 -18 9 -5 15 -15 12 -22 -3 -11 75 -100 88 -100 11 0 2 64 -16 104 -18 44 -21 46 -60 46 -22 0 -40 -4 -40 -10z"></path><path id="peMwA6Nqt" d="M4350 665 c0 -8 7 -15 15 -15 20 0 21 -76 1 -96 -24 -23 -72 -17 -94 11 -26 33 -32 32 -32 -9 0 -26 8 -41 35 -65 32 -28 43 -31 98 -31 36 0 68 5 75 12 15 15 16 146 2 182 -8 23 -15 26 -55 26 -33 0 -45 -4 -45 -15z"></path></g></g><g id="l3PBlU1yT7nyVJA1MW0QsS5" fill="rgb(31,206,249)" style="transform: none;"><g style="transform: none;"><path id="pqZZc9PNk" d="M2445 5590 c-132 -77 -262 -153 -290 -169 -27 -16 -207 -120 -400 -231 -192 -111 -379 -219 -415 -240 -82 -48 -639 -370 -823 -475 -75 -44 -137 -85 -137 -92 0 -8 13 -13 35 -13 28 0 35 4 35 20 0 16 7 20 35 20 28 0 35 4 35 20 0 16 7 20 35 20 28 0 35 4 35 20 0 16 7 20 34 20 19 0 41 7 50 15 8 8 24 15 35 15 12 0 21 4 21 9 0 5 16 15 35 21 19 6 43 19 52 28 13 13 41 18 130 21 78 2 113 0 113 -8 0 -6 -11 -11 -25 -11 -21 0 -25 -5 -25 -30 0 -16 3 -30 7 -30 3 0 42 21 87 47 45 26 149 86 231 133 83 48 417 241 744 430 327 188 602 345 611 347 8 2 96 -43 195 -100 99 -57 331 -191 515 -297 545 -314 709 -409 816 -471 55 -33 103 -59 107 -59 4 0 7 11 7 25 0 25 1 25 89 25 101 0 137 -12 243 -82 15 -10 36 -18 48 -18 11 0 20 -4 20 -10 0 -5 20 -10 45 -10 31 0 45 4 45 13 0 8 -100 72 -222 142 -123 71 -248 143 -278 161 -30 18 -212 123 -405 234 -192 111 -379 219 -415 240 -133 77 -687 398 -741 428 -31 18 -60 32 -65 32 -5 -1 -117 -64 -249 -140z"></path><path id="pnP0tfe2R" d="M2395 4999 c-159 -92 -308 -179 -330 -192 -22 -13 -172 -100 -332 -193 -161 -93 -293 -174 -293 -181 0 -8 13 -13 35 -13 28 0 35 4 35 20 0 16 7 20 35 20 28 0 35 4 35 20 0 16 7 20 33 20 17 1 48 9 67 20 136 73 159 80 260 80 l98 0 7 -55 c6 -50 9 -55 31 -55 21 0 24 -4 24 -40 0 -38 2 -40 30 -40 17 0 30 -4 30 -10 0 -5 11 -10 25 -10 14 0 25 -4 25 -10 0 -5 20 -10 45 -10 34 0 45 4 45 15 0 16 -20 26 -130 66 -19 7 -39 16 -45 21 -9 8 -56 289 -49 297 1 2 105 -34 231 -80 125 -45 244 -88 263 -95 26 -9 37 -9 42 -1 6 9 8 9 8 0 0 -16 31 -32 71 -37 17 -2 34 -8 38 -13 10 -16 50 -27 154 -40 26 -3 47 -9 47 -14 0 -5 9 -9 21 -9 11 0 26 -6 33 -13 7 -7 43 -19 80 -27 36 -7 66 -17 66 -22 0 -4 14 -8 30 -8 17 0 30 -4 30 -10 0 -5 21 -10 46 -10 37 0 45 3 42 17 -3 16 -24 26 -158 73 -30 10 -100 35 -155 55 -55 21 -111 41 -125 45 -14 5 -50 17 -80 28 l-55 20 -3 131 c-1 72 0 131 3 131 2 0 22 -7 42 -15 21 -8 173 -62 338 -120 165 -59 406 -145 535 -192 129 -46 248 -89 264 -94 57 -17 104 -45 -897 534 -159 92 -291 167 -295 166 -4 0 -137 -77 -297 -170z"></path><path id="pWCTpZR5a" d="M3330 4370 c0 -29 2 -30 45 -30 70 0 59 36 -17 54 -26 6 -28 4 -28 -24z"></path><path id="p9DsCCzIz" d="M2350 4350 c0 -29 2 -30 45 -30 70 0 59 36 -17 54 -26 6 -28 4 -28 -24z"></path><path id="pZZZ7nak7" d="M3440 4330 c0 -29 2 -30 45 -30 70 0 59 36 -17 54 -26 6 -28 4 -28 -24z"></path></g></g><g id="l5ZSGXr5BCjLgHFLZbPjRC5" fill="rgb(28,182,241)" style="transform: none;"><g style="transform: none;"><path id="pTcE3Wefm" d="M2586 4631 l-88 -6 88 -34 c127 -48 221 -82 459 -168 116 -42 212 -77 214 -79 7 -6 -22 -274 -30 -274 -6 0 -176 60 -469 167 -52 19 -106 38 -120 43 -14 4 -69 24 -123 44 -54 19 -105 32 -113 29 -8 -3 -20 2 -27 10 -16 21 -93 48 -113 40 -10 -4 -20 1 -26 10 -5 10 -15 14 -25 10 -9 -4 -19 1 -25 11 -6 10 -17 14 -31 11 -17 -4 -25 1 -34 22 -7 15 -13 33 -13 40 0 7 -7 13 -15 13 -8 0 -15 5 -15 10 0 6 5 10 10 10 6 0 10 7 10 15 0 8 -7 15 -15 15 -8 0 -15 7 -15 15 0 8 5 15 10 15 6 0 10 7 10 15 0 13 -22 15 -140 15 -122 0 -146 -3 -181 -20 -22 -12 -44 -18 -49 -15 -6 3 -10 1 -10 -6 0 -7 -3 -9 -7 -6 -3 4 -13 -2 -21 -14 -8 -11 -20 -18 -28 -15 -8 3 -14 1 -14 -5 0 -6 -4 -7 -10 -4 -5 3 -10 2 -10 -4 0 -6 -6 -8 -13 -5 -7 2 -25 -6 -40 -20 -15 -14 -27 -23 -27 -20 0 2 -13 -2 -30 -11 -16 -9 -30 -19 -30 -24 0 -4 -6 -8 -13 -8 -11 0 -255 -137 -542 -305 l-110 -64 -3 -207 c-2 -202 -2 -207 18 -207 19 0 20 6 20 120 l0 120 630 0 630 0 0 -25 c0 -14 4 -25 9 -25 6 0 11 -15 13 -32 3 -30 6 -33 41 -36 20 -2 37 -7 37 -13 0 -5 14 -9 30 -9 17 0 30 -4 30 -10 0 -5 18 -10 40 -10 29 0 40 -4 40 -15 0 -10 10 -15 30 -15 17 0 30 -4 30 -10 0 -5 20 -10 45 -10 34 0 45 4 45 15 0 17 -6 20 -145 70 -55 20 -118 43 -141 52 l-41 15 -7 105 c-4 58 -5 108 -2 110 2 3 123 -39 268 -92 145 -54 298 -110 341 -126 42 -16 77 -27 77 -24 0 3 23 -4 50 -15 28 -11 64 -20 80 -20 17 0 30 -4 30 -10 0 -5 9 -10 20 -10 11 0 20 -4 20 -10 0 -5 23 -10 50 -10 38 0 50 -4 50 -15 0 -9 9 -15 25 -15 14 0 25 -4 25 -10 0 -5 14 -10 30 -10 17 0 30 -4 30 -10 0 -5 21 -10 46 -10 38 0 45 3 42 17 -2 10 -19 23 -38 30 -19 6 -159 57 -310 111 l-275 100 -7 108 c-4 60 -4 112 0 115 4 4 180 -55 392 -131 212 -76 386 -134 388 -129 2 4 14 3 28 -3 13 -6 27 -8 30 -5 7 7 43 321 44 379 0 34 -3 37 -44 51 -25 9 -54 13 -65 10 -13 -3 -21 -1 -21 6 0 16 -65 42 -85 35 -9 -4 -21 0 -28 8 -17 21 -91 48 -114 42 -13 -4 -22 0 -26 10 -5 12 -14 15 -32 10 -18 -4 -25 -2 -25 8 0 9 -12 14 -37 14 -20 0 -38 5 -41 12 -2 7 -8 9 -13 6 -18 -11 -59 5 -53 21 5 12 0 14 -25 9 -24 -5 -31 -3 -31 9 0 12 -7 15 -34 10 -23 -4 -49 1 -78 15 -24 11 -64 25 -90 32 -35 9 -48 18 -50 34 -3 24 -4 24 -122 17z"></path><path id="p1B2glqFIY" d="M790 4615 c0 -14 -48 -38 -61 -30 -5 4 -9 1 -9 -5 0 -6 -4 -8 -10 -5 -5 3 -10 -1 -10 -10 0 -12 -6 -15 -20 -10 -13 4 -22 1 -26 -9 -3 -9 -10 -13 -15 -10 -5 3 -9 1 -9 -5 0 -6 -6 -8 -13 -5 -7 2 -25 -6 -39 -19 -13 -13 -29 -22 -35 -20 -5 2 -22 -8 -36 -21 -15 -14 -27 -23 -27 -20 0 2 -13 -2 -30 -11 -17 -9 -30 -21 -30 -27 0 -6 -3 -8 -6 -5 -4 4 -24 -3 -45 -15 l-39 -22 0 -228 0 -228 75 0 c73 0 75 -1 75 -25 0 -21 5 -25 30 -25 l30 0 2 192 3 192 65 38 c36 21 149 86 252 145 102 59 185 110 182 114 -2 4 10 9 27 13 17 3 28 10 24 15 -3 6 13 15 35 21 22 6 38 15 35 20 -3 4 1 11 7 14 7 3 -76 5 -184 4 -146 -1 -198 -4 -198 -13z"></path><path id="p4ypmwTYo" d="M3490 4615 c97 -39 312 -115 325 -115 8 0 15 3 15 8 0 13 -37 31 -56 27 -11 -3 -35 4 -54 15 -111 60 -164 80 -214 79 l-51 0 35 -14z"></path><path id="pNMWqMtl7" d="M4265 4585 c39 -25 186 -111 327 -192 l258 -148 0 -297 c0 -291 0 -298 20 -298 19 0 20 7 20 130 l0 130 90 0 90 0 0 228 0 227 -133 75 c-78 45 -141 74 -154 72 -17 -2 -21 1 -17 13 5 13 2 15 -19 10 -17 -5 -35 0 -54 12 -120 80 -133 83 -326 83 l-172 -1 70 -44z"></path><path id="p5rVKMjnM" d="M3888 4470 c29 -12 29 -9 -13 -340 -41 -326 -41 -320 -16 -320 17 0 20 8 23 48 l3 47 318 3 317 2 0 -44 c0 -26 5 -47 13 -50 10 -5 10 -7 0 -12 -20 -9 -17 -90 3 -98 44 -17 44 -16 44 183 0 139 -3 191 -12 199 -7 5 -74 45 -148 87 -74 43 -193 112 -265 153 -238 137 -264 152 -277 151 -7 0 -3 -4 10 -9z"></path><path id="p2tnXw9pH" d="M3773 3724 c-44 -22 -43 -44 2 -44 32 0 35 2 35 30 0 17 -1 30 -2 30 -2 0 -18 -8 -35 -16z"></path><path id="pdPOV3vJA" d="M2520 3690 c0 -29 2 -30 45 -30 56 0 62 24 10 46 -48 20 -55 18 -55 -16z"></path><path id="p1HIC5ijOy" d="M3400 3660 c0 -29 2 -30 45 -30 70 0 59 36 -17 54 -26 6 -28 4 -28 -24z"></path><path id="p1Av5Zg3qz" d="M2660 3640 c0 -29 2 -30 45 -30 70 0 59 36 -17 54 -26 6 -28 4 -28 -24z"></path><path id="pUq5RvmpI" d="M2760 3614 c0 -17 5 -24 20 -24 11 0 20 -7 20 -15 0 -11 12 -15 46 -15 68 0 56 28 -24 56 l-62 23 0 -25z"></path><path id="pyPZi22X6" d="M3050 3501 c0 -31 0 -31 55 -31 63 0 75 19 23 37 -79 27 -78 27 -78 -6z"></path></g></g><g id="l2gmG6zmifbKqRdWVmBDqf3" fill="rgb(28,161,233)" style="transform: none;"><g style="transform: none;"><path id="p8M6wlOr5" d="M5060 3955 c0 -12 -18 -15 -98 -15 l-99 0 -6 -197 c-4 -108 -7 -292 -7 -410 0 -206 1 -213 20 -213 13 0 20 7 20 20 0 18 7 20 70 20 63 0 70 -2 70 -20 0 -13 7 -20 20 -20 20 0 20 7 20 425 0 234 -2 425 -5 425 -3 0 -5 -7 -5 -15z"></path><path id="prxvrdGDE" d="M330 3553 l0 -393 75 0 75 0 0 -40 c0 -38 2 -40 30 -40 l30 0 0 405 c0 353 -2 405 -15 405 -9 0 -15 9 -15 24 0 24 -2 25 -90 28 l-90 3 0 -392z"></path><path id="p12epBNeyu" d="M817 3758 c-4 -99 -7 -284 -7 -410 0 -221 1 -228 20 -228 13 0 20 7 20 20 0 20 7 20 636 20 672 0 664 1 664 -44 0 -9 8 -16 20 -16 19 0 20 7 20 200 0 110 4 200 8 200 5 0 143 -49 308 -109 164 -59 390 -141 502 -181 199 -71 202 -73 202 -101 0 -22 5 -29 20 -29 11 0 20 7 20 15 0 10 10 15 30 15 17 0 30 -4 30 -9 0 -5 27 -12 60 -16 33 -4 60 -11 60 -16 0 -5 14 -9 30 -9 17 0 30 -4 30 -10 0 -5 14 -10 30 -10 17 0 30 -4 30 -10 0 -5 15 -10 33 -10 42 0 107 18 107 30 0 6 9 10 19 10 36 0 51 12 51 40 0 64 -25 60 396 60 377 0 384 0 384 -20 0 -13 7 -20 20 -20 20 0 20 7 20 305 0 262 -2 306 -15 311 -17 7 -20 31 -4 36 15 5 15 68 -1 78 -10 6 -9 9 1 13 10 4 10 6 2 6 -8 1 -13 15 -13 36 l0 35 -345 0 c-280 0 -347 -3 -351 -13 -3 -8 -7 -31 -9 -53 -9 -96 -18 -126 -41 -136 -13 -6 -24 -14 -24 -17 0 -4 -10 -7 -21 -8 -40 -3 -42 -18 -11 -79 l29 -59 -22 -188 c-37 -304 -26 -271 -95 -297 -33 -12 -68 -20 -77 -17 -10 3 -124 42 -253 87 -129 45 -293 102 -365 127 -71 24 -156 54 -187 65 l-58 20 0 104 0 104 133 -47 c72 -26 249 -88 392 -138 143 -51 261 -91 262 -90 2 1 33 307 33 327 0 14 -67 39 -85 32 -9 -4 -21 0 -28 8 -17 21 -91 48 -114 42 -13 -4 -22 0 -26 10 -5 12 -14 15 -32 10 -19 -5 -25 -2 -25 10 0 12 -6 15 -25 10 -18 -4 -25 -2 -25 9 0 18 -34 28 -72 20 -24 -5 -27 -3 -22 11 5 14 2 16 -20 10 -20 -5 -26 -2 -26 10 0 14 -6 16 -35 10 -30 -5 -34 -4 -29 10 4 11 1 16 -10 16 -9 0 -16 -4 -16 -9 0 -8 -75 12 -112 30 -10 5 -27 9 -39 9 -16 0 -20 5 -16 20 5 18 1 19 -39 13 -35 -4 -45 -2 -50 11 -5 13 -21 16 -78 16 -64 0 -68 -1 -46 -13 14 -7 57 -23 95 -37 39 -13 81 -30 95 -37 14 -7 30 -13 36 -13 5 0 48 -15 95 -33 46 -19 137 -53 202 -76 l117 -43 0 -104 c0 -108 -3 -114 -42 -93 -11 6 -36 11 -54 11 -19 0 -34 4 -34 9 0 10 -11 15 -133 60 -43 15 -84 26 -93 22 -8 -3 -20 1 -27 9 -17 21 -93 49 -112 42 -9 -4 -21 1 -28 9 -16 22 -90 47 -116 40 -14 -4 -21 -1 -21 9 0 17 -61 38 -90 31 -14 -4 -20 0 -20 12 0 13 -6 15 -30 10 -23 -5 -30 -3 -30 9 0 16 -16 21 -57 17 -15 -1 -23 4 -23 13 0 12 -7 14 -30 10 -23 -5 -30 -3 -30 8 0 11 -10 15 -37 14 -37 -1 -38 0 -35 32 3 24 0 32 -12 32 -10 0 -16 9 -16 25 l0 25 -658 0 -659 0 -6 -182z"></path><path id="p74vM9eAg" d="M3395 3929 c4 -6 9 -8 12 -6 2 3 36 -8 75 -24 39 -16 72 -29 74 -29 13 0 1 59 -12 64 -28 11 -156 7 -149 -5z"></path><path id="p1BuTUwAp5" d="M2020 2575 c0 -21 5 -25 30 -25 25 0 30 4 30 25 0 21 -5 25 -30 25 -25 0 -30 -4 -30 -25z"></path><path id="pr0WpfM4d" d="M3330 2575 c0 -21 5 -25 30 -25 25 0 30 4 30 25 0 21 -5 25 -30 25 -25 0 -30 -4 -30 -25z"></path></g></g><g id="lbOMEI03i5gbKy38mdVsIY" fill="rgb(33,139,222)" style="transform: none;"><g style="transform: none;"><path id="pAXH6a8zC" d="M5060 3210 c0 -19 -7 -20 -104 -20 l-105 0 -1 -505 c0 -501 0 -505 20 -505 13 0 20 7 20 20 0 18 7 20 70 20 63 0 70 -2 70 -20 0 -13 7 -20 20 -20 21 0 21 3 20 525 -1 289 -3 525 -6 525 -2 0 -4 -9 -4 -20z"></path><path id="pGi64t6ro" d="M812 3083 c-3 -141 -3 -142 20 -148 13 -3 91 -19 173 -36 420 -85 1053 -215 1299 -266 23 -5 27 -3 25 12 -3 11 -62 54 -144 104 l-140 86 -3 42 c-3 37 1 46 40 85 24 24 55 52 70 63 25 18 29 28 33 87 4 56 2 66 -10 62 -8 -4 -15 -1 -15 5 0 8 -187 11 -669 11 -630 0 -670 1 -673 18 -2 9 -5 -47 -6 -125z"></path><path id="pgEW2JiwC" d="M3109 3190 c-9 -6 11 -21 33 -24 3 -1 10 -4 14 -8 4 -5 15 -8 25 -8 25 0 33 -17 30 -67 -1 -24 3 -43 8 -43 5 0 37 -25 70 -55 60 -56 79 -94 66 -134 -3 -11 -64 -54 -145 -103 -96 -57 -139 -89 -140 -101 0 -13 5 -17 18 -13 9 3 150 32 312 65 271 55 515 105 965 197 94 19 180 37 193 39 21 5 22 10 22 99 0 51 -3 108 -6 125 l-6 31 -413 0 -412 0 -11 -24 c-6 -13 -8 -34 -5 -47 4 -15 3 -20 -5 -15 -7 4 -12 3 -12 -2 0 -6 -9 -8 -20 -5 -12 3 -22 -1 -26 -11 -3 -9 -10 -13 -15 -10 -5 3 -9 1 -9 -5 0 -6 -7 -8 -16 -4 -9 3 -20 0 -25 -8 -8 -12 -11 -11 -20 4 -7 12 -17 15 -35 11 -18 -5 -24 -2 -24 11 0 13 -6 15 -30 10 -24 -5 -30 -3 -30 10 0 13 -6 15 -30 10 -23 -5 -30 -3 -30 9 0 9 -7 16 -15 16 -8 0 -15 -4 -15 -10 0 -5 -7 -10 -15 -10 -8 0 -15 5 -15 10 0 6 -12 10 -27 10 -16 0 -41 7 -57 15 -15 8 -36 15 -46 15 -10 0 -25 6 -32 13 -14 13 -51 17 -69 7z"></path><path id="pMVXspW7k" d="M330 2705 l0 -485 75 0 75 0 0 -55 c0 -54 0 -55 30 -55 l30 0 0 500 c0 438 -2 500 -15 500 -11 0 -15 11 -15 40 l0 40 -90 0 -90 0 0 -485z"></path><path id="pnlPUnGmn" d="M590 2415 c0 -205 1 -215 19 -215 11 0 21 4 23 8 2 5 53 6 113 2 61 -4 104 -8 98 -8 -7 -1 -13 -11 -13 -22 0 -33 47 -25 96 16 l44 35 0 74 c0 58 -3 74 -16 79 -16 6 -16 8 0 24 11 13 16 37 16 83 l0 65 -49 37 -48 37 -142 0 -141 0 0 -215z m228 78 c3 -21 -1 -23 -42 -23 -43 0 -46 2 -46 26 0 23 3 25 43 22 35 -2 43 -7 45 -25z m2 -193 c0 -29 -2 -30 -45 -30 -43 0 -45 1 -45 30 0 29 2 30 45 30 43 0 45 -1 45 -30z"></path><path id="pmq4ZNPTv" d="M4513 2623 c-35 -2 -63 -6 -63 -9 0 -2 23 -49 50 -104 28 -55 50 -108 50 -117 0 -10 -23 -65 -50 -121 -28 -57 -50 -106 -50 -108 0 -2 15 -4 34 -4 29 0 34 4 40 30 8 41 36 41 36 0 0 -25 4 -30 24 -30 17 0 27 9 37 32 13 31 13 31 27 10 18 -27 32 -28 32 -2 0 13 7 20 20 20 11 0 20 -4 20 -9 0 -5 10 -12 23 -14 16 -3 13 -5 -10 -6 -26 -1 -33 -5 -33 -21 0 -18 7 -20 60 -20 33 0 60 4 60 8 0 5 -12 33 -26 63 -42 86 -74 161 -74 171 0 6 15 42 34 81 34 73 66 146 66 153 0 2 -34 4 -75 4 l-75 0 -17 -35 -17 -36 -18 36 c-10 19 -24 34 -31 33 -6 -1 -40 -3 -74 -5z"></path><path id="ppN9IDVra" d="M1008 2408 c-2 -117 -1 -221 1 -230 6 -31 31 -21 31 12 0 25 4 30 25 30 20 0 25 -5 25 -25 0 -21 5 -25 30 -25 l30 0 0 225 0 225 -70 0 -69 0 -3 -212z"></path><path id="pu8A3eq7F" d="M4270 2420 l0 -200 40 0 c36 0 40 -2 40 -25 0 -21 5 -25 30 -25 l30 0 0 225 0 225 -70 0 -70 0 0 -200z"></path><path id="pHKtiobfJ" d="M1190 2390 l0 -220 85 0 c78 0 85 2 85 20 0 17 -8 20 -67 23 -53 2 -46 4 35 5 96 2 102 1 102 -18 0 -31 49 -26 98 11 l42 31 0 68 c0 52 -4 71 -16 78 -14 8 -14 10 0 21 11 10 16 31 16 75 l0 62 -45 32 -46 32 -144 0 -145 0 0 -220z m238 93 c3 -21 0 -23 -47 -23 -48 0 -51 2 -51 26 0 24 2 25 48 22 40 -3 47 -6 50 -25z m0 -180 c3 -21 0 -23 -47 -23 -48 0 -51 2 -51 26 0 24 2 25 48 22 40 -3 47 -6 50 -25z"></path><path id="p2cCTlVOP" d="M1610 2416 l0 -196 40 0 c34 0 40 -3 40 -21 0 -17 4 -20 23 -15 12 3 25 6 30 6 4 0 7 65 7 145 l0 145 75 0 75 0 0 60 0 60 -114 0 c-62 0 -128 3 -145 6 l-31 7 0 -197z"></path><path id="p1A1GvpXl2" d="M3850 2395 l0 -215 30 0 c23 0 30 4 30 20 0 19 7 20 110 20 103 0 110 -1 110 -20 0 -29 15 -25 60 16 40 36 40 36 40 112 0 54 -4 80 -15 92 -14 15 -14 18 0 30 11 9 15 32 15 86 l0 74 -75 0 -75 0 0 -59 c0 -58 -1 -59 -31 -65 -59 -11 -59 -11 -59 59 l0 65 -70 0 -70 0 0 -215z m230 -65 c0 -24 -4 -30 -22 -30 -47 0 -68 12 -68 36 0 22 4 24 45 24 43 0 45 -1 45 -30z"></path><path id="pUXx3agPN" d="M1940 2395 l0 -205 70 0 70 0 0 195 c0 167 -2 195 -15 195 -8 0 -15 5 -15 10 0 6 -25 10 -55 10 l-55 0 0 -205z"></path><path id="pz5H4IYyD" d="M2168 2559 l-48 -41 0 -123 0 -123 49 -41 49 -41 87 0 87 0 49 41 49 41 0 123 0 123 -49 41 -49 41 -88 0 -89 -1 -47 -40z m182 -165 l0 -85 -42 3 -43 3 -3 69 c-4 90 -1 96 48 96 l40 0 0 -86z"></path><path id="pVoyKzkO5" d="M2534 2587 c-2 -7 -3 -98 -2 -202 3 -172 5 -190 21 -193 10 -2 17 3 17 12 0 10 9 16 25 16 16 0 25 -6 25 -15 0 -9 9 -15 25 -15 18 0 32 11 52 43 15 23 38 57 52 75 l24 33 49 -75 c46 -73 68 -93 68 -61 0 12 13 15 60 15 l60 0 0 190 0 190 -70 0 -70 0 0 -70 c0 -38 -3 -70 -7 -70 -5 0 -16 14 -25 30 -15 27 -22 30 -67 30 -42 0 -52 -4 -70 -27 l-20 -28 -1 61 c0 61 0 62 -31 68 -52 10 -109 7 -115 -7z"></path><path id="pUoFpBvrd" d="M3050 2418 c0 -101 3 -193 6 -205 6 -23 9 -23 170 -23 l164 0 0 60 0 60 -100 0 c-82 0 -100 3 -100 15 0 12 13 15 55 15 l55 0 0 60 0 60 -55 0 c-30 0 -55 5 -55 10 0 6 40 10 100 10 l100 0 0 50 c0 38 -4 50 -15 50 -8 0 -15 5 -15 10 0 6 -58 10 -155 10 l-155 0 0 -182z"></path><path id="pxdGSb3iX" d="M3550 2455 l0 -145 -60 0 -60 0 0 -60 0 -60 70 0 c56 0 70 3 70 15 0 12 17 15 90 15 83 0 90 -1 90 -20 0 -16 7 -20 30 -20 l30 0 0 65 0 65 -60 0 -60 0 0 145 0 145 -70 0 -70 0 0 -145z"></path><path id="p1tWSVn5T" d="M4270 2190 c0 -16 7 -20 30 -20 23 0 30 4 30 20 0 16 -7 20 -30 20 -23 0 -30 -4 -30 -20z"></path><path id="pYrTbkDGV" d="M610 2170 c0 -19 7 -20 90 -20 83 0 90 1 90 20 0 19 -7 20 -90 20 -83 0 -90 -1 -90 -20z"></path><path id="pgfBGsBu9" d="M4850 2120 c0 -33 3 -40 20 -40 17 0 20 7 20 40 0 33 -3 40 -20 40 -17 0 -20 -7 -20 -40z"></path><path id="psJXcMbhj" d="M2237 2140 c-44 -8 -51 -14 -44 -35 4 -9 19 -15 42 -15 20 0 35 -5 35 -12 0 -6 9 -2 19 9 11 12 25 23 32 25 7 2 10 11 6 21 -7 18 -27 20 -90 7z"></path><path id="pCzFmG9Mr" d="M3100 2139 c0 -5 -7 -9 -15 -9 -21 0 -19 -13 5 -28 11 -7 20 -19 20 -27 0 -8 7 -15 15 -15 8 0 15 7 15 15 0 9 9 15 25 15 18 0 25 5 25 20 0 19 -5 21 -72 35 -10 2 -18 -1 -18 -6z"></path><path id="p17JSLbB4j" d="M3212 2098 c3 -31 5 -33 48 -36 25 -2 98 -12 163 -22 154 -26 177 -26 177 0 0 23 6 21 -195 55 -82 14 -160 27 -173 30 -21 5 -23 3 -20 -27z"></path><path id="pn87lIs62" d="M2025 2104 c-38 -7 -99 -18 -135 -24 -91 -15 -100 -19 -100 -42 0 -19 4 -20 48 -14 26 4 79 9 117 13 39 3 75 9 81 14 6 5 36 11 67 15 51 6 57 9 57 30 0 21 -5 24 -32 23 -18 -1 -64 -8 -103 -15z"></path><path id="pGvEAsrgq" d="M3620 2033 l0 -28 173 -28 c206 -33 217 -33 217 -7 0 23 6 21 -195 55 -82 14 -160 27 -172 30 -20 5 -23 1 -23 -22z"></path><path id="pvWWrSJfk" d="M1580 2028 c-58 -10 -120 -21 -137 -24 -35 -5 -45 -30 -16 -41 9 -4 83 4 165 18 140 22 148 25 148 46 0 28 -13 28 -160 1z"></path><path id="p5i0fpcBP" d="M4040 1959 c0 -28 2 -29 45 -29 38 0 45 3 45 20 0 19 -5 21 -72 35 -14 2 -18 -4 -18 -26z"></path><path id="pwhbktB8a" d="M1267 1973 c-33 -9 -15 -38 26 -41 34 -3 37 -1 37 22 0 27 -16 31 -63 19z"></path><path id="p17vEsVxh3" d="M1090 1944 c-41 -7 -90 -16 -107 -19 -35 -6 -45 -31 -18 -41 9 -4 67 2 130 12 108 17 115 19 115 41 0 27 -8 27 -120 7z"></path><path id="pbfPwVB6m" d="M4160 1937 c0 -22 6 -25 78 -35 112 -17 132 -16 132 8 0 11 -1 20 -2 20 -2 1 -39 7 -83 15 -113 21 -125 20 -125 -8z"></path><path id="pgtyQoQ7l" d="M4450 1889 c0 -23 4 -29 23 -29 21 0 92 39 72 40 -5 1 -29 5 -52 9 -43 8 -43 8 -43 -20z"></path><path id="pmiGMglYj" d="M856 1903 c-16 -4 -15 -7 10 -24 39 -25 54 -24 54 6 0 26 -16 30 -64 18z"></path></g></g><g id="l3bMn5ygNuk4EungO0qa5vc" fill="rgb(53,121,207)" style="transform: none;"><g style="transform: none;"><path id="pBLfP0NYf" d="M3990 2295 c0 -7 -6 -16 -12 -18 -7 -3 14 -6 47 -6 51 -1 61 2 61 17 0 13 -10 17 -48 19 -35 1 -48 -2 -48 -12z"></path><path id="pmOh9xFT1" d="M2980 2274 c0 -26 0 -26 -75 -22 -41 2 -75 2 -75 0 0 -2 10 -16 22 -32 20 -28 26 -30 90 -30 l68 0 0 55 c0 42 -3 55 -15 55 -9 0 -15 -10 -15 -26z"></path><path id="pSt0chVPl" d="M826 2266 c5 -22 3 -26 -16 -26 -16 0 -20 4 -16 15 4 12 -2 15 -29 13 -19 -1 -35 -7 -35 -14 0 -9 -17 -11 -61 -7 -69 7 -79 0 -79 -58 l0 -36 128 2 c92 2 137 7 165 19 21 9 35 21 32 26 -3 6 3 10 13 10 15 0 19 5 15 20 -4 17 -14 20 -54 20 -36 0 -49 4 -49 14 0 8 -5 18 -10 21 -7 4 -9 -2 -4 -19z"></path><path id="p1Du7UuFJ1" d="M1011 2221 c-1 -61 0 -63 22 -57 12 3 43 6 70 6 35 0 47 4 47 15 0 8 -7 15 -15 15 -9 0 -15 9 -15 25 0 23 -3 25 -49 25 -39 0 -51 4 -54 18 -3 9 -5 -12 -6 -47z"></path><path id="pMJlY8QcX" d="M1611 2233 l-1 -53 55 0 55 0 0 35 0 35 -49 0 c-39 0 -51 4 -54 18 -3 9 -5 -7 -6 -35z"></path><path id="pcUkCFD40" d="M1941 2243 l-1 -43 55 0 c52 0 55 1 55 25 0 23 -3 25 -49 25 -39 0 -51 4 -54 18 -3 9 -5 -2 -6 -25z"></path><path id="p14IF0LQhX" d="M3431 2244 l-1 -42 113 -6 c239 -14 271 -15 255 -10 -12 4 -18 16 -18 35 l0 29 -169 0 c-153 0 -170 2 -174 18 -3 9 -5 -2 -6 -24z"></path><path id="p1Ewf11YNb" d="M3851 2238 c-1 -46 0 -47 32 -52 17 -3 82 -7 142 -10 98 -4 114 -2 135 15 17 12 20 19 10 19 -12 1 -12 3 3 14 9 7 17 16 17 20 0 3 -74 6 -164 6 -148 0 -165 2 -169 18 -3 9 -5 -4 -6 -30z"></path><path id="pf1jkwU97" d="M330 1938 l1 -313 190 -109 c137 -78 193 -105 199 -96 11 17 262 10 268 -7 2 -7 19 -13 37 -13 24 0 34 -5 38 -20 4 -17 14 -20 66 -20 34 0 61 4 61 9 0 5 -26 24 -57 41 -32 18 -178 102 -325 187 l-268 155 0 194 c0 166 -2 194 -15 194 -8 0 -15 5 -15 10 0 6 7 10 15 10 8 0 15 5 15 10 0 6 -7 10 -15 10 -10 0 -15 11 -15 35 l0 35 -90 0 -90 0 0 -312z"></path><path id="p86AhxUMf" d="M1196 2234 c-16 -43 -8 -54 42 -55 26 -1 61 -3 77 -4 63 -5 188 16 213 36 14 10 19 19 13 19 -7 0 -9 5 -6 10 4 7 -53 10 -163 10 -146 0 -171 -2 -176 -16z"></path><path id="p4X6ElG1X" d="M2160 2240 c0 -5 4 -10 8 -10 5 0 17 -8 28 -17 15 -14 39 -18 112 -19 52 -1 88 2 82 6 -8 5 1 12 24 20 67 22 38 30 -109 30 -90 0 -145 -4 -145 -10z"></path><path id="poRccsRyr" d="M2540 2220 l0 -30 68 0 c37 0 62 4 55 8 -15 10 5 38 32 45 11 2 -19 5 -67 6 l-88 1 0 -30z"></path><path id="p5xIUVhqE" d="M3050 2220 c0 -30 1 -31 43 -26 23 3 93 5 155 5 l112 1 0 25 0 25 -155 0 -155 0 0 -30z"></path><path id="pX9tVj44z" d="M4272 2213 l3 -38 53 -3 52 -4 0 41 0 41 -56 0 -55 0 3 -37z"></path><path id="pP9nu2tmf" d="M4495 2230 c-4 -11 -10 -18 -15 -15 -4 3 -12 -8 -18 -23 l-10 -28 82 -2 c44 0 75 1 69 4 -18 8 -16 24 2 24 9 0 18 7 21 15 10 24 20 18 31 -17 l9 -33 70 3 c38 2 71 5 72 7 2 2 -2 19 -9 38 -9 26 -17 33 -31 29 -10 -2 -18 1 -18 7 0 7 -39 11 -124 11 -116 0 -125 -1 -131 -20z"></path><path id="p14lpPfnHH" d="M4851 2003 c-1 -135 -4 -250 -7 -254 -2 -4 -35 -24 -72 -44 -37 -21 -87 -50 -112 -65 -25 -15 -156 -91 -292 -170 -137 -78 -248 -148 -248 -156 0 -9 12 -14 35 -14 28 0 35 4 35 20 0 16 7 20 35 20 24 0 35 5 35 15 0 10 11 15 35 15 24 0 35 5 35 15 0 9 9 15 23 15 12 1 33 7 47 15 16 9 55 14 112 15 l87 0 3 -34 3 -34 190 110 c105 60 209 121 233 134 l42 25 0 278 c0 153 -3 293 -6 310 l-6 31 -103 0 -102 0 -2 -247z"></path><path id="pPBKGPrb6" d="M2258 2142 c-10 -2 -18 -9 -18 -15 0 -8 -3 -8 -11 0 -13 13 -90 -2 -101 -20 -6 -9 -10 -9 -16 0 -8 13 -52 7 -52 -7 0 -5 -9 -6 -20 -3 -13 4 -27 -1 -36 -13 -11 -14 -17 -15 -20 -6 -6 13 -44 17 -44 3 0 -4 -12 -6 -26 -3 -16 3 -30 -1 -35 -9 -6 -10 -9 -10 -9 -2 0 14 -31 6 -42 -11 -6 -8 -8 -8 -8 0 0 15 -102 -3 -112 -19 -5 -8 -8 -8 -8 -1 0 6 -13 9 -30 6 -16 -2 -30 -8 -30 -12 0 -5 -9 -6 -21 -3 -12 4 -25 0 -30 -8 -5 -8 -9 -9 -9 -3 0 7 -11 9 -25 6 -14 -2 -25 -8 -25 -11 0 -4 -13 -6 -30 -3 -19 3 -30 0 -30 -8 0 -7 -8 -9 -19 -5 -22 7 -151 -13 -151 -24 0 -3 -26 -6 -57 -7 -31 0 -58 -5 -60 -11 -2 -5 -17 -7 -33 -5 -17 2 -30 0 -30 -5 0 -5 -14 -8 -30 -5 -18 2 -30 0 -30 -7 0 -6 -11 -8 -30 -4 -16 3 -30 2 -30 -3 0 -5 -23 -9 -51 -10 -29 -1 -54 -7 -59 -14 -4 -7 -9 -8 -11 -2 -2 5 -12 7 -21 3 -17 -6 39 -40 652 -394 162 -94 196 -110 198 -95 3 17 45 18 980 17 537 0 965 -4 950 -9 -36 -11 -58 -33 -58 -59 0 -12 3 -21 6 -21 5 0 427 241 524 300 25 15 129 75 233 135 103 59 189 111 192 115 3 4 -2 10 -10 14 -8 3 -15 1 -15 -4 0 -14 -27 -13 -32 1 -4 13 -138 40 -138 27 0 -4 -7 -8 -15 -8 -8 0 -15 5 -15 11 0 7 -10 9 -25 5 -18 -5 -31 -1 -42 10 -11 11 -18 13 -21 5 -4 -13 -29 -15 -34 -2 -4 13 -88 32 -88 20 0 -13 -28 -11 -32 2 -4 13 -88 30 -88 18 0 -5 -7 -9 -15 -9 -8 0 -15 5 -15 10 0 6 -11 8 -25 4 -16 -4 -25 -2 -25 6 0 8 -10 9 -30 5 -19 -4 -30 -3 -30 5 0 7 -12 9 -35 4 -24 -4 -35 -2 -35 6 0 7 -8 9 -20 5 -13 -4 -26 0 -37 11 -11 11 -18 13 -21 5 -5 -16 -39 -14 -45 3 -6 14 -77 28 -77 14 0 -4 -7 -8 -15 -8 -8 0 -15 5 -15 10 0 6 -11 8 -25 4 -16 -4 -25 -2 -25 6 0 8 -10 9 -31 5 -23 -5 -34 -3 -44 12 -9 10 -14 13 -15 6 0 -16 -40 -17 -40 -2 0 6 -9 8 -20 4 -12 -4 -26 0 -36 9 -14 15 -17 15 -31 0 -15 -15 -18 -14 -32 4 -16 20 -81 36 -81 20 0 -13 -20 -9 -36 7 -9 8 -24 15 -35 15 -27 0 -25 -37 2 -45 20 -7 21 -12 17 -69 -3 -34 -15 -84 -27 -110 -25 -58 -139 -174 -198 -201 -39 -18 -43 -23 -43 -57 0 -34 3 -38 25 -38 29 0 30 -2 11 -38 -61 -117 -262 -125 -339 -12 -23 32 -21 50 3 50 16 0 20 7 20 34 0 31 -5 37 -57 66 -72 41 -153 123 -182 185 -45 96 -48 195 -6 195 8 0 15 9 15 20 0 13 -7 20 -20 20 -11 0 -20 -6 -20 -12 0 -9 -3 -9 -8 -3 -4 6 -15 9 -24 7z"></path><path id="pPxPLlIkB" d="M1200 1326 c0 -32 2 -34 46 -40 62 -8 84 -8 84 2 0 9 -106 72 -121 72 -5 0 -9 -15 -9 -34z"></path><path id="pEVO50Ois" d="M4083 964 c-7 -18 3 -168 13 -201 6 -22 4 -23 -50 -23 -31 0 -56 -4 -56 -9 0 -17 54 -52 98 -64 41 -11 45 -16 76 -82 75 -160 194 -235 301 -191 82 35 98 140 44 293 -45 128 -53 158 -46 176 10 27 31 20 93 -35 48 -41 60 -59 66 -92 13 -68 60 -228 84 -283 25 -57 56 -82 80 -62 21 17 18 51 -21 236 -20 93 -39 204 -42 248 -7 95 -15 108 -57 99 -44 -9 -55 -21 -62 -65 l-6 -38 -25 30 c-14 16 -38 36 -55 45 -16 8 -27 18 -24 22 6 10 -107 2 -121 -10 -22 -17 -25 -84 -8 -153 9 -36 15 -68 14 -69 -2 -2 -38 -6 -80 -9 -90 -8 -83 -17 -95 131 -6 89 -8 94 -35 107 -37 20 -78 19 -86 -1z m337 -340 c14 -35 12 -108 -2 -122 -38 -38 -125 7 -159 83 -30 64 -29 65 66 65 83 0 86 -1 95 -26z"></path></g></g><g id="l45vZELoYAhIZmVZEgVEQAt" fill="rgb(73,111,195)" style="transform: none;"><g style="transform: none;"><path id="p2KNnSWoP" d="M4390 1474 c0 -24 -52 -54 -58 -34 -5 15 -32 -7 -32 -26 0 -16 -17 -19 -22 -3 -2 6 -15 0 -29 -13 -14 -13 -31 -22 -37 -20 -6 2 -23 -8 -36 -21 -14 -14 -27 -23 -29 -20 -5 4 -26 -8 -462 -260 -143 -83 -388 -224 -545 -315 -157 -90 -314 -181 -350 -203 -36 -21 -73 -41 -82 -44 -11 -5 -92 37 -240 123 -123 71 -374 216 -558 322 -184 106 -387 223 -450 260 -147 86 -191 107 -211 103 -11 -3 -16 2 -15 12 1 19 -101 80 -106 63 -3 -7 -12 -9 -23 -4 -14 5 -16 9 -7 18 16 16 -36 39 -60 27 -11 -6 -18 -5 -21 4 -3 9 -54 13 -198 14 -107 1 -187 0 -179 -4 8 -3 17 -9 20 -12 3 -3 16 -12 30 -20 14 -8 158 -92 320 -186 162 -94 419 -243 570 -330 151 -87 385 -222 520 -300 135 -78 324 -188 421 -243 l177 -102 113 66 c63 37 236 136 384 222 149 86 338 195 420 242 83 48 227 131 320 185 94 54 240 139 325 188 85 50 206 119 268 154 62 35 110 69 107 74 -4 5 3 9 15 9 29 0 62 19 55 31 -4 5 5 9 19 9 14 0 28 5 31 10 4 7 -55 10 -169 10 -156 0 -176 2 -185 18 -9 15 -10 15 -11 -4z"></path><path id="pQpDWTDSo" d="M1622 1447 c7 -8 25 -20 40 -28 15 -8 170 -97 345 -198 175 -102 386 -224 468 -271 83 -48 166 -96 185 -108 l35 -20 220 127 c121 70 297 172 390 226 94 54 198 114 233 134 34 19 72 44 83 54 11 11 32 23 47 27 15 4 26 12 24 19 -1 6 8 11 20 11 27 0 63 19 38 20 -13 0 -13 1 0 10 10 6 -363 10 -1063 10 -897 0 -1076 -2 -1065 -13z"></path></g></g></svg>