<svg xmlns="http://www.w3.org/2000/svg" version="1.1" xmlns:xlink="http://www.w3.org/1999/xlink" width="1em" height="1em" viewBox="0 0 510 510" style="enable-background:new 0 0 512 512" xml:space="preserve" fill-rule="evenodd" class=""><g><path fill="#636c77" d="M120.424 276.83a4.997 4.997 0 0 0-3.535 1.465 4.997 4.997 0 0 0-1.465 3.535v67.379h38.826V281.83a4.997 4.997 0 0 0-1.465-3.535 4.997 4.997 0 0 0-3.535-1.465h-28.826z" opacity="1" data-original="#636c77"></path><path fill="#a9b0bb" d="M226.943 387.306c0-8.338-6.966-15.096-15.56-15.096H58.291c-8.593 0-15.56 6.758-15.56 15.096v85.698c0 1.411.578 2.764 1.606 3.762a5.57 5.57 0 0 0 3.878 1.558h173.244a5.57 5.57 0 0 0 3.878-1.558 5.243 5.243 0 0 0 1.606-3.762v-85.698z" opacity="1" data-original="#a9b0bb"></path><path fill="#a9b0bb" d="M186.977 314.976c0-10.08-8.478-18.252-18.937-18.252h-66.406c-10.459 0-18.937 8.172-18.937 18.252v156.96h104.28z" opacity="1" data-original="#a9b0bb"></path><path fill="#636c77" d="M159.33 338.299c0-2.41-.648-4.721-1.802-6.425-1.153-1.705-2.717-2.662-4.349-2.662h-36.684c-1.632 0-3.196.957-4.349 2.662-1.154 1.704-1.802 4.015-1.802 6.425v15.744h48.986z" opacity="1" data-original="#636c77"></path><path fill="#e4e8eb" d="M159.33 378.495c0-1.667-.527-3.266-1.465-4.444-.937-1.179-2.209-1.841-3.535-1.841h-38.986c-1.326 0-2.598.662-3.535 1.841-.938 1.178-1.465 2.777-1.465 4.444v96.385h48.986v-96.385z" opacity="1" data-original="#e4e8eb"></path><path fill="#f4f6f8" d="M359.834 281.422c39.709 0 71.902 32.193 71.902 71.902s-32.193 71.894-71.902 71.894-71.903-32.185-71.903-71.894 32.194-71.902 71.903-71.902z" opacity="1" data-original="#f4f6f8"></path><g fill="#c6ea94"><path d="M359.286 347.448c-8.898-2.489-16.614-8.676-20.637-17.64-3.255-7.253-3.546-15.105-1.389-22.236a4.974 4.974 0 0 1 6.873-3.085c6.761 3.129 12.435 8.564 15.69 15.817 4.023 8.964 3.518 18.841-.537 27.144zM360.235 365.377c2.058-8.889 7.926-16.811 16.8-21.247 7.165-3.581 15.089-4.288 22.415-2.558a4.98 4.98 0 0 1 3.453 6.796c-2.837 6.741-8.02 12.539-15.136 16.096-8.874 4.435-18.908 4.463-27.532.913zM359.433 374.947c-2.058-8.889-7.926-16.811-16.8-21.247-7.166-3.582-15.089-4.289-22.415-2.558a4.976 4.976 0 0 0-3.453 6.796c2.837 6.741 8.02 12.539 15.136 16.096 8.873 4.435 18.908 4.463 27.532.913z" fill="#c6ea94" opacity="1" data-original="#c6ea94"></path></g><path fill="#fdcd56" d="M359.834 91.653c39.709 0 71.902 32.193 71.902 71.902s-32.193 71.894-71.902 71.894-71.903-32.185-71.903-71.894 32.194-71.902 71.903-71.902z" opacity="1" data-original="#fdcd56"></path><path fill="#b9835e" d="M177.208 111.042c0 10.714 8.681 19.395 19.395 19.395 10.708 0 19.39-8.681 19.39-19.395 0-10.708-8.682-19.389-19.39-19.389-10.714 0-19.395 8.681-19.395 19.389z" opacity="1" data-original="#b9835e"></path><path fill="#4fc0e8" d="M238.557 183.57c0 23.172-83.914 23.172-83.914 0 0-23.171 18.789-41.96 41.96-41.96 23.172 0 41.954 18.789 41.954 41.96z" opacity="1" data-original="#4fc0e8"></path><path fill="#b9835e" d="M93.294 111.042c0 10.714 8.681 19.395 19.395 19.395 10.708 0 19.389-8.681 19.389-19.395 0-10.708-8.681-19.389-19.389-19.389-10.714 0-19.395 8.681-19.395 19.389z" opacity="1" data-original="#b9835e"></path><path fill="#4fc0e8" d="M154.643 183.57c0 23.172-83.914 23.172-83.914 0 0-23.171 18.789-41.96 41.96-41.96 23.172 0 41.954 18.789 41.954 41.96z" opacity="1" data-original="#4fc0e8"></path><path fill="#d5a889" d="M135.251 147.507c0 10.715 8.681 19.396 19.395 19.396 10.708 0 19.389-8.681 19.389-19.396 0-10.708-8.681-19.389-19.389-19.389-10.714 0-19.395 8.681-19.395 19.389z" opacity="1" data-original="#d5a889"></path><path fill="#66d4f1" d="M196.6 220.036c0 23.171-83.914 23.171-83.914 0 0-23.172 18.789-41.961 41.96-41.961 23.172 0 41.954 18.789 41.954 41.961z" opacity="1" data-original="#66d4f1"></path><path d="M248 494.92V262H15c-3.863 0-7-3.137-7-7 0-25.73 3.944-50.545 11.258-73.876C50.693 80.842 144.407 8 255 8c25.73 0 50.545 3.944 73.876 11.258 76.951 24.121 137.745 84.915 161.866 161.866C498.056 204.455 502 229.27 502 255c0 110.593-72.842 204.307-173.124 235.742C305.545 498.056 280.73 502 255 502c-3.863 0-7-3.137-7-7v-.08zm14-472.817V248h225.897c-.644-21.775-4.28-42.804-10.514-62.689C454.628 112.72 397.28 55.372 324.689 32.617c-19.885-6.234-40.914-9.87-62.689-10.514zm97.834 62.55c43.575 0 78.902 35.327 78.902 78.902s-35.327 78.894-78.902 78.894-78.903-35.319-78.903-78.894 35.328-78.902 78.903-78.902zm0 14c-35.843 0-64.903 29.059-64.903 64.902s29.06 64.894 64.903 64.894 64.902-29.051 64.902-64.894-29.059-64.902-64.902-64.902zm-7.125 27.578-.085-3.523a7.002 7.002 0 0 1 6.828-7.167 7.003 7.003 0 0 1 7.168 6.828l.097 4.02c2.275.651 4.628 1.567 6.763 2.695 3.454 1.826 6.303 4.225 7.888 6.636a7.002 7.002 0 0 1-2.004 9.694 7.002 7.002 0 0 1-9.694-2.003c-.516-.785-1.607-1.355-2.731-1.949-2.363-1.248-5.176-2.192-7.105-2.192-5.698 0-10.681 3.698-10.681 8.787s4.983 8.787 10.681 8.787c13.84 0 24.68 10.427 24.68 22.787 0 10.124-7.288 18.965-17.542 21.821l.072 2.941a7.002 7.002 0 0 1-6.827 7.168 7.003 7.003 0 0 1-7.169-6.826l-.075-3.101c-4.871-1.242-8.517-3.936-12.732-7.906a7.003 7.003 0 0 1-.296-9.895 7.003 7.003 0 0 1 9.895-.296c3.099 2.919 5.433 4.881 9.994 4.881 5.698 0 10.68-3.703 10.68-8.787 0-5.089-4.982-8.787-10.68-8.787-13.84 0-24.681-10.427-24.681-22.787 0-10.139 7.295-18.977 17.556-21.826zM487.897 262H262v225.897c21.775-.644 42.804-4.28 62.689-10.514C417.164 448.395 484.903 363.264 487.897 262zm-128.063 12.422c43.575 0 78.902 35.327 78.902 78.902s-35.327 78.894-78.902 78.894-78.903-35.319-78.903-78.894 35.328-78.902 78.903-78.902zm0 14c-35.843 0-64.903 29.059-64.903 64.902s29.06 64.894 64.903 64.894 64.902-29.051 64.902-64.894-29.059-64.902-64.902-64.902zm-7 95.589c-7.981 1.245-16.381.124-24.063-3.716-10.826-5.411-17.978-15.083-20.489-25.928a6.998 6.998 0 0 1 4.155-8.052c10.083-4.151 21.758-4.243 32.222.593a38.464 38.464 0 0 1-11.848-14.923c-4.903-10.925-4.309-22.963.633-33.082a7.001 7.001 0 0 1 8.176-3.669c10.844 3.033 20.234 10.59 25.137 21.515 3.474 7.739 4.188 16.037 2.553 23.815a39.638 39.638 0 0 1 4.595-2.695c10.741-5.369 22.887-5.421 33.326-1.124a6.999 6.999 0 0 1 4.155 8.052c-2.511 10.845-9.663 20.517-20.489 25.928-7.682 3.84-16.082 4.961-24.063 3.716v30.224c0 3.863-3.137 7-7 7s-7-3.137-7-7zm-.839-32.699c.283.215.563.434.839.656v-.281a42.006 42.006 0 0 1-.839-.375zm-1.774 18.933c-2.342-4.281-5.983-7.917-10.717-10.283-4.849-2.424-10.137-3.171-15.19-2.473 2.341 4.281 5.982 7.917 10.717 10.284 4.848 2.423 10.136 3.17 15.19 2.472zm5.434-32.797c.979-4.899.512-10.105-1.67-14.967-2.182-4.861-5.761-8.67-10.072-11.195-.978 4.899-.512 10.105 1.67 14.966 2.182 4.862 5.761 8.671 10.072 11.196zm13.792 23.227c5.054.699 10.342-.049 15.19-2.472 4.735-2.367 8.375-6.003 10.718-10.283-5.054-.699-10.342.048-15.191 2.472-4.734 2.366-8.375 6.002-10.717 10.283zM22.103 248H248V22.103C146.736 25.097 61.605 92.836 32.617 185.311c-6.234 19.885-9.87 40.914-10.514 62.689zm85.124-40.198c-13.882-.685-27.098-3.85-34.655-9.084-5.795-4.014-8.843-9.226-8.843-15.148 0-23.699 16.845-43.47 39.214-47.989-9.755-3.877-16.649-13.401-16.649-24.539 0-14.573 11.813-26.389 26.395-26.389 14.574 0 26.389 11.815 26.389 26.389 0 11.138-6.894 20.662-16.646 24.538a48.501 48.501 0 0 1 7.663 2.217c3.868-9.769 13.4-16.679 24.551-16.679 11.146 0 20.678 6.911 24.546 16.68a48.662 48.662 0 0 1 7.665-2.217c-9.755-3.876-16.649-13.4-16.649-24.539 0-14.573 11.813-26.389 26.395-26.389 14.574 0 26.39 11.815 26.39 26.389 0 11.138-6.895 20.661-16.646 24.538 22.369 4.519 39.21 24.29 39.21 47.99 0 5.922-3.048 11.133-8.843 15.147-7.557 5.235-20.772 8.4-34.655 9.085a49.051 49.051 0 0 1 1.541 12.234c0 7.008-4.387 13.133-12.508 17.338-8.844 4.579-22.63 7.04-36.449 7.04s-27.604-2.461-36.448-7.04c-8.122-4.205-12.509-10.33-12.509-17.338 0-4.224.535-8.323 1.541-12.234zm47.028-22.725c-19.125.21-34.569 15.783-34.569 34.959 0 2.283 2.299 3.536 4.946 4.906 7.267 3.763 18.655 5.472 30.011 5.472s22.744-1.709 30.012-5.472c2.646-1.37 4.945-2.623 4.945-4.906 0-19.177-15.44-34.752-34.568-34.959l-.169-.001-.217-.001-.222.001-.169.001zm-12.004-37.57c0 6.848 5.548 12.396 12.395 12.396 6.843 0 12.389-5.549 12.389-12.396 0-6.842-5.547-12.389-12.389-12.389-6.847 0-12.395 5.546-12.395 12.389zm-41.957-36.465c0 6.847 5.548 12.395 12.395 12.395 6.843 0 12.389-5.548 12.389-12.395 0-6.842-5.547-12.389-12.389-12.389-6.847 0-12.395 5.546-12.395 12.389zm83.914 0c0 6.847 5.548 12.395 12.395 12.395 6.843 0 12.39-5.548 12.39-12.395 0-6.842-5.548-12.389-12.39-12.389-6.846 0-12.395 5.546-12.395 12.389zm-55.487 41.453a34.79 34.79 0 0 0-16.032-3.885c-19.306 0-34.96 15.655-34.96 34.96 0 1.049.688 1.856 1.54 2.634 1.148 1.048 2.645 1.941 4.37 2.746 7.441 3.476 18.534 5.068 29.569 5 7.012-11.115 18.373-19.213 31.692-21.904-8.262-3.283-14.471-10.617-16.179-19.551zm51.844.003c-1.709 8.933-7.917 16.264-16.175 19.547 13.32 2.691 24.679 10.789 31.69 21.905 11.035.068 22.127-1.524 29.568-5 1.725-.805 3.221-1.698 4.369-2.746.852-.779 1.54-1.585 1.54-2.634 0-19.305-15.648-34.96-34.954-34.96a34.801 34.801 0 0 0-16.038 3.888zm45.272 333.413h-182a7 7 0 0 1-7-7v-91.682c0-12.243 9.996-22.206 22.373-22.206h15.848v-54.491c0-11.373 9.283-20.631 20.781-20.631h10.962v-11.343a7 7 0 0 1 7-7h21.902v-.847c0-3.864 3.136-7 7-7 3.863 0 7 3.136 7 7v.847h6.17a7 7 0 0 1 7 7v11.343h10.962c11.498 0 20.781 9.258 20.781 20.631v54.491h15.848c12.377 0 22.373 9.963 22.373 22.206v91.682a7 7 0 0 1-7 7zm-76.964-200.353h-28.072v4.343h28.072zm-7.036 186.353h12.621v-92.888h-39.242v92.888h12.621v-80.542c0-3.864 3.137-7 7-7s7 3.136 7 7zm52.779 0h24.221v-84.682c0-4.554-3.77-8.206-8.373-8.206h-15.848zM75.058 379.023H59.21c-4.603 0-8.373 3.652-8.373 8.206v84.682h24.221zm98.777-75.122H95.839c-3.724 0-6.781 2.947-6.781 6.631v161.379h12.158v-99.888c0-3.865 3.135-7 7-7h53.242c3.865 0 7 3.135 7 7v99.888h12.158V310.532c0-3.684-3.057-6.631-6.781-6.631zm-5.377 35.06v11.63a7 7 0 0 1-7 7h-53.242a7 7 0 0 1-7-7v-11.63c0-3.634 1.439-7.117 3.998-9.687a13.672 13.672 0 0 1 9.687-4.026h39.872a13.67 13.67 0 0 1 9.687 4.026 13.729 13.729 0 0 1 3.998 9.687zm-53.242.287v4.343h39.242v-4.343z" fill="#000000" opacity="1" data-original="#000000" class=""></path></g></svg>