<svg xmlns="http://www.w3.org/2000/svg" version="1.1" xmlns:xlink="http://www.w3.org/1999/xlink" width="1em" height="1em" x="0" y="0" viewBox="0 0 500 500" style="enable-background:new 0 0 512 512" xml:space="preserve" class=""><g><g fill-rule="evenodd" clip-rule="evenodd"><path fill="#ffbf31" d="m250.071 410.268 209.502.268v-98.619l-103.236-14.471-106.266 14.203-15.275 47.516z" opacity="1" data-original="#ffbf31"></path><path fill="#19cfba" d="M40.445 410.536h209.564v-98.619L141.95 296.106 40.445 311.917z" opacity="1" data-original="#19cfba" class=""></path><path fill="#cccccc" d="M375.747 89.49h83.826v222.427h-83.826L363.42 200.703z" opacity="1" data-original="#cccccc"></path><path fill="#60b7fe" d="M208.096 89.49h83.826l13.667 111.213-13.667 111.214h-83.826l-16.079-111.214z" opacity="1" data-original="#60b7fe"></path><path fill="#cccccc" d="M40.445 89.49h83.826l20.903 111.213-20.903 111.214H40.445z" opacity="1" data-original="#cccccc"></path><path fill="#ffbf31" d="M417.66 169.35c6.409 0 11.605 5.196 11.605 11.605 0 6.41-5.196 11.606-11.605 11.606s-11.605-5.196-11.605-11.606 5.196-11.605 11.605-11.605z" opacity="1" data-original="#ffbf31"></path><path fill="#60b7fe" d="M417.66 192.56c11.17 0 20.309 9.139 20.309 20.309v19.187h-40.618v-19.187c0-11.17 9.139-20.309 20.309-20.309z" opacity="1" data-original="#60b7fe"></path><path fill="#ffbf31" d="M291.922 89.49h83.825v111.213l-44.336 13.4-39.489-13.4z" opacity="1" data-original="#ffbf31"></path><path fill="#19cfba" d="M291.922 200.703h83.826v111.214h-83.826z" opacity="1" data-original="#19cfba" class=""></path><path fill="#ffbf31" d="M333.835 240.396c8.789 0 15.914 7.125 15.914 15.914s-7.125 15.914-15.914 15.914-15.914-7.125-15.914-15.914 7.125-15.914 15.914-15.914z" opacity="1" data-original="#ffbf31"></path><path fill="#fa6e85" d="M341.71 127.847c5.783 0 10.472 4.688 10.472 10.472 0 9.505-9.978 20.332-18.347 24.026-8.37-3.694-18.347-14.521-18.347-24.026 0-9.671 12.025-14.113 18.347-6.901a10.446 10.446 0 0 1 7.875-3.571z" opacity="1" data-original="#fa6e85"></path><path fill="#cccccc" d="m250.009 223.968 21.651-30.316-9.19-16.213h-24.922l-9.19 16.213z" opacity="1" data-original="#cccccc"></path><path fill="#19cfba" d="M124.271 89.49h83.825v111.213l-43.907 14.472-39.918-14.472z" opacity="1" data-original="#19cfba" class=""></path><path fill="#ffbf31" d="M124.271 200.703h83.826v111.214h-83.826z" opacity="1" data-original="#ffbf31"></path><path fill="#19cfba" d="M148.764 238.891h34.838v34.838h-34.838z" opacity="1" data-original="#19cfba" class=""></path><path fill="#1e2f3f" d="M376.226 370.891c-.074 7.842-6.717 13.448-14.873 15.26v3.704a6.56 6.56 0 0 1-6.579 6.579c-3.594 0-6.524-2.93-6.524-6.579v-3.538a41.85 41.85 0 0 1-11.058-3.262c-3.262-1.493-4.755-5.418-3.207-8.68 1.493-3.318 5.363-4.755 8.625-3.262 5.253 2.378 12.827 3.76 18.024 1.603 1.88-.829 2.433-1.714 2.488-1.935-.055-.111-.608-1.05-2.543-1.935-4.179-1.801-10.315-.438-16.366-3.207-15.948-7.299-13.414-25.33 4.036-29.359v-3.759c0-3.594 2.93-6.524 6.524-6.524 3.649 0 6.579 2.93 6.579 6.524v3.538c4.091.608 7.962 1.824 11.113 3.317 3.262 1.603 4.644 5.474 3.096 8.736s-5.419 4.7-8.736 3.096c-4.865-2.322-12.661-3.649-17.472-1.548-.055 0-.11 0-.11.055-1.769.719-2.378 1.438-2.543 1.714.111.276.774 1.272 2.654 2.156 1.991.829 3.76.94 5.971 1.05 2.82.221 6.303.442 10.339 2.101.055.055.111.055.166.111 6.526 2.931 10.396 8.183 10.396 14.044zm-201.475-32.013c0 3.649-2.93 6.579-6.524 6.579h-46.001c-3.594 0-6.524-2.93-6.524-6.579 0-3.594 2.93-6.524 6.524-6.524h46.001c3.593 0 6.524 2.93 6.524 6.524zm0 44.619c0 3.649-2.93 6.58-6.524 6.58h-46.001c-3.594 0-6.524-2.93-6.524-6.58 0-3.594 2.93-6.524 6.524-6.524h46.001c3.593 0 6.524 2.93 6.524 6.524zm0-22.282c0 3.594-2.93 6.524-6.524 6.524h-46.001c-3.594 0-6.524-2.93-6.524-6.524 0-3.649 2.93-6.58 6.524-6.58h46.001c3.593.001 6.524 2.931 6.524 6.58zm-68.228-145.633c-10.977 17.865-37.093 18.123-48.323 0-1.935-3.096-.94-7.133 2.101-9.012 3.096-1.88 7.132-.94 9.012 2.156 5.835 9.495 19.982 9.815 26.041 0 1.935-3.096 5.971-4.036 9.012-2.156 3.097 1.88 4.037 5.916 2.157 9.012zM58.2 185.781c6.082-9.841 15.481-14.873 25.101-13.435 9.676 1.438 18.301 6.358 23 13.104 2.101 2.986 1.382 7.077-1.603 9.123-2.931 2.101-7.022 1.382-9.123-1.603-2.654-3.815-8.072-6.745-14.154-7.63-6.413-.94-10.892 5.363-12.108 7.353-1.895 3.101-5.901 3.996-9.012 2.101-3.041-1.88-4.036-5.917-2.101-9.013zm86.252-36.989c-2.488-2.599-2.433-6.745.166-9.233s6.745-2.433 9.289.166l7.962 8.349 16.255-20.015c2.267-2.764 6.414-3.207 9.233-.94 2.764 2.267 3.207 6.414.94 9.233l-20.9 25.71c-2.539 3.062-7.095 3.253-9.841.442zm32.621 118.376h-21.784v-21.729h21.784zm6.524-34.833h-34.832c-3.594 0-6.524 2.93-6.524 6.524v34.832c0 3.649 2.93 6.579 6.524 6.579h34.832a6.56 6.56 0 0 0 6.579-6.579v-34.832c.001-3.594-2.93-6.524-6.579-6.524zM250 212.652l-13.877-19.407 5.253-9.289h17.306l5.197 9.289zm27.368-22.226-9.178-16.255a6.596 6.596 0 0 0-5.695-3.317H237.56a6.532 6.532 0 0 0-5.695 3.317l-9.178 16.255a6.472 6.472 0 0 0 .332 7.022l21.674 30.299c2.65 3.72 8.03 3.63 10.671 0l21.618-30.299c1.492-2.102 1.658-4.811.386-7.022zm47.218-55.788c4.512-1.502 4.056 3.317 9.233 3.317 4.664 0 4.461-3.594 7.906-3.594a3.941 3.941 0 0 1 3.926 3.925c0 5.474-5.971 12.882-11.832 16.587-7.398-4.72-16.305-17.202-9.233-20.235zm6.579 33.672c1.69.739 3.669.746 5.308 0 10.726-4.755 22.282-17.914 22.282-30.022 0-12.589-13.3-21.019-24.88-15.094-10.818-5.693-24.936 1.88-24.936 15.094 0 12.108 11.5 25.267 22.226 30.022zm2.654 97.365c-5.142 0-9.344-4.202-9.344-9.399 0-5.142 4.202-9.344 9.344-9.344 5.197 0 9.399 4.202 9.399 9.344a9.391 9.391 0 0 1-9.399 9.399zm0-31.847c-12.385 0-22.447 10.063-22.447 22.448s10.063 22.503 22.447 22.503c12.385 0 22.503-10.118 22.503-22.503s-10.118-22.448-22.503-22.448zm78.788-52.912c0-2.764 2.267-5.032 5.031-5.032 2.82 0 5.087 2.267 5.087 5.032a5.073 5.073 0 0 1-5.087 5.086c-2.764 0-5.031-2.267-5.031-5.086zm18.798 44.563h-27.479v-12.606c0-7.63 6.137-13.767 13.712-13.767 7.63 0 13.767 6.137 13.767 13.767zm-34.058 13.104h40.638c3.594 0 6.524-2.93 6.524-6.524v-19.186c0-9.178-4.589-17.25-11.611-22.116 7.842-12.118-.953-27.977-15.26-27.977-14.314 0-23.023 15.894-15.205 27.977-7.022 4.865-11.611 12.938-11.611 22.116v19.186c.001 3.594 2.931 6.524 6.525 6.524zM256.579 403.954h196.444v-85.533H256.579zm-209.603 0h196.5v-85.533h-196.5zm0-307.908v209.327h70.771V96.046zm154.59 0h-70.771v98.084h70.771zm96.923 209.327h70.715v-98.139h-70.715zm-167.693-98.139v98.139h70.771v-98.139zm83.874 98.139h70.715V96.046H214.67zM369.204 96.046h-70.715v98.084h70.715zm83.82 209.327V96.046h-70.715v209.327zm13.103-215.906c0-3.594-2.93-6.524-6.579-6.524H40.452c-3.594 0-6.579 2.93-6.579 6.524v321.067c0 3.48 2.878 6.524 6.579 6.524h419.096c3.702 0 6.579-3.045 6.579-6.524z" opacity="1" data-original="#1e2f3f" class=""></path></g></g></svg>