<svg xmlns="http://www.w3.org/2000/svg" version="1.1" xmlns:xlink="http://www.w3.org/1999/xlink" width="1em" height="1em" x="0" y="0" viewBox="0 0 512 512" style="enable-background:new 0 0 512 512" xml:space="preserve" class=""><g><g fill-rule="evenodd" clip-rule="evenodd"><path fill="#cad0d7" d="M462.658 122.442a8.673 8.673 0 1 1-17.346 0V83.536a8.673 8.673 0 1 1 17.346 0z" opacity="1" data-original="#cad0d7"></path><path fill="#fdcd56" d="M167.4 56.827h-65.115a3.725 3.725 0 0 0-3.717 3.717v65.115H167.4z" opacity="1" data-original="#fdcd56"></path><path fill="#c6ea94" d="M98.568 113.269H167.4v56.442H98.568z" opacity="1" data-original="#c6ea94"></path><path fill="#f76c82" d="m211.452 113.269-56.442-12.39v68.832h56.442l8.923-33.684z" opacity="1" data-original="#f76c82" class=""></path><path fill="#66d4f1" d="M211.452 56.827H155.01v56.442h56.442l10.795-14.202z" opacity="1" data-original="#66d4f1" class=""></path><path fill="#e4e8eb" d="M467.094 122.442h-26.216c-3.412 0-6.194 2.782-6.194 6.195v63.165h38.604v-63.165c0-3.413-2.782-6.195-6.194-6.195z" opacity="1" data-original="#e4e8eb"></path><path fill="#cad0d7" d="M397.007 178.665h68.706l9.437 58.239-9.437 53.116h-68.706z" opacity="1" data-original="#cad0d7"></path><path fill="#a9b0bb" d="m465.713 178.665 22.485 10.114c1.365.614 2.192 1.893 2.192 3.39v105.768h-24.677z" opacity="1" data-original="#a9b0bb"></path><path fill="#eb5463" d="m282.13 140.266-70.678-31.611v61.056l70.678 31.612z" opacity="1" data-original="#eb5463" class=""></path><path fill="#4fc0e8" d="m409.397 187.58-78.372-28.9v81.222l78.372 28.9zM281.93 87.708l-70.478-30.881v56.442l70.478 30.88z" opacity="1" data-original="#4fc0e8" class=""></path><path fill="#f5b945" d="m349.581 117.328-72.147-31.601v56.443l72.147 31.6z" opacity="1" data-original="#f5b945" class=""></path><path fill="#eb5463" d="m407.172 142.553-63.756-27.925v56.442l65.982 28.9v-54.012c-.001-1.509-.844-2.799-2.226-3.405z" opacity="1" data-original="#eb5463" class=""></path><path fill="#afe269" d="m343.416 171.07-65.982-28.901v56.443l65.982 28.9z" opacity="1" data-original="#afe269" class=""></path><path fill="#636c77" d="M277.679 178.379c-132.023-57.17-226.956-40.491-256.916-32.611-2.188.575-3.784 2.148-4.391 4.328-.608 2.181-.054 4.351 1.522 5.976 64.152 66.152 85.751 122.857 112.266 183.084 1.012 2.299 3.194 3.29 5.672 3.699l165.743 27.344 171.91-27.47c2.501-.4 4.696-1.428 5.693-3.757l16.324-38.138a6.204 6.204 0 0 0-3.213-8.113l-195.352-85.416c-1.279-.56-2.218-1.406-2.907-2.621l-13.422-23.673c-.693-1.222-1.639-2.074-2.929-2.632z" opacity="1" data-original="#636c77" class=""></path><g fill="#c7e0ec"><circle cx="151.259" cy="193.708" r="16.05" fill="#c7e0ec" opacity="1" data-original="#c7e0ec" class=""></circle><path d="M238.202 200.072c7.263 0 13.15 5.887 13.15 13.15s-5.888 13.15-13.15 13.15c-7.263 0-13.15-5.888-13.15-13.15-.001-7.262 5.887-13.15 13.15-13.15z" fill="#c7e0ec" opacity="1" data-original="#c7e0ec" class=""></path></g><path fill="#38a8d2" d="M495.999 455.173V345.526a2 2 0 0 0-1.932-1.999c-19.842-.673-36.689-11.662-45.095-26.978-.757-1.38-2.748-1.38-3.505 0-8.677 15.811-26.35 27.011-47.027 27.011-20.279 0-37.669-10.774-45.028-26.104-.723-1.507-2.883-1.507-3.606 0-7.358 15.33-24.749 26.104-45.027 26.104-20.677 0-38.35-11.2-47.027-27.011-.757-1.38-2.748-1.38-3.505 0-8.677 15.811-26.35 27.011-47.027 27.011-20.279 0-37.669-10.774-45.028-26.104-.723-1.507-2.883-1.507-3.606 0-7.359 15.33-24.749 26.104-45.028 26.104-20.677 0-38.349-11.2-47.027-27.01-.757-1.38-2.748-1.38-3.506 0-8.406 15.316-25.253 26.306-45.095 26.978a2 2 0 0 0-1.932 1.998v109.648l480.001-.001z" opacity="1" data-original="#38a8d2"></path><path fill="#4fc0e8" d="M113.558 399.366c-20.677 0-38.35-11.2-47.027-27.011a1.955 1.955 0 0 0-1.753-1.038c-.749 0-1.392.381-1.753 1.038-8.677 15.811-26.35 27.011-47.027 27.011v55.807c22.185 0 40.911-12.893 48.78-30.541 7.868 17.648 26.595 30.541 48.779 30.541 22.185 0 40.911-12.893 46.831-30.541 5.919 17.648 24.646 30.541 46.83 30.541 22.185 0 40.911-12.893 48.78-30.541 7.868 17.648 26.595 30.541 48.78 30.541s40.911-12.893 46.83-30.541c5.919 17.648 24.646 30.541 46.831 30.541s40.911-12.893 48.78-30.541c7.868 17.648 26.595 30.541 48.78 30.541v-55.807c-20.677 0-38.35-11.2-47.027-27.011-.361-.657-1.003-1.038-1.753-1.038s-1.392.381-1.753 1.038c-8.677 15.811-26.35 27.011-47.027 27.011-20.279 0-37.669-10.774-45.028-26.104-.341-.71-1.015-1.134-1.803-1.134s-1.462.424-1.803 1.134c-7.358 15.33-24.749 26.104-45.027 26.104-20.677 0-38.35-11.2-47.027-27.011-.361-.657-1.003-1.038-1.753-1.038s-1.392.381-1.753 1.038c-8.677 15.811-26.35 27.011-47.027 27.011-20.279 0-37.669-10.774-45.028-26.104-.341-.71-1.015-1.134-1.803-1.134s-1.462.424-1.803 1.134c-7.357 15.331-24.746 26.104-45.026 26.104z" opacity="1" data-original="#4fc0e8" class=""></path><path fill="#66d4f1" d="M113.558 455.173c-20.677 0-38.35-11.2-47.027-27.011a1.955 1.955 0 0 0-1.753-1.038c-.749 0-1.392.381-1.753 1.038-8.677 15.811-26.35 27.011-47.027 27.011h480c-20.677 0-38.35-11.2-47.027-27.011-.361-.657-1.003-1.038-1.753-1.038s-1.392.381-1.753 1.038c-8.677 15.811-26.35 27.011-47.027 27.011-20.279 0-37.669-10.774-45.028-26.104-.341-.71-1.015-1.134-1.803-1.134s-1.462.424-1.803 1.134c-7.358 15.33-24.749 26.104-45.027 26.104-20.677 0-38.35-11.2-47.027-27.011-.361-.657-1.003-1.038-1.753-1.038s-1.392.381-1.753 1.038c-8.677 15.811-26.35 27.011-47.027 27.011-20.279 0-37.669-10.774-45.028-26.104-.341-.71-1.015-1.134-1.803-1.134s-1.462.424-1.803 1.134c-7.356 15.33-24.745 26.104-45.025 26.104z" opacity="1" data-original="#66d4f1" class=""></path></g></g></svg>