<svg height="1em" width="1em" viewBox="0 0 435.2 435.2" xml:space="preserve" xmlns="http://www.w3.org/2000/svg"><circle style="fill:#002147;fill-opacity:1;stroke-width:.999997" cx="217.6" cy="217.6" r="217.6"/><path style="fill:#6b7f9e" d="M216.939 32.446c104.168 0 188.625 84.457 188.625 188.625s-84.457 188.625-188.625 188.625S28.314 325.24 28.314 221.071 112.771 32.446 216.939 32.446"/><path style="fill:#8597b1" d="M216.939 32.446c74.662 0 139.289 43.483 169.751 106.438 4.539 17.083 7.048 35.121 7.048 53.637 0 113.844-92.222 206.066-206.066 206.066-16.963 0-33.448-2.03-49.098-5.853-65.105-29.745-110.26-95.448-110.26-171.543 0-104.168 84.457-188.625 188.625-188.625z"/><path style="fill:#e4e7ed" d="M334.725 73.778c35.121 28.073 59.849 68.45 67.972 114.561-.597-.836-1.195-2.03-1.792-3.703-3.703 1.195-3.823 1.314-8.123 2.031l-.239.24c-1.672 2.508.119 1.433-2.986 3.941-3.584 3.106-5.973 7.168-10.035 9.676-.478 4.301.358 5.256-.717 10.393-.478 1.911-2.509 6.93-5.017 6.57-.836-.119-4.062-8.362-4.898-10.632-1.314-3.823-2.867-6.69-3.823-11.11-.597-2.389-.956-6.929-1.434-8.482-2.628.358-2.509 2.031-4.898.24-1.792-1.315-.956-2.032-1.911-3.943-2.031-1.91-4.181-3.823-6.331-5.853-1.672-.478-7.884.358-10.512.12-4.778-.479-5.137-.12-8.004-3.943-5.017.24-4.539 2.15-9.437-2.03-3.225-2.749-2.628-7.049-7.287-4.54-.119 3.942 1.792 4.898 3.464 6.69 1.314 1.434 2.867 2.39 3.464 4.301.119 0 .358 1.792.478 2.031 4.539.24 5.615-1.91 8.123-3.703 2.389 2.27.119 2.628 3.584 4.42 2.748 1.434 2.27.597 4.062 2.867.956 3.106-6.212 11.35-8.601 12.782-1.792 1.195-2.748.478-4.42 1.792-2.389 2.031.358 1.792-3.942 3.345-4.539 1.672-8.959 5.137-13.738 5.376-1.075-2.867-2.031-5.615-3.106-8.482-2.986-9.676-2.867-5.973-5.973-10.99-1.434-2.15-.836-3.584-1.792-5.495-.717-1.434-1.672-2.03-2.628-3.823-1.434-2.748-2.986-7.048-6.212-6.57-.717 2.15 2.986 9.557 3.823 11.35.956 1.791 2.389 2.508 2.748 5.136.597 3.584-.119 3.106 1.792 5.495 4.062 4.898-.239 4.062 6.092 8.84 4.659 3.584 3.464 4.66 5.495 9.437 3.106.836 12.304-3.225 13.857-2.03 1.911 3.344-2.15 8.6-3.225 11.586-3.345 9.676-9.318 9.557-13.857 16.963-2.509 4.062-3.584 4.54-5.973 9.437-2.628 5.495 5.256 20.547.597 26.878-1.075 1.434-4.301 2.27-8.482 6.69-4.42 4.778.119 3.942-1.553 11.946-1.314 1.792-2.986 1.911-4.539 3.225-.597 1.911-.119 3.345-1.195 5.734-1.075 2.748-1.314 1.314-2.867 3.584-1.195 1.792-1.075 2.51-2.389 4.181-1.195 1.553-1.792 1.911-2.867 2.867-5.256 4.778-16.605 5.017-17.56 4.301-2.628-2.27-.836-2.867-1.553-6.092-.597-2.748-2.15-5.137-3.345-7.287l-.119-.239c-.597-1.075-1.195-2.03-1.434-2.986-2.15-6.809-1.434-12.065-5.137-18.994-4.778-8.959 2.628-13.738 2.389-18.755-.119-1.314-.597-2.15-.717-3.225-.956-5.615-1.434-10.632-5.137-15.052-4.062-4.778-3.584-3.106-2.27-10.99 1.672-9.079-2.15-6.69-7.645-6.929-2.628-8.243-7.884-4.18-13.021-1.792-3.225 1.553-4.42-.478-8.123.12-8.243 1.074-1.792 4.658-12.782-4.063-4.539-3.584-1.553-1.792-4.181-6.33-.956-1.673-3.703-3.824-4.898-5.496-4.181-5.256.836-10.512.119-16.485-1.314-11.11-3.106-1.434 3.106-14.932 3.225-7.168 8.243-7.168 9.437-10.393 1.075-2.867.358-4.898 2.389-7.526 1.792-2.15 4.42-1.672 5.376-5.017 1.434-4.062-1.314-4.659-4.301-4.778-1.314-4.3-1.314-3.225-.358-7.168.597-2.27.119-3.345.597-5.495 1.195-5.615 10.632 0 13.379-2.27 1.314-2.389 1.434-4.659 0-6.929-1.553-2.27-3.464-2.03-4.539-4.18 2.27-1.554.597-.24 2.628-.598 2.389-.478 2.031-1.195 4.778-1.792 2.509-.478 4.062-2.748 6.451-4.3 3.464-2.27 1.792-4.182 5.973-4.899 6.69-1.195 2.389-.956 3.106-7.168 1.075-.358 2.031-.836 2.986-1.314 2.15 2.748-.597 1.672 2.031 3.464.717-.358 1.434-.717 2.15-1.195-.358-2.986-1.792-2.389-2.628-6.092-3.345.478-4.539 3.345-7.168 2.27-2.628-.956-2.748-4.659-2.628-7.765.956-2.27 5.734-3.584 7.645-4.18 2.986-.957 2.628-2.987 5.376-5.854 3.584-3.584.956 0 2.748-4.659 3.942-.119 2.15-.239 4.42-1.553h.119l.239-.119c1.434-.597 3.225-.717 5.017-1.434 6.69-2.27 9.318-1.075 14.216.836 3.703 1.553 15.052 1.553 15.888 6.331-2.748 2.867-5.256.717-9.198.956.717 3.703 1.075 3.703 4.301 4.66.597-1.793-.239-1.076.717-2.15 1.075.238 2.15.477 3.225.596 1.075-3.703 2.389-3.225 6.092-3.584-.597-2.509-1.314-1.792.119-3.823 3.823.358.717 0 2.628 3.106 2.628-.358 5.256-3.345 8.959-3.703 2.27-.239 2.15.597 5.376.24 2.628-.24 2.509-1.315 5.256-.12.956-1.792 0-1.792 2.389-2.15 3.584-.597 6.809 1.553 10.273 2.031-2.628-3.225-5.017-2.509-1.911-7.884 4.062-.836 4.42-.239 6.212 2.748.956-.597 1.434-1.075 1.911-1.434zM32.734 180.336c8.482-38.705 28.79-72.87 57.101-98.673 2.15.717 5.137.24 7.287.12.836-1.435 1.314-2.749 2.628-3.226.597-.239 1.195-.239 2.15-.239.119.717.358 1.434.478 2.15l.119.478c.119-.119.119.24.119.478 3.823-2.27.597-2.27 2.628-6.33-3.225-.598-2.748-.24-4.778-2.27 1.911-2.15 5.734-2.868 8.482-2.629-.239 1.911-1.075 1.911-.358 3.584 2.15-1.314 3.703-5.017 7.168-4.3.717.477 1.434.955 2.15 1.313-1.792 1.672-4.539 1.792-6.929 2.748-1.075 10.512 3.345 1.672 1.911 8.84 2.628-.239 5.137-2.03 6.092-4.062-.956-1.314-2.389-1.314-3.106-2.748.597-1.91 1.911-3.345 3.703-4.3 1.195-.598 2.748-.957 4.42-.957 19.233.12 10.035.956 16.007 3.703 1.314.597 3.703.836 4.42 2.031 1.195 1.792.119 3.584 2.031 5.017 1.672 1.314 1.911 0 4.181 2.748-.478 1.553-1.672 3.225-3.942 3.345-3.225 0-1.314-2.15-4.778-1.792.119 3.225 3.345 4.54.358 6.331-2.628 1.553-.956-.597-2.986.478-.119 0-.239.12-.358.24l-.358.357c-.358.358-.717.717-.956 1.075-4.778-1.314-3.942-.717-6.809-3.942-1.075-1.195-1.314-1.553-3.225-1.314-1.195 0-2.748.597-3.942-.478 2.389-2.986 3.464-.119 6.929-1.792.597-.239 4.42-3.225 5.017-3.942-1.075-2.27-.119-.358-1.672-1.91-3.345-3.465-4.301-2.51-8.959-2.51-2.15 2.51-3.703 5.495-6.092 6.93-1.434.835-3.106.955-5.376 0 1.075 4.18 3.703.955 3.942 5.972-1.792-.358-2.628-1.195-4.42-.597-3.823 1.434-.478 1.314-.119 2.031 0 0 1.792.24 0 .956-2.031.717-.358-.358-4.181-2.628.597-.956 1.075-2.03 1.672-2.986-3.106.956-7.048 2.51-10.751 4.301-4.181 2.031-8.123 4.42-10.393 6.57-.119 3.584.597 1.195.956 5.495 5.615.358 3.823 2.031 9.437 3.584 1.075.24 2.509.597 4.181.836 0 2.748-2.389 4.778-.717 7.526 3.942 2.748 4.062-2.628 5.017-6.092 13.26-2.748 6.929-6.69 10.273-13.977a13.2 13.2 0 0 1 2.27-3.464c1.075 0 5.137.478 6.092.717 2.986.478 1.434 1.314 4.659 2.748-.119 2.628-1.434 5.973 2.509 5.376 2.986-.478 2.27-2.867 5.973-3.464 1.672 3.823 1.195 5.495 1.911 10.035 8.72 3.345 4.778 6.092 3.106 12.424 1.075.478 2.27.956 3.345 1.553-.119 1.792-.119 3.584-.239 5.376-.239 0-9.318-2.03-9.915-2.15 1.434-3.942 3.942-4.062 5.615-8.123-3.225.597-2.986 1.553-5.376 2.27-2.15.597-3.703.24-5.973.478-.836 2.628-.119-2.27.239 1.075.119 1.314.717 0-.119 1.434-2.986-1.434-2.031-4.659-7.645-1.672 1.314.597 2.509 1.075 3.823 1.672-.239 3.703-.478.956-1.314 3.345-1.911 6.331 5.256 2.39 7.168 2.031-.478 3.345-2.509 3.345-5.495 4.301-3.225.956-4.181 2.27-6.69 2.867 0-3.942-.597-.597 1.195-3.345-2.509.24-4.42 1.434-6.809 2.39l-.239.118c-3.106 1.314-3.584 1.434-3.942 5.376-2.628.836-5.734 1.792-7.645 3.703-1.911 1.792-3.703 3.584-5.615 5.256q-.358.18-.358.358c.717 5.017 0 5.137-2.986 7.048-2.509 1.672-3.345 1.553-5.734 3.703-7.526 6.81-3.942 3.584-3.464 15.291-1.553-.478-3.106-.956-4.539-1.553-1.195-7.765.478-5.137-5.853-6.929-6.69-1.91-5.853 1.314-8.601 1.911-3.106.717-4.539-2.748-9.079.12-2.509 1.671-4.778 2.747-5.376 5.852-.717 3.584-2.389 6.331-2.15 10.273.478 10.871 10.273 11.468 12.902 6.451 1.672-3.345 1.314-5.256 6.809-4.3.597 2.866-.358 5.016-1.075 7.286-.478 1.314-1.792 3.703-1.195 5.495 3.942 1.553 4.062-1.434 9.198 1.672.358 5.137-2.389 10.99 1.672 13.977 3.106 2.27 3.225.24 5.973-.239 2.986-.478 2.509 1.314 5.256 1.792 1.553-1.91.956-.717 1.911-3.106 1.792-4.062 2.27-2.15 6.57-4.659.358-.239.836-.478 1.195-.717.478.956 1.075 2.031 1.553 2.986 3.106-3.703 3.464-.119 7.168.956 1.553.478 2.628.597 3.464.597 2.628 0 2.867-1.195 6.451 0 .478.24.956.358 1.434.478.119 0 .239.12.239.24.119 0 .239.238.358.238.597.717.717 1.314 1.195 2.031 2.509 2.39 4.898 4.778 7.406 7.048 4.778 1.911 4.778-1.672 10.154 3.584 2.27 2.15 1.314 2.15 2.509 4.898.239.478.597.836.836 1.434.478 1.314 1.075 2.51 1.553 3.823 2.509 3.225 5.853 1.195 9.318 4.54 2.031 1.91.478 1.313 4.898 2.15 6.809 1.074 4.181.477 9.318 4.42 2.031 1.433 2.509.596 4.301 1.91 2.628 3.584 1.911 7.526-.239 10.751-6.69 9.796-4.42 8.123-4.659 15.888-.239 4.42-1.553 13.618-5.734 14.693-15.171 4.301-6.331 7.168-10.273 14.693-1.195 2.15-2.031 2.628-2.748 4.301-2.986 7.048-.956 9.437-9.796 7.884.836 1.553.358.478 1.195 1.792 2.628 4.062 3.106 7.168-2.389 8.243-4.539.836-2.628 0-2.986 5.017-1.792.717-2.509 0-3.703 1.195 1.553 2.867.119.478 2.748 2.15-.478 1.553-.836 3.106-1.314 4.66-1.075 3.822-1.314.238-1.672 4.658 1.553.717 2.628.597 4.062 2.51-.239 1.433-1.672 5.375-2.031 7.644 2.27 3.345 4.062 6.93 8.84 7.287-.119 2.748.597 2.51-1.792 3.106-2.031.478-6.451-1.434-8.243-2.389-3.106-1.672-6.092-3.942-8.123-7.048-1.195-1.792-.717-.956-2.031-2.628-2.27-2.986-1.434-4.3-2.031-6.33-.358-1.196-2.27-2.39-1.434-6.213.239-1.075 1.911-6.092-.239-5.256-2.031.836 1.553.478-1.314 1.792-.717-1.792-1.195-4.539-1.553-6.809-.717-3.823-1.672-3.942-2.031-6.33-.956-5.377 1.434-5.974-1.195-14.933-1.672-5.973-.956-19.95-2.748-27.117q-.358-1.792-1.075-2.867c-1.672-2.748-5.615-3.942-8.84-6.092-.239 0-.358-.119-.358-.239-4.42-3.106-8.601-15.17-12.065-19.83-1.672-2.15-2.628-1.195-3.345-4.659-.836-3.106.478-2.628 1.434-5.256-5.376-9.915 6.929-9.676 4.42-21.622-.597-2.15-2.15-5.256-3.464-6.212-2.509 1.075-1.314 1.792-2.628 3.823-2.031-1.195-4.062-2.27-6.092-3.464-6.212-5.973-2.867-1.672-4.659-5.615-3.703-8.243-7.287-3.584-11.826-7.645-2.031-1.672-2.389-4.3-5.734-3.823-5.017.717-2.27 1.434-7.406-.956-4.42-2.03-8.959-4.539-12.065-7.287-.119-5.853 1.672-5.256-2.867-10.75zM91.866 79.871c1.195-.956 2.27-2.03 3.464-2.986l.119.24c.239.357.478.357.717 1.433-3.106.717-3.106 1.195-4.181 1.434zm161.388 56.026c1.672 1.075 3.703 1.911 4.898 2.986 1.553 4.301-.478 2.27 2.628 6.69 1.792 2.39 1.434 4.181 3.225 5.495 3.345-.478.478.478 2.509-1.553.358-.358 1.434-1.553 1.672-2.03-1.075-1.673-1.792-1.793-2.748-3.465 3.703-5.017 5.376-2.15 6.331 1.195 2.389 9.08 5.973 6.451 8.959 6.092 3.106-.478.478.12 3.225.836 2.628.717 1.434 0 3.225-.478 6.331-1.553 1.434 10.751.836 12.065-3.464.478-2.748-.358-5.256-.597-5.017-.478.358 2.986-11.587-.836-11.349-3.584-8.959-4.42-11.349 3.464-2.628-.239-2.509-.717-4.898-1.553-.956-.358-1.434-.597-1.792-.597h-.119c-.956-.358 0 0-2.031-1.91-1.792-1.673-6.092-2.032-9.079-3.585 0-2.628 2.27-4.778-.478-7.884-.956-.239-13.738.24-15.769.717-4.181.836-4.898 4.42-10.632 3.584-3.106-.478-2.031-.119-2.867-2.03 1.075-.957 0-.479 1.792-1.076.717-.239.956-.119 1.553-.239 9.318-1.434 4.539-6.092 10.273-10.632 4.778-3.823 1.075 0 3.703-4.659 3.225-.239 2.867 1.314 5.615 0 2.27-1.195 1.553-2.15 4.778-2.27 2.867 2.867 2.27 4.66 7.048 6.81 1.911.835 2.986 1.313 4.181 2.985 2.15 3.106.358 2.031 1.195 4.181.239-.119.478-.239.717-.239h.119c2.509-1.195-1.314-1.553 2.867-5.256-1.195-.836-2.031-1.434-2.867-1.91l-.119-.12c-3.225-1.91-1.911-.119-6.092-5.256-1.075-1.434-1.434-1.553-1.314-3.823 2.986-.478 3.464 1.553 6.212 3.942.358.358.836.597 1.195.956l.119.12zm64.508 130.21c-2.628 1.314-2.986 4.42-5.017 6.212-2.15 2.031-5.017 1.075-5.973 4.778-1.075 4.54 1.792 3.225-1.434 9.198-1.195 2.27-1.195 7.765.597 9.437 5.256 5.017 8.123-7.765 9.318-11.707.956-2.867 1.792-6.092 2.748-8.72.956-2.867 2.389-5.376-.239-9.079zm-8.72-134.869c.478 5.853 3.942 8.123 6.451 10.871-.358 2.867-.956 2.031-.956 5.973 2.986 2.15 5.137 3.464 8.959 2.39.597-4.779-.956-4.54-2.389-7.766.239-.358.956-.836 1.075-.956 1.075-1.434.597.597 1.075-1.91-2.867-.957-7.406-3.824-7.765-7.646 1.434-1.075.956-.478 2.031-1.075 2.27-1.434.597.717 1.911-1.672-1.195-2.27-2.389-2.628-5.137-1.553-1.195.478-4.42 2.748-5.017 3.225zm-24.728 1.553c-1.911-2.628-1.792-3.942-5.376-4.062-1.434 1.553-3.106 3.823-3.942 6.212-1.195 3.584-.358 1.075-.239 5.017-.119.12 0 .358 0 .478-.119 2.27-.597-.478-.239 1.672 2.867-.597.717-.478 2.748-1.195s8.123-2.509 9.796-2.03c4.181.955 7.645 4.3 12.424.955-.239-4.18-5.376-5.853-8.84-7.645.239-3.823 1.195-.836.956-4.539-1.195 0-1.911-.239-3.106.24-2.748 1.194-1.195 1.552-1.195 2.03.119 2.031 2.748-.478 0 2.15-.837.717-2.032.717-2.987.717m-70.481-29.267c-.119 6.81 2.27 4.54 4.42 7.884-1.075 2.867-1.195.597-2.389 3.584-1.075 2.51.239.24-.478 4.54 1.792.118 4.301-.479 6.69-.718 3.225-.239 3.225-.597 4.301-3.942-1.792-2.27-3.584-4.42-5.495-6.69-2.389-3.584 0-1.075-.717-4.062-.597-1.075-1.075-2.15-1.553-3.225-3.106 1.075-2.867.717-4.898 2.628z"/><path style="fill:#424242" d="M211.563 355.462v2.504l2.509.478v-2.381l-2.389-.597h-.12zm-14.693 17.92v-.12l-.597-1.434-.358-.836-2.27.956.358.836.597 1.434v.12l2.389-.957zm-1.911-4.66-.478-1.075-.478-1.195-2.27.956.478 1.195.478 1.075zm-2.031-4.659-.239-.478-.597-1.314-.239-.478-2.27 1.075.239.478.597 1.314.239.478zm-2.031-4.659-.597-1.195-.478-1.075-2.27 1.075.478 1.075.597 1.195zm-2.15-4.539-.239-.478-.597-1.314-.239-.597-2.27 1.075.239.597.597 1.195.239.478 2.27-1.075zm-2.27-4.54-.478-.836-.597-1.195-.119-.119-2.27 1.195.119.12.597 1.194.478.836zm-2.389-4.539-.597-1.195-.597-1.075-2.15 1.195.597 1.075.597 1.195 2.27-1.195zm-2.389-4.42-.119-.119-.597-1.075-.478-.956-2.15 1.195.478.956.597 1.075.119.12zm-2.509-4.42-.119-.239-.597-1.075-.478-.836-2.15 1.314.478.836.597 1.075.119.24zm-2.628-4.3-.119-.12-.597-1.075-.597-.956-2.15 1.314.597.956.597 1.075.119.12zm-2.748-4.3-.597-.957-.597-.956-.119-.119-2.031 1.434.119.12.597.955.597.956 2.15-1.314zm-2.867-4.182-.478-.717-.717-.956-.358-.478-2.031 1.434.358.478.597.956.478.717 2.031-1.434zm-2.867-4.18-.239-.24-.717-.956-.597-.836-2.031 1.553.597.836.717.836.239.24zm-2.986-4.063-.478-.717-.717-.836-.358-.478-1.911 1.553.358.478.717.836.478.717 2.031-1.553zm-3.106-3.942-.119-.119-.717-.836-.717-.836-.239-.239-1.911 1.672.239.24.717.835.717.836.119.12 1.911-1.554zm-3.225-3.942-.119-.239-.717-.717-.717-.717-.119-.119-1.911 1.672.119.12.717.716.717.717.119.24zm-3.345-3.823-.239-.239-.717-.717-.717-.717-.239-.239-1.792 1.792.239.24.717.716.717.717.239.24 1.911-1.673zm-3.465-3.703-.119-.119-.717-.717-.717-.717-.358-.358-1.792 1.792.358.358.717.717.717.717.119.12zm-3.583-3.584-.478-.478-.717-.597-.597-.597-1.672 1.792.597.597.717.597.478.478zm-3.704-3.464-.119-.119-.717-.597-.717-.597-.358-.358-1.672 1.911.358.358.717.597.717.597.119.12zm-3.822-3.345-.358-.239-.717-.597-.717-.478-.239-.239-1.553 2.031.239.24.717.477.717.478.358.24zm-3.942-3.106-.358-.358-.717-.478-.717-.478-.358-.239-1.434 2.031.239.24.597.477.597.478.358.358 1.553-2.03zm-4.062-2.986-.239-.239-.717-.478-.717-.478-.478-.358-1.434 2.15.478.358.597.478.597.478.239.24 1.434-2.032zm-4.181-2.867-.597-.358-.597-.358-.597-.358-.239-.119-1.314 2.15.119.12.597.357.597.358.597.358 1.314-2.15zm-4.3-2.628-.239-.119-.597-.358-.597-.358-.597-.358h-.119l-1.195 2.15h.119l.597.358.597.358.597.358.239.12 1.314-2.15zm-4.42-2.509-.239-.119-.597-.358-.597-.358-.597-.358-.119-.119-1.075 2.27.119.12.597.357.597.358.597.358.239.12 1.195-2.27zm-4.54-2.27-.597-.239-.597-.239-.597-.239-.478-.239-.956 2.27.478.24.597.238.597.24.597.238 1.075-2.27zm-4.659-2.03-.239-.12-.597-.239-.597-.239-.597-.239-.358-.119-.836 2.39.358.118.597.24.597.238.597.24.239.118.956-2.389zm-4.778-1.792-.119-.119-.597-.239-.597-.239-.597-.239-.478-.119-.717 2.39.478.118.597.24.597.238.597.24.119.118.836-2.389zm-4.898-1.553-.358-.119-.597-.119-.597-.119-.597-.119-.358-.119-.597 2.39.358.118.478.12.478.118.478.12.358.118.717-2.389zm-4.898-1.314-.239-.119-.478-.119-.478-.119-.478-.119-.478-.119h-.119l-.478 2.51h.119l.478.118.478.12.478.118.478.12.239.118.597-2.509zm-5.017-1.076-.358-.119-.478-.119-.478-.119-.478-.119-.478-.119h-.358l-.358 2.51h.239l.478.118.478.12.478.118.478.12h.358l.478-2.51zm-5.017-.836h-2.867l-.239 2.51h2.387l.358-2.51zm-5.137-.478h-2.506l-.119 2.51h2.506zm-5.137-.238h-2.389l.119 2.51h2.27zm-5.136.238h-.238l-1.075-1.075-.478.478-.478.478-.478.478-.478.358.836.956.239 1.195h2.261l-.119-1.553.119-.119-.239-.239v-.478zm261.614 6.81-.956-.358-.956 2.27.956.478 1.075.478.119.12 1.075-2.27-.119-.12-1.075-.478zm-2.031-1.553-.717-.478-1.314-.956-.717.956-.597-.239-.239-.119-.836 2.39.119.118 1.075.478 1.075.478.239-.717.358.24 1.553-2.032zm-4.061-2.987-.956-.597-1.195-.836-1.434 2.031.358.24-.597-.24-.597-.239-.836 2.39.597.238 1.075.358.717.24.717-2.032.597.358 1.434-2.03zm-4.062-2.867-1.075-.717-.956-.717-1.434 2.031.956.717 1.075.717zm-4.181-2.867-1.195-.836-.956-.597-1.434 2.15.956.597 1.195.836zm-4.181-2.747-1.195-.717-.956-.597-1.314 2.15.956.597 1.195.717zm-4.3-2.748-1.195-.717-.956-.597-1.314 2.15.956.597 1.195.717zm-4.301-2.628-1.075-.597-1.075-.597-1.314 2.15 1.075.597 1.075.597zm-4.301-2.628-.956-.478-1.314-.717-1.195 2.15 1.314.717.956.478zm-4.419-2.509-.717-.358-1.434-.717-.119-.119-1.195 2.27.119.12 1.434.716.717.358 1.195-2.15zm-4.42-2.389-.358-.239-1.434-.717-.478-.239-1.195 2.27.478.24 1.314.716.358.24 1.195-2.27zm-4.54-2.27h-.119l-1.434-.717-.836-.358-1.075 2.27.836.358 1.314.717h.119l1.075-2.27zM283 241.021l-1.075-.478-1.314-.597-1.075 2.27 1.195.597 1.075.478 1.075-2.27zm-4.54-2.15-.478-.24-1.314-.597-.358-.239-.956 2.27.358.12 1.314.596.597.24 1.075-2.27zm-4.659-2.03-1.314-.598-.956-.358-.956 2.27.956.358 1.314.597zm-4.659-1.913-.717-.239-1.314-.478-.239-.119-.956 2.39.239.118 1.314.478.717.24zm-4.658-1.91-1.314-.479-.956-.358-.836 2.39.956.357 1.314.478.956-2.389zm-4.779-1.793-.597-.239-1.314-.478-.478-.119-.836 2.39.478.118 1.314.478.597.24zm-4.778-1.672-1.075-.358-1.314-.358-.717 2.39 1.314.357 1.075.358.836-2.389zM250.149 228l-.239-.119-1.314-.358-.836-.239-.717 2.39.836.238 1.314.358.239.12zm-4.898-1.434-.597-.119-1.314-.358-.478-.119-.597 2.39.478.118 1.314.358.597.12.717-2.39zm-4.898-1.314-.836-.239-1.314-.358-.239-.119-.597 2.39.239.118 1.314.358.836.24zm-4.898-1.195-1.075-.239-1.314-.239h-.119l-.478 2.51h.119l1.314.238 1.075.24.597-2.51zm-4.898-1.075-1.195-.239-1.195-.239-.478 2.51 1.195.238 1.195.24zm-5.017-.955-1.195-.239-1.195-.239-.358 2.51 1.195.238 1.195.24.478-2.51zm-5.017-.837-1.195-.239-1.195-.239-.358 2.51 1.195.118 1.195.24.358-2.51zm-5.018-.716-1.195-.119-1.195-.119h-.119l-.239 2.51h.119l1.195.118 1.195.12.358-2.51zm-5.017-.598-1.075-.119-1.195-.119h-.239l-.239 2.51h.239l1.195.118 1.075.12zm-5.017-.477-.836-.119-1.195-.119h-.478l-.119 2.51h.478l1.195.118.836.12.239-2.51zm-5.017-.359h-2.628l-.119 2.51h2.509l.119-2.51zm-5.018-.239h-2.629v2.51h2.509v-2.51zm-5.017 0h-2.509v2.51h2.509zm-5.017.12h-2.509l.119 2.51h2.389l-.119-2.51zm-5.017.24-1.075.118-1.075.12h-.358l.239 2.508h.239l1.075-.119 1.075-.119zm-5.018.357h-.478l-1.075.12-.956.118.239 2.51.836-.12 1.075-.119h.478l-.239-2.509zm-5.017.478-.956.12-1.075.118-.478.12.358 2.508h.478l1.075-.119.956-.119-.239-2.509zm-5.017.597h-.239l-1.075.12-1.075.118h-.119l.358 2.51h.119l1.075-.12 1.075-.119h.239zm-5.017.717-.597.12-1.075.118-.836.12.478 2.508.836-.119 1.075-.119.597-.119-.358-2.509zm-5.018.836-.717.12-1.075.238-.717.12.478 2.508.717-.119.956-.239.717-.119-.478-2.509zm-5.017 1.075-.956.24-.956.238-.478.12.597 2.508.478-.119.956-.239.956-.239zm-4.898 1.195-.956.24-.956.238-.478.12.597 2.388.478-.119.956-.239.956-.239zm-4.898 1.314-.956.24-.956.238-.478.12.717 2.388.478-.119.956-.239.956-.239zm-4.897 1.433-.956.24-.956.238-.597.24.717 2.388.597-.239.956-.239.956-.239zm-4.779 1.553-.717.24-.956.357-.717.24.836 2.388.717-.239.956-.358.717-.239zm-4.778 1.673-.478.24-.836.357-.836.358h-.119l.956 2.39.836-.359.836-.358.478-.239zm-4.778 1.792-.239.12-.836.357-.836.358-.358.12.956 2.27.358-.12.836-.358.836-.358.239-.119-.956-2.389zm-4.659 1.911-.717.358-.836.358-.717.358 1.075 2.27.717-.358.836-.358.717-.358-.956-2.27zm-4.659 2.031-.239.12-.836.357-.836.358-.358.24 1.075 2.27.358-.24.836-.358.836-.358.239-.119zm-4.54 2.15-.478.24-.836.357-.836.358-.119.12 1.195 2.27.119-.12.717-.358.836-.358.478-.239zm-4.539 2.27-.717.358-.717.358-.717.358 1.195 2.15.717-.358.717-.358.717-.358-1.195-2.27zm-4.42 2.39-.717.357-.717.358-.717.358 1.314 2.15.717-.358.717-.358.717-.358-1.195-2.15zm-4.42 2.508-.597.358-.717.478-.717.478-.119.12 1.314 2.15.119-.12.717-.478.717-.358.597-.358-1.314-2.15zm-4.301 2.628-.358.24-.717.477-.717.478-.358.24 1.434 2.15.358-.24.597-.478.597-.478.358-.239-1.314-2.15zm-4.181 2.747h-.119l-.597.478-.597.478-.597.478-.119.12 1.434 2.03.119-.119.597-.478.597-.478.597-.478h.119zm-4.181 2.867-.239.12-.597.477-.597.478-.597.478h-.119l1.553 2.031.597-.478.597-.478.597-.478.239-.119zm-4.061 3.106-.239.12-.597.477-.597.478-.597.478-.119.12 1.553 1.91.119-.119.478-.478.478-.478.597-.478.239-.119-1.553-2.03zm-3.942 3.226-.478.358-.478.478-.478.478-.478.358 1.672 1.911.478-.358.478-.478.478-.478.478-.358zm267.587 14.335-.358-1.314-.119-.239-2.389.717.119.24.119.357-.956-.478-.956-.478-1.075 2.27.956.478 1.075.597.119.12.956-1.912.119.478 2.389-.717zm-1.194-4.062-.358-1.314-.358-1.195-2.389.717.358 1.195.358 1.314zm-1.553-4.778-.119-.358-.478-1.314-.239-.836-2.389.836.239.836.478 1.314.119.358zm-1.673-4.779-.239-.478-.478-1.195-.239-.597-2.389.836.239.597.478 1.195.239.597 2.389-.836zm-1.792-4.778-.239-.717-.478-1.195-.239-.478-2.389.956.239.478.478 1.195.239.717zm-1.911-4.659-.239-.717-.478-1.195-.239-.478-2.27.956.239.478.478 1.195.239.717zm-2.031-4.659-.239-.597-.478-1.075-.239-.478-2.27 1.075.239.478.478 1.075.239.597zm-2.15-4.659-.239-.478-.478-1.075-.358-.717-2.27 1.075.358.717.478 1.075.239.478zm-2.27-4.539-.119-.239-.597-1.075-.478-.956-2.27 1.195.478.836.478 1.075.119.24 2.27-1.076zm-2.389-4.54-.597-.956-.597-1.075-.119-.239-2.15 1.195.119.12.597.955.597.956 2.15-1.195zm-2.509-4.42-.358-.597-.597-.956-.358-.597-2.15 1.314.358.597.597.956.358.597zm-2.628-4.3-.119-.119-.597-.956-.597-.956-.119-.119-2.15 1.314v.12l.597.955.597.956.119.12 2.15-1.315zm-2.747-4.3-.358-.598-.597-.956-.478-.597-2.031 1.434.478.597.597.956.358.597zm-2.867-4.182-.597-.836-.597-.836-.239-.358-2.031 1.553.239.358.597.836.597.836 2.031-1.434zm-2.987-4.06-.119-.24-.597-.836-.597-.836-.119-.119-1.911 1.553.119.12.597.835.597.836.119.24 2.031-1.554zm-3.106-3.943-.239-.358-.597-.836-.717-.836-1.911 1.672.597.717.597.836.239.358 1.911-1.553zm-3.225-3.823-.358-.358-.717-.717-.717-.717-1.911 1.672.717.717.717.717.358.358zm-3.464-3.703-.239-.358-.717-.717-.717-.717-.119-.119-1.792 1.792.119.12.717.716.717.717.239.358 1.792-1.672zm-3.584-3.584-.239-.239-.717-.717-.717-.717-.239-.239-1.672 1.792.239.24.717.716.717.717.239.24 1.792-1.793zm-3.703-3.464-.717-.597-.717-.597-.478-.358-1.672 1.911.478.358.717.597.717.597zm-3.823-3.345-.478-.478-.717-.597-.717-.597-1.553 1.911.717.597.717.597.478.478 1.672-1.91zm-3.942-3.226-.239-.119-.717-.597-.717-.597-.358-.239-1.434 2.031.358.24.717.596.717.597.239.12 1.553-2.032zm-4.062-2.986-.478-.358-.717-.478-.717-.478-.119-.119-1.434 2.031h.119l.717.478.717.478.478.358 1.434-2.03zm-4.181-2.867-.717-.478-.717-.478-.597-.358-1.314 2.15.597.358.717.478.717.478zm-4.3-2.628-.239-.119-.717-.478-.717-.478-.478-.239-1.195 2.15.478.24.717.477.717.478.239.12 1.314-2.15zm-4.42-2.509-.239-.119-.717-.358-.717-.358-.478-.239-1.075 2.27.478.24.717.357.717.358.239.12 1.195-2.27zm-4.54-2.269-.239-.119-.717-.358-.717-.358-.478-.239-.956 2.27.478.24.717.357.717.358.239.12 1.075-2.27zm-4.659-2.03-.239-.12-.717-.358-.717-.358-.597-.239-.956 2.39.597.238.717.24.717.357.239.12zm-4.778-1.793-.717-.239-.717-.239-.717-.239h-.119l-.717 2.39h.119l.717.238.717.24.717.238.836-2.389zm-4.898-1.553-.478-.119-.717-.239-.717-.239-.358-.119-.717 2.39.358.118.717.24.717.238.478.12zm-4.898-1.314h-.239l-.717-.239-.717-.239-.717-.119-.478 2.51.717.118.717.12.717.238h.239l.597-2.389zm-5.017-1.075-.478-.119-.717-.119-.717-.119-.478-.119-.358 2.51.478.118.717.12.717.118.478.12.478-2.51zm-5.017-.837-.717-.119-.717-.119-.717-.119h-.358l-.239 2.51h.358l.717.118.717.12.717.118.358-2.509zm-5.017-.597h-2.509l-.119 2.51h2.509l.239-2.51zm-5.137-.239h-2.509v2.51h2.509zm-5.137 0H216.7l.119 2.51h2.628zm-5.137.36-.597.118-.717.12-.717.118-.478.12.358 2.508.478-.119.717-.119.717-.119.597-.119-.239-2.509zm-5.017.596-.358.12-.717.118-.717.12-.717.118h-.119l.478 2.51h.119l.597-.12.597-.119.597-.119.358-.119-.358-2.509zm-5.017.956-.597.12-.597.118-.597.12-.478.118.597 2.39.478-.12.597-.119.597-.119.597-.119-.597-2.509zm-4.898 1.314-.239.12-.597.238-.597.24-.597.238-.239.12.836 2.388.239-.119.597-.239.597-.239.597-.239.239-.119-.717-2.389zm-4.898 1.672-.358.12-.597.238-.597.24-.597.238-.239.12 1.075 2.27.119-.12.597-.239.597-.239.597-.239.358-.119-.956-2.389zm-4.659 2.031-.358.24-.597.238-.597.24-.597.238-.119.12 1.195 2.27.119-.12.597-.239.597-.239.597-.239.358-.239-1.075-2.27zm-4.539 2.39-.358.238-.597.358-.597.358-.478.358-.239.12 1.434 2.15.239-.12.478-.358.478-.358.478-.358.358-.239-1.314-2.15zm-4.301 2.747-.239.12-.478.357-.478.358-.478.358-.358.24 1.553 2.03.358-.239.478-.358.478-.358.478-.358.239-.119-1.434-2.03zm-4.061 3.225-.119.12-.478.357-.478.358-.478.358-.239.24.239-.598-.119-.119-1.195-.597-.956-.478-1.075 2.27.956.478 1.075.597.119.12.717-1.435 1.672 1.792.478-.358.478-.358.478-.358.478-.358.119-.119zm-5.973-1.195-.119-.119-1.075-.478-1.075-.478-.956 2.27.956.358v1.19l2.509.478v-2.384l-.717-.239.358-.836zm-4.659-2.03-1.075-.478-1.075-.478-.239-.119-.836 2.39.119.118 1.075.478 1.075.478zm-4.778-1.792-.717-.239-1.075-.358-.597-.239-.836 2.39.597.238 1.075.358.717.24zm-4.779-1.553h-.119l-1.075-.358-1.075-.239-.239-.119-.597 2.39.239.118.956.24 1.075.357h.119zm-4.897-1.314-.358-.119-1.075-.239-.956-.239h-.119l-.478 2.51.956.238.956.24.358.118.597-2.389zm-5.018-1.075-.478-.119-.956-.119-.956-.119h-.119l-.358 2.51h.119l.956.118.956.12.478.118.478-2.509zm-5.017-.717h-.239l-.956-.119-.956-.119h-.358l-.119 2.51h.358l.956.118.956.12h.239l.239-2.51zm-5.137-.359h-2.628v2.51h2.389l.119-2.51zm-5.136 0h-2.509l.239 2.51h2.389zm-5.137.36h-.478l-.836.118-.836.12h-.358l.358 2.508h.358l.836-.119.836-.119h.478zm-5.017.835-.478.12-.836.12-.836.238-.358.12.597 2.388.358-.119.836-.239.836-.119.478-.119-.478-2.509zm-5.018 1.195-.358.12-.836.238-.836.24-.478.118.836 2.39.478-.12.717-.239.717-.239.358-.119-.717-2.389zm-4.897 1.553-.239.12-.717.238-.717.358-.717.24.956 2.27.597-.24.717-.239.717-.239.239-.119zm-4.779 2.03-.717.358-.717.358-.717.358-.119.12 1.195 2.27.119-.12.717-.358.717-.358.717-.358-1.075-2.27zm-4.539 2.39-.358.24-.717.357-.717.358-.478.24 1.314 2.15.358-.24.717-.358.717-.358.358-.239-1.314-2.15zm-4.301 2.747-.119.12-.717.477-.597.478-.597.478 1.553 2.031.597-.478.597-.478.597-.478.119-.119zm-4.181 2.987-.478.358-.597.478-.597.478-.358.24 1.672 1.91.239-.239.597-.478.597-.478.478-.358-1.553-2.03zm-3.942 3.225-.119.12-.597.477-.597.478-.597.478 1.672 1.792.478-.478.597-.478.597-.478.119-.119-1.672-1.91zm-3.703 3.464-.478.478-.597.597-.597.597-.239.24 1.792 1.671.239-.239.478-.597.597-.597.478-.478-1.792-1.792zm-3.464 3.704-.239.24-.478.596-.478.597-.478.478 1.911 1.672.358-.478.478-.597.478-.597.239-.239-1.911-1.672zm-3.345 3.822-.478.597-.478.597-.478.597-.119.12 2.031 1.552.119-.119.478-.597.478-.597.478-.597-1.911-1.553zm-3.106 4.062-.239.358-.478.597-.478.597-.358.478 2.031 1.434.358-.478.478-.597.478-.597.239-.358zm-2.987 4.181-.478.597-.478.597-.478.597-.119.24 2.15 1.313.119-.119.478-.597.478-.597.478-.597-2.031-1.434zm-2.747 4.3-.239.24-.358.596-.358.597-.358.597 2.15 1.314.358-.597.358-.597.358-.597.239-.239zm-2.628 4.301-.358.478-.358.717-.358.717-.239.358 2.15 1.195.239-.358.358-.597.358-.597.358-.478-2.15-1.195zm-2.509 4.42-.358.717-.358.597-.358.717-.119.24 2.27 1.194.119-.239.358-.597.358-.597.358-.597-2.27-1.195zm-2.27 4.54-.119.118-.358.597-.358.597-.358.597-.119.24 2.27 1.074.119-.239.358-.597.358-.597.358-.597.119-.119zm-2.15 4.54v.118l-.239.597-.239.597-.239.597-.119.358 2.27.956.119-.239.239-.597.239-.597.239-.597v-.119zm-2.031 4.658-.239.478-.239.597-.239.597-.239.597 2.27.956.239-.597.239-.597.239-.597.239-.478zm-1.911 4.658v.12l-.239.596-.239.597-.239.597-.239.478 2.389.836.239-.478.239-.597.239-.597.239-.597v-.119l-2.389-.956zm-1.792 4.78-.239.596-.239.597-.239.597-.239.597v.12l2.389.835v-.119l.239-.597.239-.597.239-.597.239-.597zm-1.672 4.777v.12l-.119.477-.119.478-.119.478-.119.478-.119.24 2.389.716.119-.239.119-.478.119-.478.119-.478.119-.478v-.119l-2.389-.836zm-1.553 4.78-.119.238-.119.478-.119.478-.119.478-.119.478-.119.478 2.389.717.119-.478.119-.478.119-.478.119-.478.119-.478.119-.239zm-1.434 4.896-.119.358-.119.358-.119.358-.119.358-.119.358-.119.358-.119.358v.12l2.389.596v-.119l.119-.358.119-.358.119-.358.119-.358.119-.358.119-.358.119-.358-2.389-.717zm-1.314 4.898v2.504l2.509.478v-2.384l-2.389-.597h-.12zM294.946 97.79l.478-2.389h-.239l-1.314-.239-.358 1.911-.597-.358-1.075 2.27.956.478 1.075.597.119.12 1.195-2.27-.119-.12zm2.389.477 1.075.24 1.195.238h.119l.597-2.509h-.239l-1.195-.239-1.075-.239zm4.898 1.076.956.24 1.195.238.358.12.717-2.39-.358-.119-1.195-.358-.956-.239-.597 2.39zm4.778 1.314.597.24 1.075.357.597.24.836-2.39-.717-.239-1.075-.358-.597-.239zm4.778 1.553h.119l1.075.358 1.075.358h.119l.956-2.389h-.119l-1.075-.358-1.075-.358h-.119l-.836 2.39zm4.659 1.791.597.24.956.477.717.358 1.075-2.27-.717-.358-.956-.478-.597-.239-.956 2.27zm4.54 2.031.836.358.956.478.478.24 1.195-2.15-.597-.24-.956-.478-.836-.358-1.195 2.27zm4.3 2.39.836.477.836.478.478.24 1.434-2.15-.478-.359-.836-.597-.836-.478-1.314 2.15zm4.181 2.628.717.478.836.597.478.358 1.553-2.03-.478-.359-.836-.597-.717-.478-1.434 2.031zm3.942 2.986.478.478.717.597.597.597 1.672-1.91-.717-.598-.717-.597-.478-.478zm3.703 3.225.239.24.717.596.597.597.119.12 1.792-1.793-.239-.239-.717-.717-.717-.717-.239-.239-1.792 1.792zm3.465 3.465.597.717.597.717.358.478 1.911-1.672-.478-.478-.597-.717-.597-.717-1.911 1.672zm3.225 3.703.358.358.597.717.478.717.119.12 2.031-1.435-.119-.119-.597-.716-.597-.717-.358-.358-2.031 1.553zm2.867 3.942.478.717.478.717.358.597 2.15-1.314-.358-.597-.478-.717-.478-.717-2.031 1.434zm2.628 4.181.239.358.478.717.478.836.119.24 2.27-1.196-.119-.239-.478-.836-.478-.836-.239-.358-2.15 1.195zm2.389 4.301.358.717.358.836.358.717 2.27-1.075-.358-.717-.358-.836-.358-.717zm2.031 4.54.119.357.358.836.358.836.119.358 2.389-.836-.119-.358-.358-.836-.358-.836-.119-.358-2.27.956zm1.792 4.658.239.717.239.836.239.717 2.389-.717-.239-.836-.358-.836-.239-.717-2.389.836zm1.553 4.778.119.358.239.836.239.836.119.358 2.389-.597-.119-.358-.239-.836-.239-.836-.119-.358-2.389.717zm1.314 4.78.239.716.239.836.119.717 2.509-.478-.239-.836-.239-.956-.239-.717-2.509.597zm1.075 4.896.119.358.119.836.119.956v.24l2.509-.359v-.358l-.119-.956-.119-.956-.119-.358-2.509.478zm.836 4.898.119.836.119.956.119.717 2.509-.358-.119-.717-.119-.956-.119-.836zm.598 4.898v.478l.119.956.119.956v.24l2.509-.24v-.239l-.119-.956-.119-.956v-.478zm.478 5.017v.12l.119.955.119.956v.597l2.509-.119v-.597l-.119-.956-.119-.956v-.119l-2.509.24zm.358 5.018v2.629h2.509v-2.629l-2.509.12zm.119 5.017v2.509h2.509v-2.509zm0 5.017v2.509l2.509.12v-2.51h-2.509zm-.119 5.017v2.509l2.509.12v-2.629l-2.509-.119zm-.239 5.018v.597l-.119.836-.119.836v.24l2.509.238v-.239l.119-.836.119-.956v-.597zm-.358 5.017-.119.836-.119.836-.119.836 2.509.24.119-.837.119-.836.119-.836zm-.478 5.017v.12l-.119.835-.119.836-.119.597 2.509.358.119-.597.119-.836.119-.836v-.119l-2.509-.239zm-.597 5.017v.24l-.119.835-.119.836-.119.597 2.509.358.119-.597.119-.836.119-.836v-.239zm-.717 4.898v.24l-.119.835-.119.836-.119.597 2.509.358.119-.597.119-.836.119-.836v-.239zm-.836 4.898-.119.717-.119.717-.119.717v.12l2.509.477v-.119l.119-.717.119-.717.119-.836-2.509-.478zm-.956 4.898-.119.358-.119.717-.119.717-.119.597 2.509.478.119-.597.119-.717.119-.717.119-.358zm-.956 4.898-.119.478-.119.717-.119.717-.119.597 2.509.597.119-.597.119-.717.119-.717.119-.478-2.509-.478zm-1.075 4.897-.119.24-.119.596-.119.597-.119.597-.119.24 2.389.596.119-.239.119-.597.119-.597.119-.597.119-.239-2.509-.597zm-1.194 4.898-.119.24-.119.596-.119.597-.119.597-.119.478 2.389.597.119-.478.119-.597.119-.597.119-.597.119-.239zm-1.315 4.898-.119.24-.119.477-.119.478-.119.478-.119.478-.119.24 2.389.716v-.239l.119-.478.119-.478.119-.478.119-.478.119-.239-2.389-.717zm-1.314 4.778-.119.358-.119.358-.119.358-.119.358-.119.358-.119.358v.24l2.389.716v-.239l.119-.358.119-.358.119-.358.119-.358.119-.358.119-.358zm-1.433 4.78-.119.238-.119.24-.119.238-.119.24-.119.238v1.19l2.389.836v-1.071l.119-.119.119-.239.119-.239.119-.239.119-.239.119-.239-2.389-.836zm-59.132-163.54-.119-.119-1.075-.478-1.075-.478-.956 2.27.956.478 1.075.478.119.12zm-4.659-2.03-1.075-.479-1.075-.478-.239-.119-.836 2.39.119.118 1.075.478 1.075.478zm-4.778-1.793-.717-.239-1.075-.358-.597-.239-.836 2.39.597.238 1.075.358.717.24zm-4.779-1.553h-.119l-1.075-.358-1.075-.239-.239-.119-.597 2.39.239.118.956.24 1.075.357h.119zm-4.898-1.314-.358-.119-1.075-.239-.956-.239h-.119l-.478 2.51.956.238.956.24.358.118.597-2.389zm-5.017-1.075-.478-.119-.956-.119-.956-.119h-.119l-.358 2.51h.119l.956.118.956.12.478.118.478-2.509zm-5.017-.717h-.239l-.956-.119-.956-.119h-.358l-.119 2.51h.358l.956.118.956.12h.239l.239-2.51zm-5.137-.358h-2.628v2.51h2.389l.119-2.51zm-5.137 0h-2.509l.239 2.51h2.389zm-5.136.358h-.478l-.836.12-.836.118h-.358l.358 2.51h.358l.836-.12.836-.119h.478zm-5.018.836-.478.12-.836.118-.836.24-.358.118.597 2.39.358-.12.836-.119.836-.119.478-.119-.478-2.509zm-5.017 1.195-.358.12-.836.238-.836.24-.478.118.836 2.39.478-.12.717-.239.717-.239.358-.119-.717-2.389zm-4.898 1.553-.239.12-.717.238-.717.358-.717.24.956 2.27.597-.24.717-.239.717-.239.239-.119zm-4.778 2.031-.717.358-.717.358-.717.358-.119.12 1.195 2.27.119-.12.717-.358.717-.358.717-.358-1.075-2.27zm-4.539 2.39-.358.238-.717.358-.717.358-.478.24 1.314 2.15.358-.24.597-.358.717-.358.358-.239-1.314-2.15zm-4.301 2.747-.119.12-.597.477-.597.478-.597.478 1.553 2.031.597-.478.597-.478.597-.478.119-.119-1.434-2.03zm-4.181 2.986-.478.358-.597.478-.597.478-.358.24 1.672 1.91.239-.239.597-.478.597-.478.478-.358-1.553-2.03zm-3.942 3.225-.119.12-.597.477-.597.478-.597.478 1.672 1.792.478-.478.597-.478.597-.478.119-.119-1.672-1.91zm-3.703 3.465-.478.478-.597.597-.597.597-.239.24 1.792 1.671.239-.239.478-.597.597-.597.478-.478-1.792-1.792zm-3.465 3.703-.239.24-.478.596-.478.597-.478.478 1.911 1.672.358-.478.478-.597.478-.597.239-.239-1.911-1.672zm-3.344 3.823-.478.597-.478.597-.478.597-.119.12 2.031 1.552.119-.119.478-.597.478-.597.478-.597-1.911-1.553zm-3.106 4.061-.239.358-.478.597-.478.597-.358.478 2.031 1.434.358-.478.478-.597.478-.597.239-.358zm-2.987 4.181-.478.598-.478.597-.478.597-.119.24 2.15 1.313.119-.119.478-.597.478-.597.478-.597-2.031-1.434zm-2.747 4.301-.239.24-.358.596-.358.717-.358.597 2.15 1.314.358-.597.358-.597.358-.597.239-.239-2.15-1.314zm-2.628 4.3-.358.478-.358.597-.358.717-.239.358 2.15 1.195.239-.358.358-.597.358-.597.358-.478-2.15-1.195zm-2.509 4.42-.358.597-.358.717-.358.597-.119.24 2.27 1.194.119-.239.358-.597.358-.597.358-.597-2.27-1.195zm-2.27 4.54-.119.12-.358.596-.358.597-.358.597-.119.24 2.27 1.074.119-.239.358-.597.358-.597.358-.597.119-.119zm-2.15 4.54v.118l-.239.597-.239.597-.239.597-.119.358 2.27.956.119-.239.239-.597.239-.597.239-.597v-.119zm-2.031 4.658-.239.478-.239.597-.239.597-.239.597 2.27.956.239-.597.239-.597.239-.597.239-.478zm-1.911 4.66v.118l-.239.597-.239.597-.239.597-.239.478 2.389.836.239-.478.239-.597.239-.597.239-.597v-.119l-2.389-.956zm-1.792 4.777-.239.597-.239.597-.239.597-.239.597v.12l2.389.835v-.119l.239-.597.239-.597.239-.597.239-.597zm-1.673 4.78v.118l-.119.478-.119.478-.119.478-.119.478-.119.24 2.389.716.119-.239.119-.478.119-.478.119-.478.119-.478v-.119l-2.389-.836zm-1.552 4.777-.119.24-.119.477-.119.478-.119.478-.119.478-.119.478 2.389.717.119-.358.119-.478.119-.478.119-.478.119-.478.119-.239-2.389-.717zm-1.434 4.898-.119.358-.119.358-.119.358-.119.358-.119.358-.119.358-.119.358v.12l2.389.596v-.119l.119-.358.119-.358.119-.358.119-.358.119-.358.119-.358.119-.358-2.389-.717zm149.204 93.297h-.119l-1.075-.358-1.075-.239-.239-.119-.597 2.39.239.118.956.24 1.075.357h.119zm-4.898-1.314-.358-.119-1.075-.239-.956-.239h-.119l-.478 2.51.956.238.956.24.358.118.597-2.389zm-5.017-1.075-.478-.119-.956-.119-.956-.119h-.119l-.358 2.51h.119l.956.118.956.12.478.118.478-2.509zm-5.017-.717h-.239l-.956-.119-.956-.119h-.358l-.119 2.51h.358l.956.118.956.12h.239l.239-2.51zm-5.137-.358h-2.628v2.51h2.389l.119-2.51zm-5.137 0h-2.509l.239 2.51h2.389zm-5.137.358h-.478l-.836.12-.836.118h-.358l.358 2.51h.358l.836-.12.836-.119h.478zm-5.017.836-.478.12-.836.118-.836.24-.358.118.597 2.39.358-.12.836-.119.836-.119.478-.119-.478-2.509zm-5.017 1.195-.358.12-.836.238-.836.24-.478.118.836 2.39.478-.12.717-.239.717-.239.358-.119-.717-2.389zm-4.898 1.553-.239.12-.717.238-.717.358-.717.24.956 2.27.597-.24.717-.239.717-.239.239-.119zm-4.778 2.031-.717.358-.717.358-.717.358-.119.12 1.195 2.27.119-.12.717-.358.717-.358.717-.358-1.075-2.27zm-4.54 2.39-.358.238-.717.358-.717.358-.478.24 1.314 2.15.358-.24.717-.358.717-.358.358-.239-1.314-2.15zm-4.3 2.746-.119.12-.717.477-.597.478-.597.478 1.553 2.031.597-.478.597-.478.597-.478.119-.119zm-4.181 2.987-.478.358-.597.478-.597.478-.358.24 1.672 1.91.239-.239.597-.478.597-.478.478-.358-1.553-2.03zm-3.942 3.225-.119.12-.597.477-.597.478-.597.478 1.672 1.792.478-.478.597-.478.597-.478.119-.119-1.672-1.91zm-3.704 3.465-.478.478-.597.597-.597.597-.239.24 1.792 1.671.239-.239.478-.597.597-.597.478-.478-1.792-1.792zm-3.464 3.703-.239.24-.478.596-.478.597-.478.478 1.911 1.672.358-.478.478-.597.478-.597.239-.239-1.911-1.672zm-3.345 3.822-.478.597-.478.597-.478.597-.119.12 2.031 1.552.119-.119.478-.597.478-.597.478-.597-1.911-1.553zm-3.106 4.062-.239.358-.478.597-.478.597-.358.478 2.031 1.434.358-.478.478-.597.478-.597.239-.358zm-2.986 4.181-.478.597-.478.597-.478.597-.119.24 2.15 1.313.119-.119.478-.597.478-.597.478-.597-2.031-1.434zm-2.748 4.301-.239.24-.358.596-.358.717-.358.597 2.15 1.314.358-.597.358-.597.358-.597.239-.239-2.15-1.314zm-2.628 4.3-.358.478-.358.597-.358.717-.239.358 2.15 1.195.239-.358.358-.597.358-.597.358-.478-2.15-1.195zm-2.508 4.42-.358.597-.358.717-.358.597-.119.24 2.27 1.194.119-.239.358-.597.358-.597.358-.597-2.27-1.195zm-2.27 4.54-.119.118-.358.597-.358.597-.358.597-.119.24 2.27 1.074.119-.239.358-.597.358-.597.358-.597.119-.119zm-2.15 4.54v.118l-.239.597-.239.597-.239.597-.119.358 2.27.956.119-.239.239-.597.239-.597.239-.597v-.119zm-2.031 4.658-.239.478-.239.597-.239.597-.239.597 2.27.956.239-.597.239-.597.239-.597.239-.478zm-1.912 4.66v.118l-.239.597-.239.597-.239.597-.239.478 2.389.836.239-.478.239-.597.239-.597.239-.597v-.119l-2.389-.956zm-1.791 4.777-.239.597-.239.597-.239.597-.239.597v.12l2.389.835v-.119l.239-.597.239-.597.239-.597.239-.597zm-1.673 4.778v.12l-.119.477-.119.478-.119.478-.119.478-.119.24 2.389.716.119-.239.119-.478.119-.478.119-.478.119-.478v-.119l-2.389-.836zm-1.553 4.78-.119.238-.119.478-.119.478-.119.478-.119.478-.119.478 2.389.717.119-.358.119-.478.119-.478.119-.478.119-.478.119-.239-2.389-.717zm-1.433 4.897-.119.358-.119.358-.119.358-.119.358-.119.358-.119.358-.119.358v.12l2.389.596v-.119l.119-.358.119-.358.119-.358.119-.358.119-.358.119-.358.119-.358-2.389-.717z"/><path style="fill:#ffe356" d="M95.328 288.851h.836l5.017-2.748.836-3.225c-1.195-1.195-2.389-3.225-3.584-5.734h-.239c-1.314 0-2.628-1.434-2.867-3.225-.239-1.434.239-2.509 1.075-2.986-1.075-5.734-1.911-14.454 7.884-16.605 5.853-1.314 8.004 3.225 8.243 3.703 3.584-2.031 5.853.956 6.451 2.628 1.075 2.867.717 8.243.119 10.512.597.597.836 1.553.717 2.748-.239 1.792-1.553 3.106-2.867 3.225-1.075 2.27-2.509 4.301-3.823 5.734l.836 3.225h.119l4.898 2.748h.956c6.451 0 11.587 5.017 11.587 11.229v9.079H83.86v-9.079c0-6.092 5.256-11.229 11.587-11.229zm133.435 100.943h.836l5.017-2.748.836-3.225c-1.195-1.195-2.389-3.225-3.584-5.734h-.239c-1.314 0-2.628-1.434-2.867-3.225-.239-1.434.239-2.509 1.075-2.986-1.075-5.734-1.911-14.454 7.884-16.605 5.853-1.314 8.004 3.225 8.243 3.703 3.584-2.031 5.853.956 6.451 2.628 1.075 2.867.717 8.243.119 10.512.597.597.836 1.553.717 2.748-.239 1.792-1.553 3.106-2.867 3.225-1.075 2.27-2.509 4.301-3.823 5.734l.836 3.225h.119l4.898 2.748h.956c6.451 0 11.587 5.017 11.587 11.229v9.079h-47.664v-9.079c0-6.092 5.256-11.229 11.587-11.229zm137.02-93.059h.836l5.017-2.748.836-3.225c-1.195-1.195-2.389-3.225-3.584-5.734h-.239c-1.314 0-2.628-1.434-2.867-3.225-.239-1.434.239-2.509 1.075-2.986-1.075-5.734-1.911-14.454 7.884-16.605 5.853-1.314 8.004 3.225 8.243 3.703 3.584-2.031 5.853.956 6.451 2.628 1.075 2.867.717 8.243.119 10.512.597.597.836 1.553.717 2.748-.239 1.792-1.553 3.106-2.867 3.225-1.075 2.27-2.509 4.301-3.823 5.734l.836 3.225h.119l4.898 2.748h.956c6.451 0 11.587 5.017 11.587 11.229v9.079h-47.664v-9.079c0-6.092 5.256-11.229 11.587-11.229zm-162.225-85.413h.836l5.017-2.748.836-3.225c-1.195-1.195-2.389-3.225-3.584-5.734h-.239c-1.314 0-2.628-1.434-2.867-3.225-.239-1.434.239-2.509 1.075-2.986-1.075-5.734-1.911-14.454 7.884-16.605 5.853-1.314 8.004 3.225 8.243 3.703 3.584-2.031 5.853.956 6.451 2.628 1.075 2.867.717 8.243.119 10.512.597.597.836 1.553.717 2.748-.239 1.792-1.553 3.106-2.867 3.225-1.075 2.27-2.509 4.301-3.823 5.734l.836 3.225h.119l4.898 2.748h.956c6.451 0 11.587 5.017 11.587 11.229v9.079H192.09v-9.079c0-6.092 5.256-11.229 11.587-11.229zm98.314-95.328h.836l5.017-2.748.836-3.225c-1.195-1.195-2.389-3.225-3.584-5.734h-.239c-1.314 0-2.628-1.434-2.867-3.225-.239-1.434.239-2.509 1.075-2.986-1.075-5.734-1.911-14.455 7.884-16.605 5.853-1.314 8.004 3.225 8.243 3.703 3.584-2.031 5.853.956 6.451 2.628 1.075 2.867.717 8.243.119 10.512.597.597.836 1.553.717 2.748-.239 1.792-1.553 3.106-2.867 3.225-1.075 2.27-2.509 4.301-3.823 5.734l.836 3.225h.119l4.898 2.748h.956c6.451 0 11.587 5.017 11.587 11.229v9.079h-47.664v-9.079c0-6.092 5.256-11.229 11.587-11.229z" transform="translate(-39.061 -34.929)"/><path style="fill:#fff" d="M347.388 120.726c6.57 0 11.826 5.256 11.826 11.826s-5.256 11.826-11.826 11.826a11.777 11.777 0 0 1-11.826-11.826 11.776 11.776 0 0 1 11.826-11.826"/><path style="fill:#ff7069" d="M347.388 125.982a6.68 6.68 0 0 1 6.69 6.69 6.68 6.68 0 0 1-6.69 6.69 6.68 6.68 0 0 1-6.69-6.69 6.68 6.68 0 0 1 6.69-6.69"/><path style="fill:#fff" d="M262.453 165.762c6.57 0 11.826 5.256 11.826 11.826s-5.256 11.826-11.826 11.826a11.777 11.777 0 0 1-11.826-11.826 11.776 11.776 0 0 1 11.826-11.826"/><path style="fill:#ff7069" d="M262.453 171.018a6.68 6.68 0 0 1 6.69 6.69 6.68 6.68 0 0 1-6.69 6.69 6.68 6.68 0 0 1-6.69-6.69 6.68 6.68 0 0 1 6.69-6.69"/><path style="fill:#fff" d="M211.563 91.697c6.57 0 11.826 5.256 11.826 11.826s-5.256 11.826-11.826 11.826a11.777 11.777 0 0 1-11.826-11.826c0-6.57 5.256-11.826 11.826-11.826"/><path style="fill:#ff7069" d="M211.563 96.953a6.68 6.68 0 0 1 6.69 6.69 6.68 6.68 0 0 1-6.69 6.69 6.68 6.68 0 0 1-6.69-6.69 6.68 6.68 0 0 1 6.69-6.69"/><path style="fill:#fff" d="M98.078 173.407c6.57 0 11.826 5.256 11.826 11.826s-5.256 11.826-11.826 11.826a11.777 11.777 0 0 1-11.826-11.826 11.776 11.776 0 0 1 11.826-11.826"/><path style="fill:#ff7069" d="M98.078 178.663a6.68 6.68 0 0 1 6.69 6.69 6.68 6.68 0 0 1-6.69 6.69 6.68 6.68 0 0 1-6.69-6.69 6.68 6.68 0 0 1 6.69-6.69"/><path style="fill:#fff" d="M184.327 208.767c6.57 0 11.826 5.256 11.826 11.826s-5.256 11.826-11.826 11.826a11.777 11.777 0 0 1-11.826-11.826c0-6.57 5.256-11.826 11.826-11.826"/><path style="fill:#ff7069" d="M184.327 213.903a6.68 6.68 0 0 1 6.69 6.69 6.68 6.68 0 0 1-6.69 6.69 6.68 6.68 0 0 1-6.69-6.69 6.68 6.68 0 0 1 6.69-6.69"/><path style="fill:#fff" d="M144.069 282.831c6.57 0 11.826 5.256 11.826 11.826s-5.256 11.826-11.826 11.826a11.777 11.777 0 0 1-11.826-11.826c0-6.57 5.256-11.826 11.826-11.826"/><path style="fill:#ff7069" d="M144.069 287.968a6.68 6.68 0 0 1 6.69 6.69 6.68 6.68 0 0 1-6.69 6.69 6.68 6.68 0 0 1-6.69-6.69 6.68 6.68 0 0 1 6.69-6.69"/><path style="fill:#fff" d="M243.22 285.101c6.57 0 11.826 5.256 11.826 11.826s-5.256 11.826-11.826 11.826a11.777 11.777 0 0 1-11.826-11.826 11.776 11.776 0 0 1 11.826-11.826"/><path style="fill:#ff7069" d="M243.22 290.357a6.68 6.68 0 0 1 6.69 6.69 6.68 6.68 0 0 1-6.69 6.69 6.68 6.68 0 0 1-6.69-6.69 6.68 6.68 0 0 1 6.69-6.69"/></svg>