<?xml version="1.0" encoding="iso-8859-1"?>
<!-- Uploaded to: SVG Repo, www.svgrepo.com, Generator: SVG Repo Mixer Tools -->
<svg version="1.1" id="Layer_1" xmlns="http://www.w3.org/2000/svg" xmlns:xlink="http://www.w3.org/1999/xlink" 
	 viewBox="0 0 512 512" xml:space="preserve">
<circle cx="256" cy="256" r="256"/>
<g>
	<path style="fill:#DB2B42;" d="M313.176,234.4H71.368c-12.088,0-21.984-9.896-21.984-21.984V58.536
		c0-12.088,9.896-21.984,21.984-21.984h241.816c12.088,0,21.984,9.896,21.984,21.984v153.88
		C335.16,224.512,325.272,234.4,313.176,234.4z"/>
	<polygon style="fill:#DB2B42;" points="269.216,300.352 269.216,212.416 159.296,212.416 	"/>
</g>
<g>
	<rect x="181.28" y="102.504" style="fill:#FFFFFF;" width="21.984" height="21.984"/>
	<rect x="137.304" y="102.504" style="fill:#FFFFFF;" width="21.984" height="21.984"/>
	<rect x="93.352" y="102.504" style="fill:#FFFFFF;" width="21.984" height="21.984"/>
	<rect x="225.224" y="102.504" style="fill:#FFFFFF;" width="21.984" height="21.984"/>
	<rect x="269.216" y="102.504" style="fill:#FFFFFF;" width="21.984" height="21.984"/>
	<rect x="181.28" y="146.472" style="fill:#FFFFFF;" width="21.984" height="21.984"/>
	<rect x="225.224" y="146.472" style="fill:#FFFFFF;" width="21.984" height="21.984"/>
	<rect x="269.216" y="146.472" style="fill:#FFFFFF;" width="21.984" height="21.984"/>
	<circle style="fill:#FFFFFF;" cx="344.664" cy="305.44" r="34.44"/>
	<path style="fill:#FFFFFF;" d="M404.032,416.208c0,0,0,1.608,0-30.488s-35.024-32.68-35.024-32.68H320.24
		c0,0-35.024,0.392-35.024,32.68c0,32.088,0,30.488,0,30.488H404.032z"/>
	<circle style="fill:#FFFFFF;" cx="167.424" cy="305.44" r="34.44"/>
	<path style="fill:#FFFFFF;" d="M226.832,416.208c0,0,0,1.608,0-30.488s-35.024-32.68-35.024-32.68H143.04
		c0,0-35.024,0.392-35.024,32.68c0,32.088,0,30.488,0,30.488H226.832z"/>
</g>
</svg>