<?xml version="1.0" encoding="UTF-8" standalone="no"?>
<!-- Created with Inkscape (http://www.inkscape.org/) -->

<svg
   width="297mm"
   height="210mm"
   viewBox="0 0 297 210"
   version="1.1"
   id="svg1"
   xml:space="preserve"
   inkscape:version="1.4.2 (ebf0e94, 2025-05-08)"
   sodipodi:docname="pybibx.svg"
   inkscape:export-filename="pybibx.png"
   inkscape:export-xdpi="96"
   inkscape:export-ydpi="96"
   xmlns:inkscape="http://www.inkscape.org/namespaces/inkscape"
   xmlns:sodipodi="http://sodipodi.sourceforge.net/DTD/sodipodi-0.dtd"
   xmlns="http://www.w3.org/2000/svg"
   xmlns:svg="http://www.w3.org/2000/svg"><sodipodi:namedview
     id="namedview1"
     pagecolor="#ffffff"
     bordercolor="#000000"
     borderopacity="0.25"
     inkscape:showpageshadow="2"
     inkscape:pageopacity="0.0"
     inkscape:pagecheckerboard="0"
     inkscape:deskcolor="#d1d1d1"
     inkscape:document-units="mm"
     inkscape:zoom="0.61112514"
     inkscape:cx="2.4544891"
     inkscape:cy="425.44478"
     inkscape:window-width="2880"
     inkscape:window-height="1676"
     inkscape:window-x="-12"
     inkscape:window-y="-12"
     inkscape:window-maximized="1"
     inkscape:current-layer="layer1" /><defs
     id="defs1" /><g
     inkscape:label="Layer 1"
     inkscape:groupmode="layer"
     id="layer1"><g
       id="g26"
       transform="matrix(0.26458333,0,0,0.26458333,113.07156,51.817284)">
	<path
   style="fill:#44494f"
   d="M 512,16.015 V 422.681 H 0.239 V 65.175 H 0 V 19.52 H 0.478 C 0.16,18.406 0,17.209 0,16.015 0,7.17 7.171,0 16.015,0 h 479.97 C 504.829,0 512,7.17 512,16.015 Z"
   id="path1" />
	<rect
   x="9.2690001"
   y="62.678001"
   style="fill:#ffffff"
   width="493.46201"
   height="349.392"
   id="rect1" />
	<rect
   x="9.2690001"
   y="62.678001"
   style="opacity:0.06;fill:#0d0d0d"
   width="493.46201"
   height="20.763"
   id="rect2" />
	<g
   id="g7">
		<polygon
   style="fill:#f7bfa1"
   points="237.87,115.971 462.397,115.971 462.397,178.019 420.747,178.019 379.338,216.11 311.44,153.665 273.396,188.647 237.87,188.647 "
   id="polygon2" />
		<polygon
   style="fill:#f29b84"
   points="420.747,178.019 462.397,178.019 462.397,247.189 237.87,247.189 237.87,188.647 273.396,188.647 311.44,153.665 379.338,216.11 "
   id="polygon3" />
		<polygon
   style="fill:#f9f8c9"
   points="237.87,184.994 271.36,184.994 311.326,148.364 379.423,210.808 419.149,174.365 462.397,174.365 462.397,182.337 422.755,182.337 379.423,222.075 311.326,159.631 274.966,192.965 237.87,192.965 "
   id="polygon4" />
		<ellipse
   style="fill:#fefdf0"
   cx="312.427"
   cy="156.87801"
   rx="7.9949999"
   ry="7.8070002"
   id="ellipse4" />
		<ellipse
   style="fill:#fefdf0"
   cx="420.74701"
   cy="178.019"
   rx="7.9949999"
   ry="7.8070002"
   id="ellipse5" />
		<ellipse
   style="fill:#fefdf0"
   cx="379.25101"
   cy="215.814"
   rx="7.9949999"
   ry="7.8070002"
   id="ellipse6" />
		<ellipse
   style="fill:#fefdf0"
   cx="274.24301"
   cy="186.48399"
   rx="7.9949999"
   ry="7.8070002"
   id="ellipse7" />
	</g>
	<g
   id="g10">
		<ellipse
   style="fill:#8bc66f"
   cx="125.815"
   cy="32.558998"
   rx="12.141"
   ry="12.923"
   id="ellipse8" />
		<ellipse
   style="fill:#f4db6d"
   cx="81.650002"
   cy="32.558998"
   rx="12.141"
   ry="12.923"
   id="ellipse9" />
		<ellipse
   style="fill:#e06276"
   cx="37.485001"
   cy="32.558998"
   rx="12.141"
   ry="12.923"
   id="ellipse10" />
	</g>
	<g
   id="g19">
		<g
   id="g14">
			<rect
   x="53.699001"
   y="305.56699"
   style="opacity:0.5;fill:#899c99"
   width="76.660004"
   height="64.005997"
   id="rect10" />
			<g
   style="opacity:0.5"
   id="g13">
				<rect
   x="142.537"
   y="356.28799"
   style="fill:#899c99"
   width="51.228001"
   height="8.816"
   id="rect11" />
				<rect
   x="142.537"
   y="308.16699"
   style="fill:#899c99"
   width="105.815"
   height="9.2159996"
   id="rect12" />
				<rect
   x="142.537"
   y="332.12701"
   style="fill:#899c99"
   width="105.815"
   height="9.2159996"
   id="rect13" />
			</g>
		</g>
		<g
   id="g18">
			<rect
   x="271.76999"
   y="305.56699"
   style="opacity:0.5;fill:#899c99"
   width="76.660004"
   height="64.005997"
   id="rect14" />
			<g
   style="opacity:0.5"
   id="g17">
				<rect
   x="360.60699"
   y="356.28799"
   style="fill:#899c99"
   width="51.228001"
   height="8.816"
   id="rect15" />
				<rect
   x="360.60699"
   y="308.16699"
   style="fill:#899c99"
   width="105.815"
   height="9.2159996"
   id="rect16" />
				<rect
   x="360.60699"
   y="332.12701"
   style="fill:#899c99"
   width="105.815"
   height="9.2159996"
   id="rect17" />
			</g>
		</g>
	</g>
	<g
   id="g22">
		<path
   style="fill:#f29640"
   d="m 206.196,171.055 c -3.329,-14.232 -10.237,-27.39 -19.96,-38.229 -9.73,-10.846 -22.283,-19.363 -36.956,-24.252 -1.514,-0.505 -3.046,-0.978 -4.604,-1.404 -13.785,-3.769 -27.696,-3.962 -40.773,-1.183 -15.467,3.287 -29.758,10.751 -41.264,21.503 l 63.837,64.49 78.9,21.573 c 3.934,-14.39 3.996,-28.925 0.82,-42.498 z"
   id="path19" />
		<path
   style="fill:#e8ea76"
   d="m 205.375,213.554 c 3.935,-14.391 3.996,-28.926 0.821,-42.499 l -79.721,20.927 57.984,58.577 c 9.639,-10.07 16.981,-22.614 20.916,-37.005 z"
   id="path20" />
		<path
   style="fill:#6992a1"
   d="m 98.992,274.254 c -13.645,-3.731 -25.617,-10.54 -35.395,-19.455 -0.11,-0.085 -0.206,-0.178 -0.303,-0.271 -11.651,-10.701 -20.154,-24.399 -24.59,-39.512 -4.359,-14.87 -4.799,-31.097 -0.411,-47.145 4.388,-16.048 13.023,-29.793 24.341,-40.377 l 63.841,64.488 -22.805,83.408 c -1.559,-0.339 -3.12,-0.71 -4.678,-1.136 z"
   id="path21" />
		<path
   style="fill:#7bcad4"
   d="m 103.67,275.389 c 15.116,3.257 30.262,2.31 44.152,-2.073 0.123,-0.044 0.256,-0.085 0.379,-0.129 13.74,-4.401 26.239,-12.169 36.26,-22.631 l -57.682,-58.27 -0.067,-0.24 -0.09,0.086 -0.147,-0.151 -0.113,0.413 -62.765,62.406 c 9.778,8.914 21.75,15.724 35.395,19.455 1.558,0.425 3.119,0.796 4.678,1.134 z"
   id="path22" />
	</g>
	<g
   id="g25">
		<rect
   x="429.48901"
   y="256.97"
   style="fill:#82ccd3"
   width="32.908001"
   height="20.313"
   id="rect22" />
		<rect
   x="387.246"
   y="256.97"
   style="fill:#e4e78e"
   width="32.908001"
   height="20.313"
   id="rect23" />
		<rect
   x="345.004"
   y="256.97"
   style="fill:#e5a871"
   width="32.908001"
   height="20.313"
   id="rect24" />
		<rect
   x="302.76099"
   y="256.97"
   style="fill:#6992a1"
   width="32.908001"
   height="20.313"
   id="rect25" />
	</g>
</g><path
       id="rect1609"
       style="opacity:0.999;fill-opacity:1;stroke:none;stroke-width:0.399996;stroke-linecap:square"
       d="m 65.5673,34.327627 v 40 h 40 v -40 z m 12.168273,10.40893 c 2.314772,0 3.337518,0.26936 4.764101,0.86151 l -0.134583,2.12616 c -1.534205,-0.91515 -2.745391,-1.18408 -4.494935,-1.18408 -2.018692,0 -3.041687,1.53402 -3.041687,2.93366 0,1.88412 1.803413,2.58406 3.499147,3.60687 2.180172,1.29197 4.441222,2.44939 4.441222,5.00641 0,3.3645 -2.880162,5.06012 -5.62561,5.06012 -1.964883,0 -3.391302,-0.2961 -4.790954,-0.94208 l 0.323182,-2.12646 c 1.372722,0.83439 2.556996,1.2384 4.36035,1.2384 1.830284,0 3.364259,-1.23819 3.364259,-2.96082 0,-1.77645 -1.722385,-2.44954 -3.364259,-3.44543 -2.207103,-1.3458 -4.629516,-2.53014 -4.629516,-5.27558 0,-2.74543 2.018607,-4.89868 5.329283,-4.89868 z m 16.84418,0 c 2.718517,0 3.929763,0.32314 5.410156,1.02295 l -0.161441,2.01874 c -1.614992,-0.88825 -3.310779,-1.2381 -5.517882,-1.2381 -3.499092,0 -6.486816,2.77218 -6.486816,7.26715 0,4.25273 3.041609,7.45575 6.863709,7.45575 1.749543,0 3.499116,-0.34987 5.140989,-1.2381 l 0.161441,2.0456 c -1.453468,0.72673 -3.283621,1.02295 -5.490724,1.02295 -4.387328,0 -9.097596,-3.23016 -9.097596,-9.12476 0,-5.16787 3.956455,-9.23218 9.178164,-9.23218 z" /><path
       id="path2"
       d="m 77.756961,153.15686 c 0.31199,-10.45698 -5.82449,-11.84768 -5.82449,-11.84768 v 3.2565 c -2.44198,-1.21365 -4.78634,-1.38883 -4.78634,-1.38883 v 26.58119 c 0,0 10.21918,-1.18932 10.21918,8.79265 0,0 3.81085,-15.9765 25.923019,2.75849 0,-6.41598 0.0393,-22.59784 0.0393,-27.94633 -20.387009,-14.85248 -25.570649,-0.20599 -25.570649,-0.20599 z m 19.500659,18.10631 -1.28917,-10.17233 h -0.0467 l -4.24252,10.17233 h -1.82916 l -4.05585,-10.17233 h -0.0467 l -1.476649,10.17233 h -4.57033 l 3.00016,-17.66867 h 4.523659 l 3.587,9.44267 3.79851,-9.44267 h 4.57032 l 2.67518,17.66867 h -4.59786 z"
       style="stroke-width:0.0178657" /><g
       id="RID-lens"
       stroke="none"
       stroke-width="0.099219"
       fill="none"
       fill-rule="evenodd"
       transform="matrix(2.6666667,0,0,2.6666667,39.42039,86.676171)"><path
         d="M 4.6153846,12.09632 C 5.0261266,13.13607 5.5954119,14.114185 6.3053936,15 9.1815605,14.334167 11.796924,12.912895 13.846154,10.90211 13.381426,9.8823135 12.762796,8.9308045 12.00934,8.0769231 10.136475,10.206236 7.5126401,11.632568 4.6153846,12.09632 Z"
         fill="#16ab03"
         fill-rule="nonzero"
         id="path1-9"
         style="stroke-width:0.099219" /><path
         d="M 6.2981924,0 C 5.5906916,1.0343026 5.0238447,2.1757692 4.6153846,3.3886909 c 2.897406,0.540463 5.5214664,2.20419 7.3943644,4.6882322 0.753288,-0.9958845 1.37178,-2.1056324 1.836405,-3.2950243 C 11.795244,2.4342057 9.1771669,0.77556165 6.2981924,0 Z"
         fill="#5e33bf"
         fill-rule="nonzero"
         id="path2-4"
         style="stroke-width:0.099219" /><path
         d="M 4.6153846,12.514355 C 3.6178587,10.038336 3.4801656,7.3332153 4.2217149,4.7804437 4.3334974,4.3919956 4.4651449,4.011699 4.6130884,3.6391776 3.3174529,3.4357038 1.9971188,3.4068573 0.69266071,3.5535246 -0.23027962,6.5077488 -0.23089857,9.6455933 0.69087623,12.600133 1.9966863,12.747089 3.3184176,12.7182 4.6153846,12.514355 Z"
         fill="#000000"
         fill-rule="nonzero"
         id="path3"
         style="stroke-width:0.099219" /></g></g></svg>
