<?xml version="1.0" encoding="UTF-8" standalone="no"?>
<!-- Created with Inkscape (http://www.inkscape.org/) -->

<svg
   width="128"
   height="128"
   viewBox="0 0 33.866667 33.866667"
   version="1.1"
   id="svg193"
   inkscape:version="1.3.2 (091e20e, 2023-11-25, custom)"
   sodipodi:docname="icon.svg"
   inkscape:export-filename="..\icon.png"
   inkscape:export-xdpi="96"
   inkscape:export-ydpi="96"
   xmlns:inkscape="http://www.inkscape.org/namespaces/inkscape"
   xmlns:sodipodi="http://sodipodi.sourceforge.net/DTD/sodipodi-0.dtd"
   xmlns="http://www.w3.org/2000/svg"
   xmlns:svg="http://www.w3.org/2000/svg">
  <sodipodi:namedview
     id="namedview195"
     pagecolor="#ffffff"
     bordercolor="#000000"
     borderopacity="0.25"
     inkscape:showpageshadow="true"
     inkscape:pageopacity="1"
     inkscape:pagecheckerboard="0"
     inkscape:deskcolor="#d1d1d1"
     inkscape:document-units="mm"
     showgrid="false"
     inkscape:zoom="6.7277216"
     inkscape:cx="26.90361"
     inkscape:cy="80.933789"
     inkscape:window-width="2880"
     inkscape:window-height="1694"
     inkscape:window-x="1609"
     inkscape:window-y="648"
     inkscape:window-maximized="1"
     inkscape:current-layer="layer1"
     showguides="true" />
  <defs
     id="defs190" />
  <g
     inkscape:label="layer"
     inkscape:groupmode="layer"
     id="layer1"
     transform="translate(0.93248236,0.82595026)"
     style="display:inline">
    <g
       inkscape:groupmode="layer"
       id="layer3"
       inkscape:label="layer bottom"
       style="display:inline">
      <ellipse
         style="display:inline;fill:#ffffff;stroke-width:0;stroke-linecap:round;stroke-linejoin:bevel;stroke-miterlimit:0.5;paint-order:markers fill stroke"
         id="path378"
         cx="16.001017"
         cy="16.10755"
         rx="16.807499"
         ry="16.807501"
         inkscape:label="background_round" />
      <circle
         style="display:inline;opacity:0.88;fill:#ffffff;fill-opacity:0;stroke:#777a44;stroke-width:2.11667;stroke-dasharray:none;stroke-opacity:1"
         id="path6283"
         cx="16.000851"
         cy="16.107384"
         r="15.749148" />
    </g>
    <g
       id="gX"
       transform="translate(3.2116129,3.4813496)">
      <path
         d="m 6.2030235,-19.917899 q 1.0128604,-1.27331 1.5819914,-1.678455 0.7717031,-0.559484 1.6302229,-0.559484 1.0128602,0 1.8906722,0.733118 0.887459,0.733118 0.887459,2.36334 0,1.138263 -0.327974,1.79421 -0.327974,0.646302 -1.022506,1.041799 -0.694533,0.395498 -1.4276512,0.395498 -0.8585198,0 -1.6302229,-0.549838 -0.569131,-0.414791 -1.5819914,-1.688101 -1.3118953,1.649516 -2.7877775,1.649516 -0.9742752,0 -1.6784543,-0.733118 -0.6945328,-0.742765 -0.6945328,-1.842442 0,-1.09003 0.6945328,-1.832794 0.7041791,-0.742765 1.6784543,-0.742765 1.4758822,0 2.7877775,1.649516 z m 0.665594,0.916397 q 0.8392271,1.302249 1.5337599,1.784564 0.4437293,0.318327 0.9935678,0.318327 0.7331178,0 1.2250788,-0.540192 0.501607,-0.540192 0.501607,-1.524114 0,-1.022506 -0.511253,-1.562698 -0.501607,-0.540193 -1.254018,-0.540193 -0.4726681,0 -0.8874586,0.270096 -0.5594847,0.376206 -1.6012839,1.79421 z m -1.3311879,0.0096 q -0.7717032,-0.964628 -1.234725,-1.234725 -0.4630219,-0.279742 -0.8874586,-0.279742 -0.5594848,0 -0.9356901,0.395498 -0.3665589,0.395498 -0.3665589,1.090031 0,0.684886 0.3858515,1.099677 0.3858516,0.405144 0.9356901,0.405144 0.9742752,0 2.102891,-1.475883 z"
         id="text1"
         style="font-size:19.7556px;font-family:Arial;-inkscape-font-specification:Arial;opacity:0.64;fill:#002147;stroke:#002147;stroke-width:0.53"
         transform="rotate(140.8562)"
         aria-label="∞" />
      <path
         d="m 10.106302,15.819036 q 1.01286,-1.27331 1.581991,-1.678454 0.771703,-0.559485 1.630223,-0.559485 1.01286,0 1.890672,0.733118 0.887459,0.733118 0.887459,2.363341 0,1.138262 -0.327974,1.79421 -0.327974,0.646301 -1.022506,1.041799 -0.694533,0.395498 -1.427651,0.395498 -0.85852,0 -1.630223,-0.549839 -0.569131,-0.41479 -1.581991,-1.6881 -1.3118958,1.649515 -2.787778,1.649515 -0.9742752,0 -1.6784543,-0.733118 -0.6945328,-0.742764 -0.6945328,-1.842441 0,-1.090031 0.6945328,-1.832795 0.7041791,-0.742764 1.6784543,-0.742764 1.4758822,0 2.787778,1.649515 z m 0.665593,0.916398 q 0.839228,1.302249 1.53376,1.784563 0.44373,0.318328 0.993568,0.318328 0.733118,0 1.225079,-0.540192 0.501607,-0.540193 0.501607,-1.524114 0,-1.022507 -0.511253,-1.562699 -0.501607,-0.540192 -1.254018,-0.540192 -0.472668,0 -0.887459,0.270096 -0.559484,0.376205 -1.601284,1.79421 z m -1.3311874,0.0096 Q 8.6690045,15.780451 8.2059826,15.510355 7.7429607,15.230613 7.318524,15.230613 q -0.5594848,0 -0.93569,0.395498 -0.366559,0.395497 -0.366559,1.09003 0,0.684887 0.3858515,1.099677 0.3858516,0.405144 0.9356901,0.405144 0.9742752,0 2.102891,-1.475882 z"
         id="text2"
         style="font-size:19.7556px;font-family:Arial;-inkscape-font-specification:Arial;opacity:0.64;fill:#5b92e5;stroke:#5b92e5;stroke-width:0.53"
         transform="rotate(-39.143797)"
         aria-label="∞" />
      <path
         d="m 26.047269,-3.7657143 q 1.012861,-1.2733102 1.581992,-1.6784543 0.771703,-0.5594848 1.630223,-0.5594848 1.01286,0 1.890672,0.733118 0.887459,0.733118 0.887459,2.3633408 0,1.1382621 -0.327974,1.7942098 -0.327974,0.64630134 -1.022507,1.04179919 -0.694532,0.39549785 -1.42765,0.39549785 -0.85852,0 -1.630223,-0.54983848 -0.569131,-0.41479043 -1.581992,-1.68810056 -1.311895,1.64951541 -2.787777,1.64951541 -0.974275,0 -1.678454,-0.73311797 -0.694533,-0.74276424 -0.694533,-1.84244124 0,-1.0900306 0.694533,-1.8327949 0.704179,-0.7427642 1.678454,-0.7427642 1.475882,0 2.787777,1.6495154 z m 0.665594,0.9163974 q 0.839227,1.3022491 1.53376,1.7845635 0.44373,0.31832756 0.993568,0.31832756 0.733118,0 1.225079,-0.54019216 0.501607,-0.5401922 0.501607,-1.5241137 0,-1.0225066 -0.511254,-1.5626988 -0.501607,-0.5401922 -1.254017,-0.5401922 -0.472668,0 -0.887459,0.2700961 -0.559485,0.3762053 -1.601284,1.7942097 z m -1.331188,0.00965 q -0.771703,-0.9646289 -1.234725,-1.234725 -0.463021,-0.2797423 -0.887458,-0.2797423 -0.559485,0 -0.93569,0.3954978 -0.366559,0.3954979 -0.366559,1.0900307 0,0.6848865 0.385851,1.0996769 0.385852,0.4051442 0.93569,0.4051442 0.974276,0 2.102891,-1.4758823 z"
         id="text3"
         style="font-size:19.7556px;font-family:Arial;-inkscape-font-specification:Arial;fill:#002625;stroke:#002625;stroke-width:0.53"
         transform="matrix(0.7755641,0.63126882,0.63126882,-0.7755641,0,0)"
         aria-label="∞" />
      <path
         d="m -9.737946,-0.33314911 q 1.0128603,-1.27331019 1.5819914,-1.67845429 0.7717031,-0.5594848 1.6302228,-0.5594848 1.0128604,0 1.8906727,0.733118 0.8874586,0.733118 0.8874586,2.36334082 0,1.13826208 -0.3279739,1.79420978 -0.3279738,0.6463013 -1.0225066,1.0417992 -0.6945328,0.3954979 -1.4276508,0.3954979 -0.8585197,0 -1.6302228,-0.5498385 -0.5691311,-0.4147905 -1.5819914,-1.6881006 -1.311895,1.6495154 -2.787778,1.6495154 -0.974275,0 -1.678454,-0.7331179 -0.694533,-0.7427643 -0.694533,-1.84244126 0,-1.09003066 0.694533,-1.83279494 0.704179,-0.7427642 1.678454,-0.7427642 1.475883,0 2.787778,1.64951539 z m 0.6655939,0.91639746 q 0.8392272,1.30224905 1.53376,1.78456345 0.4437293,0.3183276 0.9935677,0.3183276 0.733118,0 1.2250787,-0.5401922 0.5016071,-0.5401922 0.5016071,-1.52411369 0,-1.02250664 -0.5112533,-1.56269883 -0.5016071,-0.54019218 -1.2540176,-0.54019218 -0.4726682,0 -0.8874586,0.2700961 -0.5594848,0.37620526 -1.601284,1.79420975 z m -1.3311879,0.009646 q -0.771703,-0.9646289 -1.234725,-1.23472499 -0.463022,-0.27974239 -0.887459,-0.27974239 -0.559484,0 -0.93569,0.39549785 -0.366559,0.39549785 -0.366559,1.09003067 0,0.68488652 0.385852,1.09967692 0.385852,0.4051442 0.93569,0.4051442 0.974275,0 2.102891,-1.47588226 z"
         id="text4"
         style="font-size:19.7556px;font-family:Arial;-inkscape-font-specification:Arial;opacity:0.64;fill:#006d69;stroke:#006d69;stroke-width:0.53"
         transform="matrix(-0.77556406,-0.63126888,-0.63126888,0.77556406,0,0)"
         aria-label="∞" />
      <path
         d="m 15.048587,19.56946 c 0.704691,0 1.322651,-0.379449 1.788831,-0.834787 h 0.03252 l 0.08673,0.693849 h 0.802264 v -8.629754 h -0.975726 v 2.265852 l 0.04336,1.019092 c -0.520387,-0.433656 -0.964884,-0.69385 -1.658734,-0.69385 -1.344334,0 -2.547729,1.192554 -2.547729,3.100641 0,1.962293 0.954043,3.078957 2.428474,3.078957 z m 0.216828,-0.823946 c -1.040775,0 -1.62621,-0.845629 -1.62621,-2.265853 0,-1.344333 0.748056,-2.255011 1.7021,-2.255011 0.487863,0 0.93236,0.173462 1.441906,0.61796 v 3.089799 c -0.498705,0.54207 -0.975726,0.813105 -1.517796,0.813105 z"
         id="text5"
         style="font-size:10.8414px;font-family:'Noto Sans TC';-inkscape-font-specification:'Noto Sans TC';fill:#777a44;stroke:#777a44;stroke-width:0.508988"
         transform="matrix(1.0467427,0,0,0.95534461,-3.2116129,-3.4813496)"
         aria-label="d" />
    </g>
  </g>
</svg>
